<svg width="80" height="19" viewBox="0 0 80 19" fill="none" xmlns="http://www.w3.org/2000/svg">
<path d="M62.5674 4.22363C62.5994 4.27163 62.6236 4.2959 62.6396 4.2959L62.9277 4.22363C62.9597 4.22372 63.0158 4.2639 63.0957 4.34375L63.1914 4.27246C63.2554 4.24046 63.2881 4.22363 63.2881 4.22363C63.3042 4.22378 63.3362 4.2322 63.3838 4.24805C63.4317 4.24807 63.4635 4.25648 63.4795 4.27246L63.5996 4.22363C63.6476 4.20765 63.6877 4.2002 63.7197 4.2002L64.0312 4.32031C64.1271 4.25638 64.2234 4.21623 64.3193 4.2002L64.5352 4.22363V4.24805C64.5033 4.28024 64.4873 4.36827 64.4873 4.51172L64.5117 4.7998C64.5437 4.81579 64.5118 4.87196 64.416 4.96777C64.416 4.96777 64.4319 5.0163 64.4639 5.1123L64.584 5.28027V5.75977C64.5851 5.76088 64.601 5.77683 64.6318 5.80762C64.6478 5.82362 64.6553 5.8563 64.6553 5.9043L64.584 6.14355V6.19238C64.5998 6.20835 64.616 6.23201 64.6318 6.26367C64.5839 6.31162 64.5437 6.33589 64.5117 6.33594L64.5352 6.43164C64.5511 6.46359 64.5595 6.50387 64.5596 6.55176V6.57617C64.5595 6.59217 64.5511 6.61655 64.5352 6.64844C64.5351 6.68027 64.5276 6.71998 64.5117 6.76758L64.7041 6.83984C64.7041 6.99984 64.7601 7.16031 64.8721 7.32031V7.36816C64.872 7.54412 64.7834 7.7364 64.6074 7.94434C64.6235 8.00811 64.6797 8.03999 64.7754 8.04004C64.7754 8.18402 64.768 8.28013 64.752 8.32812L64.7754 8.37598C64.8394 8.37598 64.8879 8.41609 64.9199 8.49609C64.9518 8.54407 64.9518 8.61613 64.9199 8.71191C64.9199 8.79191 64.9115 8.8563 64.8955 8.9043L65.0156 9.36035C64.9998 9.37629 64.9913 9.39994 64.9912 9.43164L64.752 9.38379C64.752 9.39975 64.736 9.42416 64.7041 9.45605C64.7201 9.51995 64.7518 9.55176 64.7998 9.55176C64.8478 9.53581 64.9282 9.52832 65.04 9.52832C65.0081 9.52832 65.1035 9.47218 65.3271 9.36035V9C65.4071 9.048 65.4641 9.07227 65.4961 9.07227L65.6152 9.02441L65.5195 8.87988L65.5918 8.68848C65.5918 8.65648 65.5834 8.6238 65.5674 8.5918C65.5673 8.55985 65.5599 8.51196 65.5439 8.44824C65.5121 8.35261 65.5038 8.29652 65.5195 8.28027L65.6641 7.99219C65.68 7.92829 65.6875 7.85622 65.6875 7.77637C65.6875 7.69642 65.6959 7.60018 65.7119 7.48828L65.7598 7.44043V7.2959C65.7598 7.21601 65.7672 7.12807 65.7832 7.03223C65.7992 7.01623 65.8319 7.00781 65.8799 7.00781C65.8799 7.05581 65.9116 7.10434 65.9756 7.15234C66.0556 7.18424 66.1433 7.07976 66.2393 6.83984C66.2873 6.74384 66.3199 6.66361 66.3359 6.59961C66.3678 6.51998 66.3913 6.45608 66.4072 6.4082L66.1914 6.26367C66.2234 6.23171 66.2477 6.21582 66.2637 6.21582L66.3594 6.24023C66.3753 6.24023 66.3837 6.24789 66.3838 6.26367C66.3998 6.27967 66.4156 6.28809 66.4316 6.28809H66.4561C66.5198 6.28762 66.5677 6.18312 66.5996 5.97559L66.4561 5.85645C66.3922 5.87241 66.3595 5.91183 66.3594 5.97559L66.0713 5.87988C66.1192 5.72009 66.135 5.61644 66.1191 5.56836L66.0957 5.47168C66.0798 5.43972 66.0713 5.39945 66.0713 5.35156C66.0714 5.28774 66.1041 5.23148 66.168 5.18359C66.2317 5.13571 66.2637 5.08792 66.2637 5.04004L66.2158 4.82422C66.1678 4.71222 66.152 4.64784 66.168 4.63184C66.216 4.58375 66.288 4.4875 66.3838 4.34375H66.5039C66.5199 4.37573 66.5358 4.4159 66.5518 4.46387C66.5678 4.51187 66.592 4.56784 66.624 4.63184L66.7197 4.51172C66.8157 4.46379 66.9437 4.44044 67.1035 4.44043C67.1355 4.44043 67.184 4.47213 67.248 4.53613C67.3113 4.59937 67.3509 4.63126 67.3672 4.63184C67.4151 4.63184 67.4638 4.5682 67.5117 4.44043L67.6318 4.46387L67.9434 4.58398C67.9913 4.59998 68.0399 4.56822 68.0879 4.48828H68.1836C68.2475 4.55217 68.3036 4.58396 68.3516 4.58398L68.6875 4.46387C68.7355 4.52787 68.7598 4.59225 68.7598 4.65625C68.7438 4.72025 68.7195 4.81647 68.6875 4.94434C68.6555 5.05629 68.5994 5.20016 68.5195 5.37598C68.4555 5.53597 68.3436 5.64792 68.1836 5.71191C68.2796 5.80791 68.3271 5.92827 68.3271 6.07227L68.1113 6.57617V6.67188C68.1113 6.70386 68.1039 6.74403 68.0879 6.79199C68.0559 6.82399 68.0158 6.88838 67.9678 6.98438C67.9837 7.04834 67.9912 7.13627 67.9912 7.24805V7.58398L67.7754 7.53613C67.7276 7.53624 67.6957 7.56805 67.6797 7.63184L67.7275 7.75195C67.7435 7.78395 67.752 7.80822 67.752 7.82422C67.7678 7.84013 67.7754 7.85616 67.7754 7.87207C67.7914 7.93607 67.7998 8.00046 67.7998 8.06445V8.28027L67.6797 8.54395L67.6318 8.9043C67.5838 9.04818 67.4951 9.14441 67.3672 9.19238C67.4311 9.25631 67.4638 9.31986 67.4639 9.38379C67.4639 9.41578 67.4554 9.45592 67.4395 9.50391C67.4395 9.53589 67.432 9.57607 67.416 9.62402C67.3681 9.67193 67.3354 9.71968 67.3193 9.76758C67.3033 9.83154 67.2875 9.91188 67.2715 10.0078C67.2555 10.1038 67.2312 10.2317 67.1992 10.3916L67.0801 10.6084C67.0641 10.6723 67.0472 10.7519 67.0312 10.8477C67.0153 10.9436 66.992 11.064 66.96 11.208C66.928 11.224 66.8718 11.2324 66.792 11.2324C66.776 11.2324 66.7676 11.2641 66.7676 11.3281C66.7676 11.392 66.7994 11.4641 66.8633 11.5439L66.792 11.6396V11.7598C66.792 11.8078 66.7836 11.8721 66.7676 11.9521C66.7356 11.9682 66.6879 12.0243 66.624 12.1201L66.6719 12.4316L66.6475 12.5518L66.5273 12.5762C66.4795 12.5764 66.4561 12.6324 66.4561 12.7441V12.9844L66.2881 13.4639V13.6797L66.1914 13.9443L66.1436 14.2559L66 14.4004L65.9033 14.5918C65.8872 14.576 65.8469 14.5684 65.7832 14.5684L65.7354 14.6162C65.7194 14.6164 65.7034 14.6322 65.6875 14.6641L65.832 14.7363C65.9277 14.7842 65.9756 14.8245 65.9756 14.8564L65.9033 15.0244C65.8873 15.0885 65.864 15.2007 65.832 15.3604L65.8555 15.4805C65.8235 15.5922 65.7758 15.6962 65.7119 15.792C65.6479 15.808 65.5677 15.864 65.4717 15.96C65.5197 16.0719 65.5439 16.1839 65.5439 16.2959C65.5439 16.4239 65.4954 16.5358 65.3994 16.6318L65.0635 16.9678L64.9912 17.5684C64.9113 17.6322 64.8233 17.6959 64.7275 17.7598C64.6316 17.8397 64.5195 17.9116 64.3916 17.9756L63.9834 18.0723C63.9675 18.0882 63.9514 18.1119 63.9355 18.1436C63.9195 18.1756 63.8953 18.2082 63.8633 18.2402H63.7432C63.6953 18.2402 63.6475 18.2318 63.5996 18.2158L63.0479 18.2402H62.9277C62.8798 18.2562 62.8237 18.2721 62.7598 18.2881L62.5674 18.3359C62.5352 18.3358 62.4548 18.3116 62.3271 18.2637L62.0879 18.1924C62.0879 18.1924 62.0795 18.1924 62.0635 18.1924C62.0475 18.2083 62.023 18.2243 61.9912 18.2402C61.9273 18.2721 61.8552 18.2796 61.7754 18.2637C61.7272 18.2635 61.5993 18.2075 61.3916 18.0957C61.4075 18.0637 61.4235 18.0159 61.4395 17.9521C61.4554 17.9042 61.4797 17.8481 61.5117 17.7842L61.584 17.6885V17.1602C61.616 17.0802 61.6636 17.0401 61.7275 17.04L61.7998 17.0879H61.8955C61.8636 17.0559 61.8477 16.9921 61.8477 16.8965L61.6553 16.7998C61.6075 16.7832 61.584 16.6469 61.584 16.3916C61.584 16.0082 61.6636 15.8242 61.8232 15.8398L62.0635 15.9121H62.208L62.3516 15.8877C62.4316 15.8877 62.4959 15.912 62.5439 15.96C62.5759 15.9919 62.6077 16.0078 62.6396 16.0078C62.7515 16.0078 62.8553 15.96 62.9512 15.8643C63.047 15.7844 63.1275 15.7124 63.1914 15.6484C63.2554 15.6004 63.2955 15.5678 63.3115 15.5518C63.3435 15.5198 63.3837 15.4965 63.4316 15.4805C63.4956 15.4805 63.56 15.4721 63.624 15.4561V15.2637C63.6081 15.2317 63.5996 15.1915 63.5996 15.1436C63.5995 15.1116 63.5911 15.0637 63.5752 15C63.5752 14.952 63.5995 14.896 63.6475 14.832C63.6794 14.848 63.7112 14.8723 63.7432 14.9043C63.7751 14.9362 63.8154 14.9681 63.8633 15C63.8793 15 63.9196 14.9681 63.9834 14.9043H63.96V14.8564C63.976 14.8404 63.9834 14.8236 63.9834 14.8076C63.9832 14.7596 63.9515 14.6875 63.8877 14.5918C63.8717 14.5918 63.8474 14.6319 63.8154 14.7119H63.6953C63.7273 14.5359 63.76 14.4156 63.792 14.3516V14.3037L63.624 14.2324C63.592 14.1524 63.5678 14.0479 63.5518 13.9199L63.5273 13.6562C63.5273 13.5763 63.5994 13.48 63.7432 13.3682C63.7272 13.3042 63.6955 13.2725 63.6475 13.2725C63.5995 13.2725 63.5593 13.2883 63.5273 13.3203C63.4793 13.2723 63.4561 13.152 63.4561 12.96C63.4561 12.8803 63.4475 12.8326 63.4316 12.8164C63.3955 12.7322 63.3686 12.6791 63.3506 12.6582L63.3359 12.6484L63.4072 12.4561C63.4552 12.3761 63.4794 12.3201 63.4795 12.2881C63.4795 12.2401 63.4076 12.2158 63.2637 12.2158L63.2881 12.0957C63.2241 11.9357 63.1755 11.7836 63.1436 11.6396C63.1117 11.496 63.1032 11.3602 63.1191 11.2324L63.2393 11.04C63.2235 11.0238 63.2318 10.9677 63.2637 10.8721L63.2881 10.7275C63.2719 10.6797 63.2074 10.6563 63.0957 10.6562L62.9512 10.0078C63.0312 9.97581 63.104 9.92826 63.168 9.86426C63.168 9.83226 63.1353 9.79214 63.0713 9.74414L62.9033 9.64844V9.57617C62.9033 9.54417 62.9117 9.49564 62.9277 9.43164C62.9436 9.39966 62.9512 9.35182 62.9512 9.28809C62.9512 9.24009 62.9437 9.1757 62.9277 9.0957C62.9117 9.01576 62.88 8.91949 62.832 8.80762L62.7354 8.54395L62.8076 8.28027H62.832C62.9279 8.28036 63.0158 8.31207 63.0957 8.37598C63.1276 8.37592 63.152 8.3441 63.168 8.28027C63.168 8.20035 63.1277 8.16023 63.0479 8.16016L62.9756 8.18359C62.7196 8.16756 62.5918 7.94368 62.5918 7.51172C62.5918 7.39988 62.6077 7.32787 62.6396 7.2959C62.7196 7.21595 62.7756 7.17579 62.8076 7.17578C62.7916 7.15978 62.7598 7.13544 62.7119 7.10352C62.6799 7.05556 62.6313 6.99946 62.5674 6.93555C62.5196 6.88761 62.4961 6.82388 62.4961 6.74414C62.4801 6.64815 62.4801 6.49606 62.4961 6.28809C62.4642 6.2242 62.4398 6.18403 62.4238 6.16797C62.4558 6.10397 62.4717 6.00781 62.4717 5.87988C62.5036 5.8479 62.5121 5.80772 62.4961 5.75977C62.2721 5.43977 62.176 5.21589 62.208 5.08789L62.2314 4.96777C62.2633 4.90397 62.2792 4.8562 62.2793 4.82422C62.1353 4.64823 62.0635 4.5036 62.0635 4.3916C62.0637 4.35948 62.088 4.29574 62.1357 4.2002L62.3271 4.22363C62.359 4.22363 62.3834 4.21606 62.3994 4.2002C62.4154 4.1842 62.4397 4.17578 62.4717 4.17578C62.4717 4.17578 62.5036 4.19175 62.5674 4.22363ZM63.9355 16.9443C63.9036 16.9444 63.8718 16.9602 63.8398 16.9922C63.824 16.9922 63.8156 16.9999 63.8154 17.0156C63.8474 17.1276 63.9118 17.2564 64.0078 17.4004L64.1279 17.2803C64.1759 17.2483 64.2319 17.2081 64.2959 17.1602C64.2959 17.1283 64.2798 17.0963 64.248 17.0645H64.1279C64.1279 17.0645 64.0953 17.0476 64.0312 17.0156C63.9835 16.9679 63.9515 16.9443 63.9355 16.9443ZM14 16H4L6 12H16L14 16ZM24.5039 0.551758C24.5039 0.599758 24.5123 0.639874 24.5283 0.671875L24.9121 0.480469C24.9602 0.480579 25.0806 0.552399 25.2725 0.696289C25.3042 0.744516 25.3044 0.856729 25.2725 1.03223L25.3438 1.00781L25.3682 0.912109C25.4001 0.89611 25.4319 0.871815 25.4639 0.839844C25.4958 0.807865 25.536 0.77612 25.584 0.744141C25.584 0.712141 25.6083 0.66361 25.6562 0.599609C25.6723 0.615609 25.6881 0.632438 25.7041 0.648438C25.7359 0.664399 25.768 0.687929 25.7998 0.719727C25.8638 0.783727 25.9123 0.816406 25.9443 0.816406C25.9763 0.784428 26.024 0.76014 26.0879 0.744141H26.1357C26.2797 0.744141 26.4402 0.800109 26.6162 0.912109L26.9277 1.15234L26.9521 1.27246C26.9202 1.27246 26.88 1.29584 26.832 1.34375C26.88 1.42371 26.9519 1.46383 27.0479 1.46387V1.55957C27.0798 1.57556 27.1359 1.56807 27.2158 1.53613C27.2478 1.63209 27.3281 1.67969 27.4561 1.67969C27.488 1.67973 27.5282 1.71989 27.5762 1.7998C27.5602 1.84776 27.5602 1.90384 27.5762 1.96777C27.7514 2.28643 27.8391 2.43078 27.8398 2.40039V2.42383C27.8398 2.47183 27.8081 2.56048 27.7441 2.68848C27.6642 2.88025 27.624 2.98401 27.624 3C27.624 3.064 27.7201 3.11155 27.9121 3.14355C28.0881 3.17555 28.1683 3.20824 28.1523 3.24023L28.2725 3.4082C28.2565 3.42419 28.2481 3.45596 28.248 3.50391C28.248 3.55186 28.264 3.62386 28.2959 3.71973C28.3599 3.86373 28.3916 3.96823 28.3916 4.03223C28.3597 4.06416 28.3203 4.10453 28.2725 4.15234C28.2245 4.18434 28.1675 4.22446 28.1035 4.27246C28.0714 4.28837 28.0151 4.30441 27.9355 4.32031C27.8716 4.33625 27.7759 4.35222 27.6484 4.36816L27.1201 4.44043C27.0881 4.45642 27.048 4.47229 27 4.48828C26.9521 4.50423 26.9043 4.52018 26.8564 4.53613L26.5684 4.44043C26.4724 4.47243 26.3996 4.5601 26.3516 4.7041C26.2876 4.86381 26.2241 4.94421 26.1602 4.94434C26.1442 4.94434 26.1199 4.90412 26.0879 4.82422C26.0401 4.74453 26.0082 4.70441 25.9922 4.7041C25.9762 4.7041 25.9445 4.72841 25.8965 4.77637L25.752 4.7998L25.7041 4.63184C25.7041 4.5679 25.7284 4.51183 25.7764 4.46387C25.8083 4.40001 25.8242 4.35973 25.8242 4.34375L25.7041 4.2002C25.7681 4.1522 25.8241 4.05607 25.8721 3.91211C25.7761 3.91211 25.6557 3.88784 25.5117 3.83984C25.5117 3.80787 25.5043 3.76765 25.4883 3.71973C25.4723 3.65588 25.4479 3.59217 25.416 3.52832L25.3203 3.26367C25.2403 3.1517 25.0798 3.06399 24.8398 3L24.624 3.02441C24.592 3.02441 24.5519 3.03185 24.5039 3.04785C24.472 3.04787 24.4242 3.05633 24.3604 3.07227C24.3124 3.07227 24.2479 3.00023 24.168 2.85645C24.136 2.85647 24.1201 2.88817 24.1201 2.95215L24.2402 3.19238C24.0643 3.33636 23.9196 3.39979 23.8076 3.38379V3.74414C23.7758 3.77597 23.7523 3.80802 23.7363 3.83984V3.95996C23.7523 4.00794 23.7682 4.06397 23.7842 4.12793C23.8162 4.27193 23.8236 4.36802 23.8076 4.41602C23.8076 4.43196 23.8001 4.44792 23.7842 4.46387C23.7522 4.49586 23.7363 4.53599 23.7363 4.58398C23.7363 4.61595 23.7597 4.65616 23.8076 4.7041C23.8396 4.7681 23.8564 4.7998 23.8564 4.7998C23.8564 4.8158 23.8004 4.88028 23.6885 4.99219C23.5773 5.10332 23.5204 5.16698 23.5195 5.18359C23.5355 5.48754 23.656 5.6396 23.8799 5.63965H24.0957C24.1437 5.62365 24.1922 5.61621 24.2402 5.61621C24.304 5.61623 24.3679 5.62374 24.4316 5.63965C24.4956 5.63965 24.56 5.64806 24.624 5.66406V5.9043C24.6242 6.0002 24.7281 6.13591 24.9355 6.31152C24.9675 6.31152 25.0078 6.32001 25.0557 6.33594C25.1197 6.33594 25.184 6.34435 25.248 6.36035L25.3203 6.50391C25.3523 6.52001 25.4085 6.56861 25.4883 6.64844L25.584 6.83984C25.6159 6.88769 25.6478 6.91195 25.6797 6.91211C25.8075 6.89614 25.8878 6.88023 25.9199 6.86426C25.9676 7.27732 25.9995 7.48553 26.0156 7.48828L26.2803 7.17578H26.3516L26.4482 7.44043C26.4625 7.45466 26.4703 7.46247 26.4717 7.46387H26.4961L26.6396 7.41602C26.7036 7.43202 26.7279 7.51225 26.7119 7.65625L26.9521 7.77637C26.9684 7.77678 27.0245 7.84025 27.1201 7.96777C27.2639 7.9678 27.3676 8.02401 27.4316 8.13574C27.4476 8.16774 27.4645 8.20786 27.4805 8.25586C27.4965 8.28786 27.5198 8.33644 27.5518 8.40039L27.7441 8.49609V8.61621C27.7442 8.6641 27.7517 8.72794 27.7676 8.80762C27.7676 8.88761 27.7844 8.94359 27.8164 8.97559C27.833 8.97461 27.8892 8.91864 27.9844 8.80762C28.0642 8.82375 28.1204 8.90407 28.1523 9.04785C28.1843 9.17578 28.2319 9.24017 28.2959 9.24023C28.3279 9.24023 28.3522 9.23182 28.3682 9.21582C28.3841 9.26377 28.3916 9.31988 28.3916 9.38379V9.55176C28.3916 9.59976 28.4243 9.64829 28.4883 9.69629C28.5521 9.72815 28.6083 9.7357 28.6562 9.71973L28.752 10.0322C28.7838 10.1121 28.7596 10.1682 28.6797 10.2002C28.7117 10.2322 28.7444 10.2396 28.7764 10.2236L28.752 10.3438L28.8721 10.5361L28.8965 10.7275C28.9444 10.7754 28.9762 10.8157 28.9922 10.8477C29.0562 10.9276 29.0963 11.1919 29.1123 11.6396C29.0963 11.6876 29.0879 11.7839 29.0879 11.9277L28.9922 12.0723C29.0241 12.1363 29.0485 12.2561 29.0645 12.4316L28.9678 12.5283C28.9676 12.6246 28.8799 12.8888 28.7041 13.3203L28.6084 13.248C28.5605 13.264 28.5362 13.3118 28.5361 13.3916C28.5361 13.5992 28.5277 13.7112 28.5117 13.7275L28.2725 13.8721C28.2884 13.984 28.2885 14.0643 28.2725 14.1123L27.8877 14.4238L27.792 14.5684C27.6801 14.6483 27.5679 14.7277 27.4561 14.8076C27.3601 14.8716 27.2556 14.9201 27.1436 14.9521C27.1274 14.9523 27.0954 14.9597 27.0479 14.9756C27.0159 14.9756 26.9681 14.9841 26.9043 15C26.8403 15.08 26.7283 15.1761 26.5684 15.2881L26.3281 15.2158L26.1836 15.2881C26.1514 15.3199 26.0558 15.3359 25.8965 15.3359H25.5117L25.3203 15.3838C25.2723 15.3998 25.2079 15.4156 25.1279 15.4316C25.0002 15.4316 24.8963 15.4082 24.8164 15.3604C24.7524 15.3124 24.6638 15.2881 24.5518 15.2881L24.5283 15.3115C24.5283 15.3115 24.5122 15.3115 24.4805 15.3115C24.4645 15.3275 24.4075 15.3117 24.3115 15.2637L24.1201 15.1924L24.0957 15.2158C24.0957 15.2295 24.0898 15.2353 24.0781 15.2373C24.0874 15.2293 24.022 15.1912 23.8799 15.1201C23.7999 15.1201 23.7037 15.0884 23.5918 15.0244L23.2559 14.7363C23.2239 14.7204 23.1761 14.7044 23.1123 14.6885C23.0644 14.6725 23.0082 14.6556 22.9443 14.6396C22.8643 14.5916 22.7598 14.5198 22.6318 14.4238C22.5199 14.3279 22.4003 14.1998 22.2725 14.04L22.248 13.8721L22.1279 13.7041L22.0801 13.3682C22.0641 13.3043 22.0322 13.2322 21.9844 13.1523C21.9524 13.0563 21.9197 12.9518 21.8877 12.8398C21.8398 12.8237 21.776 12.7599 21.6963 12.6484C21.6004 12.4248 21.5519 12.2725 21.5518 12.1924C21.5518 12.1764 21.5678 12.152 21.5996 12.1201C21.6315 12.0722 21.6559 12.048 21.6719 12.0479C21.6398 11.9999 21.5595 11.9364 21.4316 11.8564L21.4082 11.5918C21.5201 11.5119 21.592 11.4717 21.624 11.4717H21.792C21.84 11.4557 21.896 11.4398 21.96 11.4238C22.0239 11.4078 22.0959 11.392 22.1758 11.376C22.2558 11.344 22.3202 11.3682 22.3682 11.4482C22.3842 11.512 22.432 11.5439 22.5117 11.5439C22.5277 11.5439 22.5679 11.4879 22.6318 11.376L22.8477 11.0879C23.0877 11.1679 23.2323 11.1996 23.2803 11.1836L23.6641 10.9199H23.9043V11.1836L24.1201 11.2803L24.0723 11.6396C24.0723 11.6716 24.0958 11.7119 24.1436 11.7598C24.1916 11.8078 24.2158 11.8404 24.2158 11.8564C24.2316 11.8725 24.2241 11.912 24.1924 11.9756L24.1201 12.0957C24.1521 12.2236 24.2241 12.3357 24.3359 12.4316C24.3679 12.4316 24.4323 12.4485 24.5283 12.4805C24.5284 12.5443 24.5517 12.6006 24.5996 12.6484C24.6636 12.6964 24.728 12.7039 24.792 12.6719C24.792 12.6719 24.8079 12.7439 24.8398 12.8877C24.8717 12.9673 24.9037 13.0074 24.9355 13.0078C24.9355 13.0078 24.9682 12.992 25.0322 12.96C25.0642 12.9281 25.096 12.9121 25.1279 12.9121L25.248 12.9355C25.28 12.9356 25.3043 12.944 25.3203 12.96C25.3363 12.9759 25.3522 12.9844 25.3682 12.9844C25.3842 12.9842 25.4161 12.9599 25.4639 12.9121C25.5278 12.8801 25.568 12.8643 25.584 12.8643C25.6 12.8483 25.656 12.8557 25.752 12.8877L25.8965 12.9355C25.901 12.9333 25.9331 12.9172 25.9922 12.8877L26.0645 12.8643L26.208 12.9121C26.2399 12.8802 26.2557 12.8483 26.2559 12.8164C26.2559 12.6884 26.2801 12.5195 26.3281 12.3115L26.5439 12.2881C26.6238 12.2881 26.6724 12.2562 26.6885 12.1924C26.6725 12.1764 26.6481 12.152 26.6162 12.1201C26.5842 12.0881 26.5515 12.0564 26.5195 12.0244C26.5035 11.9604 26.4877 11.896 26.4717 11.832C26.4557 11.752 26.4398 11.6718 26.4238 11.5918C26.4239 11.5439 26.4482 11.4961 26.4961 11.4482C26.5441 11.4322 26.5842 11.408 26.6162 11.376C26.6162 11.376 26.5835 11.3844 26.5195 11.4004C26.4398 11.4001 26.376 11.3197 26.3281 11.1602L26.2324 10.8721C26.1845 10.8401 26.1443 10.7999 26.1123 10.752C26.0483 10.688 26.0156 10.6236 26.0156 10.5596C26.0157 10.5279 26.0242 10.5042 26.04 10.4883C26.0241 10.4563 25.9763 10.4564 25.8965 10.4883L25.7764 10.1523C25.7604 10.1523 25.752 10.1599 25.752 10.1758C25.72 10.2078 25.6957 10.2236 25.6797 10.2236C25.6636 10.2079 25.6316 10.2002 25.584 10.2002L25.5361 9.98438L25.3682 9.91211L25.0801 9.64844C25.0641 9.61652 25.0322 9.59217 24.9844 9.57617C24.9524 9.56017 24.9038 9.53591 24.8398 9.50391L24.8164 9.31152C24.8004 9.2797 24.776 9.2562 24.7441 9.24023C24.7121 9.20823 24.6804 9.17555 24.6484 9.14355H24.5283C24.5123 9.15954 24.4721 9.16795 24.4082 9.16797C24.3922 9.18397 24.3521 9.14385 24.2881 9.04785C24.2562 8.98412 24.2243 8.93628 24.1924 8.9043C24.1604 8.8563 24.1277 8.82362 24.0957 8.80762L23.7119 8.56836L23.5195 8.49609L23.4961 8.28027L23.0879 8.06445L22.9922 7.89648C22.9602 7.81648 22.8958 7.77637 22.7998 7.77637H22.7764C22.7284 7.72837 22.7041 7.67984 22.7041 7.63184C22.4801 7.26389 22.3597 7.08008 22.3438 7.08008L22.2002 7.12793H22.1758C22.0959 7.12783 22.0482 7.07186 22.0322 6.95996L21.96 6.67188C21.8 6.67184 21.6964 6.48797 21.6484 6.12012L21.4316 6.02441C21.4157 5.91249 21.3998 5.83219 21.3838 5.78418V5.73633C21.3998 5.59233 21.4156 5.53636 21.4316 5.56836C21.4157 5.48843 21.368 5.4324 21.2881 5.40039C21.2401 5.40039 21.2 5.37608 21.168 5.32812C21.152 5.15221 21.152 4.98415 21.168 4.82422C21.184 4.64822 21.1998 4.4719 21.2158 4.2959C21.2158 4.24791 21.1999 4.17598 21.168 4.08008L21.0957 3.91211L21.168 3.81641V3.71973C21.168 3.55992 21.1998 3.3841 21.2637 3.19238H21.3604C21.4083 3.17636 21.4485 3.14364 21.4805 3.0957L21.3359 2.78418L21.6484 2.18359C21.7763 1.95996 21.88 1.84769 21.96 1.84766L22.1035 1.87207C22.1195 1.87207 22.1363 1.86366 22.1523 1.84766C22.1521 1.83111 22.1353 1.76741 22.1035 1.65625H22.248L22.3916 1.46387C22.4236 1.43187 22.5122 1.40016 22.6562 1.36816L22.752 1.10352H22.8477C22.8637 1.11952 22.8805 1.13634 22.8965 1.15234C22.9123 1.16832 22.9285 1.19199 22.9443 1.22363C23.0562 1.17553 23.1525 1.06348 23.2324 0.887695L23.4482 0.719727H23.4717C23.5036 0.719727 23.5439 0.712229 23.5918 0.696289L23.7119 0.719727C23.7599 0.735726 23.8 0.744141 23.832 0.744141C23.88 0.744117 23.9603 0.688147 24.0723 0.576172C24.2002 0.480215 24.2721 0.431641 24.2881 0.431641L24.5039 0.551758ZM30.8418 1.36816C30.9058 1.38416 30.9543 1.40843 30.9863 1.44043C31.0179 1.47197 31.0417 1.48811 31.0576 1.48828L31.1299 1.46387H31.6582C31.77 1.46388 31.8579 1.4723 31.9219 1.48828H32.1143L32.2822 1.44043C32.3781 1.40847 32.4258 1.3916 32.4258 1.3916C32.5377 1.3916 32.5937 1.47194 32.5938 1.63184C32.5938 1.67984 32.5863 1.74422 32.5703 1.82422C32.5703 1.88818 32.5619 1.96856 32.5459 2.06445L32.4502 2.04004C32.3862 2.04004 32.3059 2.07182 32.21 2.13574C32.066 2.21574 32.01 2.32024 32.042 2.44824C32.0739 2.48012 32.0898 2.49609 32.0898 2.49609C32.1058 2.49609 32.1376 2.47178 32.1855 2.42383C32.2493 2.39197 32.2895 2.37612 32.3057 2.37598C32.3857 2.37598 32.4659 2.44036 32.5459 2.56836C32.6098 2.6802 32.6416 2.75221 32.6416 2.78418C32.6415 2.81615 32.6257 2.85639 32.5938 2.9043C32.5779 2.93601 32.5618 2.95963 32.5459 2.97559C32.5299 3.24738 32.514 3.43972 32.498 3.55176V3.62402C32.3862 3.64 32.3303 3.68783 32.3301 3.76758C32.3301 3.84748 32.3779 3.90353 32.4736 3.93555V4.08008C32.4737 4.17608 32.5138 4.34408 32.5938 4.58398C32.6097 4.61595 32.6659 4.66365 32.7617 4.72754H32.834V4.55957C32.8501 4.49595 32.8979 4.46396 32.9775 4.46387C33.2528 4.42258 33.3925 4.39933 33.3955 4.39355L33.5059 4.41602C33.5537 4.43196 33.6016 4.44038 33.6494 4.44043L33.8896 4.6084C33.8737 4.67219 33.8662 4.73601 33.8662 4.7998V4.99219C33.9936 5.11956 34.0572 5.17559 34.0576 5.16016C34.0575 5.20812 34.0258 5.2642 33.9619 5.32812C33.9779 5.34408 33.9938 5.36003 34.0098 5.37598C33.9778 5.39204 33.9535 5.45645 33.9375 5.56836L33.9619 5.63965C33.9779 5.67165 33.9863 5.70433 33.9863 5.73633C33.9863 5.86422 33.9779 5.99223 33.9619 6.12012C33.9619 6.23196 33.9535 6.33575 33.9375 6.43164C33.9135 6.50372 33.8809 6.54942 33.8389 6.56738L33.7939 6.57617C33.7939 6.56019 33.7219 6.5284 33.5781 6.48047C33.5142 6.46448 33.3861 6.45607 33.1943 6.45605C33.1143 6.45605 32.9539 6.48032 32.7139 6.52832L32.6182 6.59961C32.5542 6.63161 32.5215 6.64844 32.5215 6.64844L32.498 6.86426C32.482 7.0241 32.4578 7.10352 32.4258 7.10352C32.5217 7.32734 32.5702 7.53567 32.5703 7.72754C32.5543 7.72754 32.5141 7.82391 32.4502 8.01562C32.4661 7.98485 32.4736 8.07322 32.4736 8.28027L32.4258 8.40039C32.3945 8.4941 32.3786 8.54195 32.3779 8.54395L32.4502 8.83203C32.4821 8.91191 32.498 8.98393 32.498 9.04785V9.14355C32.498 9.14355 32.4661 9.18396 32.4023 9.26367C32.3864 9.26367 32.3779 9.30393 32.3779 9.38379C32.3779 9.47979 32.418 9.54417 32.498 9.57617V10.3682C32.4979 10.3842 32.4821 10.4085 32.4502 10.4404C32.4186 10.5037 32.4026 10.5433 32.4023 10.5596C32.3864 10.6715 32.3864 10.7677 32.4023 10.8477C32.4343 10.9757 32.4576 11.0316 32.4736 11.0156C32.4256 11.0636 32.3855 11.1122 32.3535 11.1602C32.3855 11.1922 32.4256 11.3041 32.4736 11.4961C32.2818 11.608 32.1855 11.7042 32.1855 11.7842C32.1855 11.7522 32.2499 11.8483 32.3779 12.0723C32.3788 12.0789 32.3946 12.2068 32.4258 12.4561L32.4736 12.5283V12.7441C32.4736 12.8081 32.4821 12.8884 32.498 12.9844C32.504 12.9883 32.6002 13.0519 32.7861 13.1758C32.7861 13.2398 32.8263 13.2958 32.9062 13.3438H32.9541C32.9861 13.3436 33.0423 13.3119 33.1221 13.248C33.186 13.1841 33.2421 13.1523 33.29 13.1523C33.2932 13.1539 33.3251 13.1699 33.3857 13.2002C33.4177 13.2322 33.442 13.248 33.458 13.248C33.49 13.248 33.5378 13.232 33.6016 13.2002C33.6336 13.1682 33.6662 13.1439 33.6982 13.1279C33.7302 13.096 33.7705 13.0642 33.8184 13.0322L33.9141 13.1035V14.1123C33.914 14.1282 33.9055 14.1443 33.8896 14.1602C33.8578 14.1921 33.8418 14.2165 33.8418 14.2324V14.4717C33.8099 14.5036 33.778 14.5279 33.7461 14.5439C33.7621 14.6558 33.7939 14.7436 33.8418 14.8076C33.8898 14.8556 33.9141 14.9284 33.9141 15.0244C33.9139 15.1841 33.8253 15.2637 33.6494 15.2637H33.5781C33.5622 15.2637 33.5462 15.256 33.5303 15.2402C33.5303 15.2402 33.5219 15.2402 33.5059 15.2402L33.2422 15.3115C33.1622 15.3275 33.0978 15.3359 33.0498 15.3359C33.0178 15.3519 32.9935 15.3604 32.9775 15.3604L32.5703 15.3359C32.4423 15.3199 32.3378 15.3115 32.2578 15.3115H32.1377C31.8981 15.3115 31.7542 15.304 31.7061 15.2881L31.2979 15.0723C31.2659 15.0563 31.2257 15.0404 31.1777 15.0244C31.1297 15.0084 31.0738 14.9916 31.0098 14.9756C30.914 14.9276 30.8663 14.8481 30.8662 14.7363C30.8342 14.7203 30.8015 14.7119 30.7695 14.7119C30.7376 14.696 30.7057 14.6885 30.6738 14.6885C30.6738 14.5447 30.6419 14.4485 30.5781 14.4004L30.4102 14.3281C30.3782 14.2962 30.338 14.2082 30.29 14.0645L30.1943 13.8242V13.752C30.1943 13.72 30.1859 13.6798 30.1699 13.6318C30.1699 13.568 30.1614 13.5043 30.1455 13.4404V13.1035C30.1615 13.0078 30.1784 12.9281 30.1943 12.8643C30.1303 12.8323 30.0818 12.7837 30.0498 12.7197C30.034 12.6877 30.0424 12.624 30.0742 12.5283L30.0977 12.3115C30.1136 12.2317 30.1221 12.1596 30.1221 12.0957C30.1221 12.0319 30.1296 11.9681 30.1455 11.9043C30.1455 11.8243 30.1698 11.7281 30.2178 11.6162C30.2815 11.5047 30.3132 11.4326 30.3135 11.4004C30.3135 11.3844 30.2976 11.3601 30.2656 11.3281C30.235 11.2975 30.2191 11.2816 30.2178 11.2803C30.2178 11.2484 30.2102 11.224 30.1943 11.208V11.1602C30.1943 11.0642 30.2177 10.968 30.2656 10.8721C30.2016 10.7601 30.1699 10.6238 30.1699 10.4639C30.1699 10.3359 30.2101 10.2155 30.29 10.1035C30.2421 10.0396 30.2019 9.976 30.1699 9.91211V9.28809C30.1699 9.28809 30.1539 9.25613 30.1221 9.19238C30.0901 9.16038 30.0742 9.1277 30.0742 9.0957C30.0746 9.04729 30.1624 8.87157 30.3379 8.56836C30.2099 8.48836 30.1455 8.43983 30.1455 8.42383L30.2656 7.99219C30.2656 7.96019 30.2582 7.91166 30.2422 7.84766V7.63184L30.2178 7.24805C30.2018 7.07226 30.2018 6.92835 30.2178 6.81641C30.2338 6.70441 30.2338 6.61576 30.2178 6.55176C30.1698 6.47191 30.1137 6.43164 30.0498 6.43164V6.31152L30.2656 6.21582C30.2656 6.18391 30.2582 6.15952 30.2422 6.14355H29.834V6.21582C29.834 6.27975 29.8658 6.33583 29.9297 6.38379C29.9936 6.43174 30.0253 6.47192 30.0254 6.50391L29.7383 6.48047C29.6745 6.46452 29.6182 6.4561 29.5703 6.45605H29.498L29.3535 6.50391C29.2608 6.53481 29.213 6.55076 29.21 6.55176C29.146 6.55176 29.0499 6.52005 28.9219 6.45605C28.9059 6.42405 28.9059 6.37552 28.9219 6.31152L28.9697 6.16797C28.9538 6.12013 28.9463 6.07225 28.9463 6.02441V5.9043C28.9783 5.8083 29.0343 5.75233 29.1143 5.73633C29.0503 5.67233 29.0101 5.60794 28.9941 5.54395V5.30371L28.9697 5.18359C29.0016 5.03987 29.0101 4.95193 28.9941 4.91992L28.9219 4.7998C28.8899 4.7359 28.874 4.69567 28.874 4.67969L28.9697 4.46387C28.9857 4.44787 29.01 4.44043 29.042 4.44043C29.074 4.44041 29.1142 4.432 29.1621 4.41602C29.2099 4.40003 29.2418 4.36808 29.2578 4.32031H29.3057L29.5459 4.3916L29.8574 4.48828C29.8734 4.50425 29.8903 4.52767 29.9062 4.55957C29.9222 4.59152 29.9381 4.63178 29.9541 4.67969C30.0179 4.63178 30.0817 4.56799 30.1455 4.48828C30.2095 4.40831 30.2739 4.31213 30.3379 4.2002C30.4338 4.13626 30.442 4.08766 30.3623 4.05566C30.3143 4.02368 30.2901 3.97605 30.29 3.91211L30.3135 3.14355C30.2336 2.85583 30.1943 2.65588 30.1943 2.54395L30.2656 2.35156L30.3135 2.16016C30.3135 2.11223 30.29 2.07201 30.2422 2.04004C30.1942 2.00804 30.1699 1.94366 30.1699 1.84766L30.2178 1.6084C30.2497 1.59244 30.2816 1.568 30.3135 1.53613C30.3455 1.50413 30.394 1.46402 30.458 1.41602C30.554 1.32005 30.61 1.27246 30.626 1.27246L30.8418 1.36816ZM44.3174 4.2959L44.3896 4.27246H44.4619C44.7017 4.27253 44.8773 4.32849 44.9893 4.44043L44.9658 4.55957H45.0137C45.0298 4.55927 45.0777 4.5199 45.1572 4.44043C45.2212 4.37643 45.2856 4.34375 45.3496 4.34375C45.4456 4.34377 45.5259 4.36803 45.5898 4.41602C45.6695 4.46381 45.7173 4.48818 45.7334 4.48828L45.9258 4.44043C45.9897 4.42446 46.0299 4.41602 46.0459 4.41602H46.1172C46.1652 4.41602 46.2137 4.42443 46.2617 4.44043L46.3574 4.48828C46.3735 4.52032 46.4297 4.584 46.5254 4.67969H46.5498C46.6458 4.67979 46.7981 4.72832 47.0059 4.82422C47.1176 4.90416 47.2056 5.02393 47.2695 5.18359L47.4854 5.61621C47.4854 5.74412 47.5097 5.91987 47.5576 6.14355C47.5896 6.17555 47.6297 6.22409 47.6777 6.28809C47.7257 6.33607 47.7818 6.40056 47.8457 6.48047C47.8456 6.49662 47.8371 6.52863 47.8213 6.57617C47.8213 6.60814 47.8138 6.64838 47.7979 6.69629C47.8457 6.74428 47.8861 6.82395 47.918 6.93555C47.9339 6.98348 47.9498 7.02369 47.9658 7.05566C47.9818 7.08766 47.9977 7.12034 48.0137 7.15234V7.27246L47.5811 7.44043C47.3413 7.50436 47.1329 7.55201 46.957 7.58398C46.7974 7.6159 46.6616 7.63181 46.5498 7.63184L46.4775 7.6084H46.4297C46.4297 7.5924 46.4213 7.58398 46.4053 7.58398C46.3733 7.5841 46.333 7.60836 46.2852 7.65625L46.1895 7.75195C46.0455 7.79994 45.9335 7.82422 45.8535 7.82422C45.7896 7.82422 45.7176 7.75214 45.6377 7.6084C45.5738 7.49653 45.5411 7.41618 45.541 7.36816C45.541 6.82431 45.5251 6.56777 45.4932 6.59961C45.3334 6.50382 45.2212 6.48036 45.1572 6.52832H45.1338L44.918 6.43164C44.854 6.39964 44.797 6.38379 44.749 6.38379C44.7174 6.36802 44.6937 6.36043 44.6777 6.36035L44.5576 6.38379C44.5096 6.39979 44.4695 6.4082 44.4375 6.4082H44.3418L44.2939 6.62402C44.2619 6.64002 44.1975 6.69601 44.1016 6.79199L44.0293 7.10352C44.1093 7.11952 44.1653 7.17646 44.1973 7.27246C44.2292 7.4162 44.2451 7.48828 44.2451 7.48828C44.2281 7.50428 44.1318 7.52779 43.957 7.55957C43.9252 7.55973 43.8932 7.57655 43.8613 7.6084C43.8777 7.65624 43.9899 7.69561 44.1973 7.72754C44.2452 7.77552 44.2779 7.85586 44.2939 7.96777L44.5576 8.01562C44.5576 8.07963 44.5893 8.15242 44.6533 8.23242C44.6693 8.23242 44.7094 8.24827 44.7734 8.28027C44.8054 8.34421 44.854 8.40774 44.918 8.47168C44.9978 8.47177 45.0699 8.49604 45.1338 8.54395C45.2136 8.6238 45.2538 8.69586 45.2539 8.75977H45.2051C45.1571 8.75991 45.0934 8.78422 45.0137 8.83203V8.92773C45.0457 8.95973 45.0858 8.99241 45.1338 9.02441C45.1977 9.04032 45.2698 9.04038 45.3496 9.02441L45.4219 9H45.4932L45.5898 9.07227C45.6857 9.08822 45.7577 9.0957 45.8057 9.0957H45.9014C46.0293 9.12769 46.117 9.17627 46.165 9.24023C46.213 9.36818 46.2933 9.49607 46.4053 9.62402L46.6455 9.69629C46.7254 9.74429 46.7815 9.81616 46.8135 9.91211C47.0534 10.1201 47.1738 10.2722 47.1738 10.3682V10.416L47.4619 10.7041V10.8242C47.4779 10.8721 47.4938 10.9283 47.5098 10.9922C47.5417 11.0081 47.5736 11.0241 47.6055 11.04C47.6375 11.056 47.6692 11.0803 47.7012 11.1123C47.7972 11.2243 47.8457 11.312 47.8457 11.376L47.7979 11.4961C47.7819 11.5281 47.765 11.5524 47.749 11.5684V11.6162C47.7492 11.6643 47.8061 11.7764 47.918 11.9521C47.918 11.9521 47.9011 11.9923 47.8691 12.0723L47.918 12.2881L47.9658 12.4561L47.8936 12.6963C47.9095 12.7284 47.9179 12.8081 47.918 12.9355C47.902 12.9515 47.8851 12.9684 47.8691 12.9844C47.8533 12.9846 47.8372 13.0005 47.8213 13.0322L47.6299 13.6318V13.7764C47.6298 13.8243 47.6214 13.8805 47.6055 13.9443C47.5733 14.0721 47.4454 14.1357 47.2217 14.1357L47.0537 14.5439L46.6934 14.7842C46.6453 14.8322 46.5332 14.92 46.3574 15.0479H46.165L45.7812 15.2158C45.2854 15.3118 45.0054 15.3604 44.9414 15.3604L44.7734 15.3115C44.6776 15.2636 44.613 15.2402 44.5811 15.2402L44.4131 15.2637H44.3418C44.3571 15.2636 44.3246 15.2561 44.2451 15.2402C44.165 15.2402 44.0127 15.2159 43.7891 15.168C43.7252 15.0562 43.6616 15.0001 43.5977 15L43.4775 15.0244H43.4297C43.4138 15.0402 43.3977 15.0477 43.3818 15.0479C43.3178 15.0479 43.245 15.0077 43.165 14.9277C43.1331 14.8958 43.0937 14.8554 43.0459 14.8076C42.9979 14.7437 42.9334 14.6802 42.8535 14.6162C42.5977 14.5522 42.4297 14.4401 42.3496 14.2803C42.3496 14.1843 42.3253 14.1283 42.2773 14.1123C42.2134 14.0963 42.1816 14.0477 42.1816 13.9678C42.1817 13.8718 42.2134 13.7279 42.2773 13.5361L41.918 13.3916L41.7979 12.9121C41.7659 12.8322 41.7172 12.7444 41.6533 12.6484C41.6054 12.5365 41.5418 12.416 41.4619 12.2881V12.1436C41.462 12.0478 41.4778 11.9841 41.5098 11.9521C41.5258 11.9362 41.5735 11.9277 41.6533 11.9277H41.7256C41.7415 11.9278 41.749 11.9362 41.749 11.9521H41.7734L41.8936 11.8799C41.9097 11.8639 41.9741 11.8564 42.0859 11.8564L42.1816 11.8799C42.1975 11.8799 42.2051 11.8883 42.2051 11.9043H42.2539L42.541 11.8076L42.6133 11.7363C42.6773 11.7043 42.7575 11.6801 42.8535 11.6641C42.9495 11.6481 43.0774 11.6322 43.2373 11.6162L43.3096 11.6396C43.2936 11.6396 43.2852 11.6959 43.2852 11.8076C43.2852 11.8876 43.3337 11.9277 43.4297 11.9277C43.4462 11.927 43.534 11.8309 43.6934 11.6396C43.7254 11.7356 43.7412 11.8961 43.7412 12.1201C43.7412 12.2321 43.7739 12.3124 43.8379 12.3604C43.8856 12.4401 43.9016 12.5199 43.8857 12.5996C43.8857 12.6316 43.9016 12.6484 43.9336 12.6484C43.8056 12.6484 43.7412 12.6801 43.7412 12.7441C43.7413 12.8559 43.7974 12.912 43.9092 12.9121C43.9412 12.9121 43.9971 12.8477 44.0771 12.7197C44.0931 12.7517 44.1417 12.8404 44.2217 12.9844C44.27 13.0325 44.4381 13.1287 44.7256 13.2725C44.8536 13.3204 45.0216 13.3437 45.2295 13.3438C45.2934 13.3438 45.3654 13.2801 45.4453 13.1523C45.5573 13.1523 45.6618 13.0721 45.7578 12.9121C45.742 12.928 45.7258 12.9354 45.71 12.9355C45.7098 12.9199 45.7014 12.9121 45.6855 12.9121V12.8643C45.6855 12.8163 45.694 12.7677 45.71 12.7197C45.7418 12.656 45.7653 12.5921 45.7812 12.5283C45.7492 12.4963 45.7091 12.4478 45.6611 12.3838C45.6292 12.3039 45.589 12.216 45.541 12.1201C45.621 12.0401 45.6051 11.9524 45.4932 11.8564L45.2539 11.6885L45.3018 11.4238C45.2538 11.3438 45.0615 11.2804 44.7256 11.2324L44.6299 11.04C44.55 10.9601 44.4377 10.8722 44.2939 10.7764C44.2459 10.7764 44.1731 10.7521 44.0771 10.7041L44.0293 10.6562C44.0133 10.6242 43.989 10.6 43.957 10.584C43.9408 10.5681 43.8931 10.5596 43.8135 10.5596C43.7655 10.5275 43.6935 10.4556 43.5977 10.3438L43.5732 10.1523C43.5252 10.1523 43.4373 10.1355 43.3096 10.1035C43.1816 10.0555 43.0855 9.99953 43.0215 9.93555L42.8535 9.64844C42.7095 9.52045 42.5733 9.38422 42.4453 9.24023C42.2375 9.0324 42.1255 8.86429 42.1094 8.73633L42.2539 8.56836H42.1338C42.0859 8.56836 42.0297 8.5121 41.9658 8.40039V8.23242C41.9338 8.12042 41.9011 8.05604 41.8691 8.04004C41.8532 8.0081 41.8457 7.98375 41.8457 7.96777L41.8691 7.87207V7.46387C41.8851 7.47985 41.9095 7.48827 41.9414 7.48828C42.0214 7.48828 42.0615 7.43975 42.0615 7.34375C42.0614 7.23192 41.9812 7.17578 41.8213 7.17578C41.9971 7.04794 42.0857 6.92829 42.0859 6.81641C42.0859 6.70443 42.0056 6.59989 41.8457 6.50391C41.8297 6.42393 41.854 6.35207 41.918 6.28809L42.1094 6.19238C42.1254 6.16038 42.1412 6.1277 42.1572 6.0957C42.1892 6.04772 42.2294 5.9917 42.2773 5.92773C42.2614 5.89578 42.2454 5.85548 42.2295 5.80762V5.68848C42.2295 5.59248 42.2453 5.51968 42.2773 5.47168C42.2933 5.45573 42.3177 5.44824 42.3496 5.44824C42.3816 5.44822 42.4218 5.43981 42.4697 5.42383L42.5654 5.23242C42.8054 5.23242 42.8857 5.14377 42.8057 4.96777H42.8291C42.8771 4.96777 42.9331 4.89587 42.9971 4.75195C43.0291 4.75195 43.1177 4.70438 43.2617 4.6084C43.3257 4.54442 43.4134 4.51174 43.5254 4.51172H43.5977C43.6136 4.51177 43.6211 4.52018 43.6211 4.53613H43.6699L43.7656 4.51172C43.7658 4.47977 43.79 4.43946 43.8379 4.3916C43.9657 4.29582 44.0621 4.24805 44.126 4.24805L44.3174 4.2959ZM62.2402 0.480469C62.2243 0.592174 62.2243 0.664338 62.2402 0.696289C62.2722 0.712282 62.2722 0.83184 62.2402 1.05566C62.2562 1.00797 62.2646 1.05638 62.2646 1.2002C62.1367 1.28017 62.0723 1.33617 62.0723 1.36816C62.0723 1.41607 62.105 1.44789 62.1689 1.46387C62.2009 1.57581 62.2327 1.68786 62.2646 1.7998C62.2966 1.8958 62.3209 2.0003 62.3369 2.1123C62.3367 2.1285 62.3209 2.16882 62.2891 2.23242C62.2411 2.28042 62.2168 2.31212 62.2168 2.32812C62.2008 2.37613 62.1924 2.45641 62.1924 2.56836L62.2402 2.78418C62.2882 2.81618 62.3209 2.87215 62.3369 2.95215C62.3368 2.98412 62.3125 3.0319 62.2646 3.0957C62.2168 3.14355 62.1689 3.16781 62.1211 3.16797L62.001 3.12012C61.905 3.08812 61.8564 3.07227 61.8564 3.07227L61.8086 3.0957C61.7926 3.11166 61.7767 3.12008 61.7607 3.12012L61.2803 3.16797C61.2633 3.16707 61.1669 3.10268 60.9922 2.97559C60.9602 3.02356 60.8808 3.08804 60.7529 3.16797H60.417C60.321 3.18397 60.2165 3.19982 60.1045 3.21582C60.0085 3.23182 59.8965 3.24768 59.7686 3.26367L59.4326 3.21582C59.4965 3.1838 59.4882 3.10354 59.4082 2.97559C59.3124 2.86388 59.2562 2.80762 59.2402 2.80762L59.1445 3.02441C59.1445 3.05624 59.137 3.08829 59.1211 3.12012C59.0251 3.18411 58.929 3.26436 58.833 3.36035L58.8564 3.69629C58.8563 3.72819 58.8405 3.76009 58.8086 3.79199L58.7607 3.8877C58.7767 3.93569 58.7842 4.01597 58.7842 4.12793L58.5205 4.36816C58.5205 4.36816 58.5524 4.38412 58.6162 4.41602L58.7363 4.36816L58.7842 4.46387C58.7828 4.4661 58.7595 4.50637 58.7129 4.58398C58.7289 4.63203 58.7363 4.75242 58.7363 4.94434L58.6885 5.04004C58.6885 5.10396 58.7203 5.19193 58.7842 5.30371C58.8322 5.41571 58.849 5.50436 58.833 5.56836L58.7842 5.78418C58.8482 5.84818 58.8809 5.92841 58.8809 6.02441C58.8808 6.07241 58.8649 6.14451 58.833 6.24023C58.865 6.31997 58.9287 6.36777 59.0244 6.38379C59.0881 6.39971 59.1284 6.41572 59.1445 6.43164C59.1765 6.44764 59.2008 6.46447 59.2168 6.48047C59.2329 6.54415 59.2731 6.57617 59.3369 6.57617C59.4168 6.57611 59.4888 6.55185 59.5527 6.50391L59.6484 6.4082C59.6644 6.4082 59.7046 6.42407 59.7686 6.45605C59.8166 6.45605 59.8725 6.43179 59.9365 6.38379C60.0165 6.3358 60.0651 6.31152 60.0811 6.31152C60.0973 6.31206 60.1368 6.34482 60.2002 6.4082C60.2638 6.47179 60.3041 6.50349 60.3203 6.50391L60.8965 6.45605C60.9605 6.45605 61.0006 6.43179 61.0166 6.38379C61.0326 6.33587 61.0728 6.29563 61.1367 6.26367L61.4727 6.24023C61.5046 6.27219 61.5289 6.30398 61.5449 6.33594C61.5449 6.35193 61.5048 6.46398 61.4248 6.67188V6.86426C61.4408 6.91216 61.4567 6.97597 61.4727 7.05566L61.3291 7.08008C61.2651 7.09608 61.2324 7.1362 61.2324 7.2002C61.2326 7.21626 61.2569 7.2481 61.3047 7.2959C61.3526 7.29586 61.4003 7.24802 61.4482 7.15234L61.4971 7.2002C61.4651 7.34414 61.4408 7.42443 61.4248 7.44043L61.4971 7.87207C61.4811 7.88807 61.4642 7.91234 61.4482 7.94434C61.4322 7.96057 61.4087 8.00093 61.377 8.06445V8.25586C61.4569 8.27203 61.5607 8.36822 61.6885 8.54395C61.6885 8.60795 61.6325 8.67233 61.5205 8.73633C61.4887 8.76812 61.4566 8.79165 61.4248 8.80762L61.3525 8.85645V8.83203L61.1602 8.78418L60.7529 8.80762L60.4883 8.85645V8.75977H60.417C60.353 8.75977 60.2886 8.77566 60.2246 8.80762C60.1609 8.87133 60.1131 8.90401 60.0811 8.9043L59.8164 8.85645L59.5283 8.92773H59.3369C59.289 8.92773 59.2488 8.93617 59.2168 8.95215C59.1208 8.96815 59.0247 9.02412 58.9287 9.12012C58.9766 9.16811 58.9766 9.25599 58.9287 9.38379L59.0488 9.52832C58.9848 9.62426 58.8961 9.69616 58.7842 9.74414C58.8002 9.76014 58.817 9.77599 58.833 9.79199C58.865 9.80793 58.9128 9.8239 58.9766 9.83984C59.0726 9.93584 59.1211 10.0161 59.1211 10.0801L59.1445 10.248L59.0723 10.3203C58.9128 10.2406 58.8569 10.2004 58.9043 10.2002C58.8405 10.2003 58.8086 10.2404 58.8086 10.3203C58.8566 10.3364 58.9285 10.4082 59.0244 10.5361C59.1044 10.6641 59.1445 10.7845 59.1445 10.8965L59.0967 11.1836C59.1127 11.2316 59.1211 11.3361 59.1211 11.4961C59.1211 11.5441 59.0884 11.5917 59.0244 11.6396L59.1924 11.7598C59.1924 11.7758 59.1447 11.8319 59.0488 11.9277C59.0808 11.9917 59.1125 12.0561 59.1445 12.1201C59.1924 12.168 59.2327 12.2317 59.2646 12.3115V12.3604C59.2645 12.4721 59.2085 12.5358 59.0967 12.5518C59.0647 12.5518 59.0404 12.5844 59.0244 12.6484C59.0086 12.7121 59.0169 12.7441 59.0488 12.7441L59.0723 12.7197C59.0882 12.7197 59.1286 12.7357 59.1924 12.7676L59.2168 13.3203C59.2167 13.3521 59.2083 13.3757 59.1924 13.3916L59.1689 13.4639C59.1849 13.4959 59.2008 13.536 59.2168 13.584C59.2487 13.6159 59.2731 13.6638 59.2891 13.7275C59.321 13.7755 59.2967 13.84 59.2168 13.9199L59.2646 13.9922C59.2806 14.0241 59.289 14.056 59.2891 14.0879L59.2646 14.3281L59.2168 14.5195C59.2168 14.5195 59.2569 14.5765 59.3369 14.6885C59.4006 14.7682 59.4326 14.832 59.4326 14.8799C59.4326 14.9438 59.3848 15.0158 59.2891 15.0957C59.2091 15.1597 59.1447 15.1924 59.0967 15.1924L59.001 15.1436C58.969 15.1276 58.9447 15.1117 58.9287 15.0957H58.8809C58.8489 15.0957 58.8087 15.12 58.7607 15.168C58.7131 15.2156 58.6812 15.2398 58.665 15.2402H58.5205C58.3766 15.2402 58.2804 15.216 58.2324 15.168C58.2164 15.104 58.2164 15.0396 58.2324 14.9756C58.2004 14.9437 58.1442 14.9202 58.0645 14.9043L58.0166 14.9277C58.0166 14.9917 58.025 15.0403 58.041 15.0723C58.0408 15.1362 57.9765 15.2082 57.8486 15.2881C57.8486 15.2881 57.8167 15.2721 57.7529 15.2402C57.6892 15.1924 57.6489 15.1682 57.6328 15.168L57.3203 15.3359H57.0322C56.9682 15.3358 56.8719 15.2957 56.7441 15.2158L56.8408 14.9277C56.8407 14.9118 56.8323 14.8958 56.8164 14.8799C56.8164 14.8639 56.8089 14.8395 56.793 14.8076C56.745 14.7596 56.7207 14.7279 56.7207 14.7119L56.7686 14.1357C56.7686 14.0399 56.8004 13.936 56.8643 13.8242C56.9283 13.7122 56.9609 13.632 56.9609 13.584C56.9609 13.536 56.9124 13.5117 56.8164 13.5117H56.7686L56.6963 12.8164L56.5762 12.4561C56.6082 12.4241 56.6409 12.3923 56.6729 12.3604C56.7209 12.3284 56.7684 12.2957 56.8164 12.2637V12.168C56.7205 12.104 56.6486 12.0638 56.6006 12.0479L56.6963 11.9521L56.5762 11.8076C56.6081 11.696 56.6165 11.6323 56.6006 11.6162L56.5283 11.4961C56.5283 11.4321 56.5685 11.336 56.6484 11.208H56.7441C57.0001 11.208 57.1363 11.152 57.1523 11.04C57.1368 11.0395 57.1527 10.9915 57.2002 10.8965L57.249 10.752C57.1691 10.7839 57.0728 10.8241 56.9609 10.8721C56.8489 10.9041 56.7286 10.9442 56.6006 10.9922C56.5846 10.9762 56.5762 10.9519 56.5762 10.9199V10.7275C56.5921 10.6477 56.5921 10.5681 56.5762 10.4883C56.5757 10.4876 56.5599 10.4633 56.5283 10.416C56.5283 10.416 56.5443 10.384 56.5762 10.3203C56.6242 10.2723 56.6326 10.2396 56.6006 10.2236C56.6002 10.2075 56.576 10.1756 56.5283 10.1279C56.4807 10.0803 56.4573 10.0483 56.457 10.0322V9.93555C56.4571 9.82377 56.4804 9.71985 56.5283 9.62402C56.6083 9.59203 56.6484 9.53603 56.6484 9.45605C56.6484 9.32822 56.6006 9.27977 56.5049 9.31152V9.14355C56.5048 9.07969 56.4964 8.99996 56.4805 8.9043C56.5285 8.8883 56.5602 8.85562 56.5762 8.80762C56.6081 8.75965 56.5923 8.73633 56.5283 8.73633H56.457L56.3604 8.49609L56.3848 8.35156C56.4007 8.30371 56.4082 8.25586 56.4082 8.20801C56.4402 8.19201 56.4729 8.16774 56.5049 8.13574C56.5527 8.10384 56.6006 8.07194 56.6484 8.04004V7.94434H56.6963C56.7122 7.92838 56.7367 7.91244 56.7686 7.89648L56.6963 7.87207C56.6485 7.87211 56.6165 7.88052 56.6006 7.89648C56.5525 7.91242 56.4563 7.91246 56.3125 7.89648C56.3285 7.84848 56.4087 7.73557 56.5527 7.55957L56.4805 7.44043C56.4965 7.42443 56.5049 7.3759 56.5049 7.2959L56.3848 6.62402V6.36035C56.3528 6.31235 56.2884 6.24797 56.1924 6.16797V6.0957L56.3125 6.04785L56.3604 6.21582C56.3764 6.23182 56.4006 6.24023 56.4326 6.24023C56.4966 6.24023 56.5769 6.17585 56.6729 6.04785L56.3369 5.85645L56.3125 5.63965L56.5762 5.54395C56.5597 5.54306 56.5118 5.49535 56.4326 5.40039L56.3369 5.32812C56.2729 5.31213 56.2402 5.28786 56.2402 5.25586C56.2403 5.12798 56.3048 5.02429 56.4326 4.94434L56.3848 4.72754C56.3686 4.63186 56.2965 4.56811 56.1689 4.53613L56.2402 3.83984V3.79199C56.2562 3.77599 56.2731 3.75173 56.2891 3.71973L56.3125 3.62402L56.2168 3.48047C56.1848 3.43251 56.2167 3.39234 56.3125 3.36035C56.2645 3.32835 56.2085 3.26397 56.1445 3.16797L56.1924 3.07227C56.2084 3.05627 56.2168 3.032 56.2168 3L56.1445 2.80762V2.23242C56.1445 2.23242 56.1604 2.19974 56.1924 2.13574L56.2168 2.04004C56.2168 2.00807 56.185 1.93601 56.1211 1.82422C56.0411 1.71222 56.001 1.64784 56.001 1.63184L56.0488 0.912109C56.0968 0.89611 56.1529 0.871811 56.2168 0.839844C56.2807 0.807885 56.3527 0.7761 56.4326 0.744141C56.4646 0.776186 56.4889 0.856465 56.5049 0.984375L56.7207 1.03223C56.7206 1.09613 56.6888 1.1682 56.625 1.24805C56.7688 1.31195 56.8408 1.34375 56.8408 1.34375H56.9131L56.9365 1.27246L56.8164 1.22363L56.8643 1.10352C56.8801 1.07148 56.8643 1.01535 56.8164 0.935547C56.8643 0.903613 56.9205 0.864269 56.9844 0.816406C57.0484 0.768406 57.1128 0.719874 57.1768 0.671875C57.2086 0.671919 57.2406 0.687917 57.2725 0.719727L57.3926 0.839844C57.5206 0.887844 57.6251 0.912109 57.7051 0.912109C57.753 0.911909 57.8092 0.880205 57.873 0.816406C57.9529 0.768482 58.0006 0.744164 58.0166 0.744141C58.1126 0.808122 58.2087 0.848261 58.3047 0.864258H58.5449C58.577 0.864014 58.6331 0.823896 58.7129 0.744141L58.833 0.624023C58.849 0.639833 58.8726 0.648383 58.9043 0.648438C58.9362 0.648438 58.9765 0.655925 59.0244 0.671875C58.9925 0.703889 59.0167 0.768301 59.0967 0.864258L59.2891 0.791992C59.321 0.792209 59.3605 0.816531 59.4082 0.864258L59.5762 0.984375C59.6402 0.920376 59.6644 0.831727 59.6484 0.719727H59.7441L60.0811 0.887695C60.0972 0.871217 60.1291 0.815003 60.1768 0.719727L60.3926 0.791992C60.4246 0.791992 60.4731 0.744385 60.5371 0.648438H60.6328C60.6333 0.664437 60.6575 0.688021 60.7051 0.719727C60.737 0.751687 60.7445 0.791936 60.7285 0.839844L60.7764 0.864258C60.8084 0.864258 60.8242 0.855844 60.8242 0.839844C60.8722 0.791843 60.8648 0.711609 60.8008 0.599609C60.8804 0.55187 60.9443 0.528466 60.9922 0.52832C61.0242 0.52832 61.0727 0.560023 61.1367 0.624023C61.2167 0.703984 61.2811 0.744141 61.3291 0.744141C61.3771 0.696234 61.4331 0.66442 61.4971 0.648438L62.1689 0.480469H62.2402ZM76.1924 4.17578C76.2244 4.17578 76.2486 4.1842 76.2646 4.2002C76.2806 4.21608 76.2966 4.22357 76.3125 4.22363L76.5049 4.2002L76.7207 4.3916C76.7235 4.39066 76.7714 4.37471 76.8643 4.34375L76.9844 4.2959C77.0484 4.3279 77.1212 4.3596 77.2012 4.3916C77.281 4.42355 77.3606 4.45634 77.4404 4.48828C77.5204 4.4563 77.6325 4.45634 77.7764 4.48828L77.7529 4.6084V4.63184C77.7529 4.72782 77.8407 4.77635 78.0166 4.77637H78.209C78.2144 4.78632 78.3182 4.97806 78.5205 5.35156L78.665 5.30371C78.7288 5.3038 78.7692 5.32806 78.7852 5.37598L79.0488 6.28809C79.0328 6.32009 79.0244 6.37606 79.0244 6.45605V6.67188L79.0967 6.83984C79.1287 6.93584 79.1445 6.98438 79.1445 6.98438L79.0967 7.05566C79.0807 7.07165 79.0723 7.09596 79.0723 7.12793V7.48828C79.0564 7.5044 79.0403 7.53633 79.0244 7.58398C79.0085 7.61592 78.9925 7.66381 78.9766 7.72754C78.8806 7.74354 78.833 7.77623 78.833 7.82422C78.8332 7.87227 78.905 7.96009 79.0488 8.08789C79.1768 8.21588 79.2402 8.29613 79.2402 8.32812C79.2401 8.35999 79.2007 8.37592 79.1211 8.37598L79.0488 8.71191C79.0328 8.72791 79.0086 8.77645 78.9766 8.85645C78.9767 8.95264 79.0252 9.16096 79.1211 9.48047C79.0572 9.51242 79.0086 9.5517 78.9766 9.59961C78.9766 9.59961 78.9766 9.664 78.9766 9.79199L79.001 10.0322V10.1279C79.001 10.1599 78.9926 10.2085 78.9766 10.2725L78.9531 10.5117H78.833C78.7051 10.5117 78.6005 10.4482 78.5205 10.3203C78.4565 10.2083 78.4005 10.1523 78.3525 10.1523C78.3364 10.1527 78.2886 10.2003 78.209 10.2959C78.113 10.3919 78.0486 10.4404 78.0166 10.4404L77.7529 10.416C77.6729 10.4 77.6085 10.4 77.5605 10.416H77.4648L76.9609 10.2002C76.8491 10.2961 76.721 10.3436 76.5771 10.3438C76.4012 10.3438 76.2491 10.2877 76.1211 10.1758C76.0891 10.2078 76.0723 10.232 76.0723 10.248H75.6885C75.6885 10.2322 75.6808 10.2237 75.665 10.2236H75.5684C75.4245 10.2238 75.3049 10.3124 75.209 10.4883V10.584C75.193 10.6159 75.1686 10.6637 75.1367 10.7275C75.1207 10.7755 75.0965 10.8325 75.0645 10.8965C75.0648 10.9124 75.0808 10.9362 75.1123 10.9678L75.1611 11.0645V11.208C75.1611 11.2399 75.1526 11.2878 75.1367 11.3516C75.1527 11.3995 75.1611 11.4799 75.1611 11.5918C75.1611 11.6557 75.1208 11.7118 75.041 11.7598L74.9932 12.5518C75.089 12.6318 75.1283 12.7681 75.1123 12.96H75.4004C75.4962 12.96 75.5682 12.992 75.6162 13.0557C75.6642 13.1197 75.6969 13.1523 75.7129 13.1523L75.8809 13.0801L76.0488 13.2002C76.0968 13.2001 76.1285 13.1759 76.1445 13.1279L76.2891 12.792V12.4316L76.3125 12.0723C76.3285 12.0243 76.3369 11.9841 76.3369 11.9521C76.3528 11.9046 76.3602 11.8726 76.3604 11.8564L76.3369 11.7842C76.3689 11.7202 76.3848 11.6716 76.3848 11.6396V11.5439L76.3369 11.3281C76.4009 11.1681 76.4811 11.0879 76.5771 11.0879C76.7051 11.1518 76.8808 11.2079 77.1045 11.2559L77.2246 11.208C77.2726 11.192 77.3127 11.1836 77.3447 11.1836C77.3767 11.1836 77.4327 11.248 77.5127 11.376C77.6821 11.3144 77.77 11.2826 77.7764 11.2803L77.9688 11.4004H78.0166C78.2085 11.4004 78.3924 11.32 78.5684 11.1602L78.9766 11.5439C78.8966 11.6879 78.8088 11.8719 78.7129 12.0957C78.6969 12.1757 78.6726 12.2719 78.6406 12.3838C78.6246 12.4958 78.5929 12.6161 78.5449 12.7441C78.4331 12.792 78.3772 12.8558 78.377 12.9355C78.377 12.9675 78.4005 13.0238 78.4482 13.1035C78.4962 13.1994 78.5205 13.2639 78.5205 13.2959L78.4727 13.3682C78.5046 13.4481 78.4962 13.52 78.4482 13.584L78.377 13.7041C78.3928 13.7201 78.4004 13.7521 78.4004 13.7998C78.4004 13.9438 78.2968 14.0642 78.0889 14.1602L78.041 14.208C78.0569 14.224 78.0645 14.2484 78.0645 14.2803C78.0643 14.392 78.0007 14.4641 77.873 14.4961C77.697 14.5441 77.5925 14.5842 77.5605 14.6162C77.5286 14.6641 77.4809 14.7203 77.417 14.7842L77.2012 15C76.8812 15.208 76.6563 15.2957 76.5283 15.2637L76.2402 15.1924C76.1605 15.1925 76.0807 15.2159 76.001 15.2637C75.921 15.3117 75.8566 15.3275 75.8086 15.3115L75.7129 15.2881H75.4482C75.4166 15.3039 75.3929 15.3114 75.377 15.3115C75.361 15.3115 75.3283 15.2957 75.2803 15.2637L75.1611 15.2158C75.1292 15.2318 75.0889 15.2402 75.041 15.2402C75.0091 15.2402 74.9688 15.2477 74.9209 15.2637L74.585 15.0723C74.537 14.9603 74.4726 14.9043 74.3926 14.9043C74.3766 14.8883 74.3607 14.8883 74.3447 14.9043C74.3287 14.9202 74.2967 14.9277 74.249 14.9277C74.249 14.9277 74.1686 14.8642 74.0088 14.7363L73.8164 14.6641L73.6484 14.4961C73.6005 14.4322 73.5369 14.3601 73.457 14.2803L73.2646 14.1357V14.0879C73.2646 14.0239 73.2245 13.9277 73.1445 13.7998L72.9531 13.6084C72.9213 13.5447 72.8969 13.5044 72.8809 13.4883V13.2002C72.9607 13.2481 73.0084 13.2397 73.0244 13.1758C73.0564 13.1278 73.0246 13.0802 72.9287 13.0322C72.8648 12.9843 72.8331 12.9441 72.833 12.9121V12.4805C72.833 12.4325 72.8246 12.3839 72.8086 12.3359C72.7926 12.256 72.7767 12.1841 72.7607 12.1201C72.7607 12.0402 72.7692 11.9683 72.7852 11.9043L72.833 11.6641C72.817 11.5681 72.8086 11.472 72.8086 11.376V11.04C72.8086 10.976 72.8329 10.8958 72.8809 10.7998L72.9531 10.6084C72.9371 10.4804 72.9203 10.3441 72.9043 10.2002C72.8883 10.0402 72.8724 9.87973 72.8564 9.71973C72.8567 9.67143 72.9211 9.51919 73.0488 9.26367C73.0807 9.24772 73.1126 9.23177 73.1445 9.21582C73.1765 9.19982 73.2082 9.17555 73.2402 9.14355C73.2388 9.12694 73.167 9.07065 73.0244 8.97559L72.9531 8.47168C72.9532 8.39187 72.9849 8.3441 73.0488 8.32812C73.0968 8.29614 73.1126 8.24006 73.0967 8.16016L73.4082 7.94434C73.3922 7.88034 73.3362 7.84022 73.2402 7.82422C73.2236 7.82451 73.1674 7.84037 73.0723 7.87207C73.0246 7.84025 73.0012 7.80819 73.001 7.77637C73.001 7.68042 73.0486 7.60011 73.1445 7.53613C73.2405 7.45613 73.2891 7.4076 73.2891 7.3916L73.1689 6.98438C73.1689 6.98438 73.2325 6.87212 73.3604 6.64844C73.4724 6.63244 73.5283 6.59976 73.5283 6.55176C73.5282 6.5198 73.5049 6.47952 73.457 6.43164C73.393 6.38364 73.3604 6.34352 73.3604 6.31152C73.3607 6.29559 73.3768 6.27174 73.4082 6.24023C73.4562 6.14423 73.5047 5.96791 73.5527 5.71191L73.6963 5.56836L73.7686 5.32812C73.8646 5.29612 73.9765 5.24759 74.1045 5.18359L74.417 4.7998C74.5767 4.5923 74.7124 4.49608 74.8242 4.51172L74.8965 4.53613C74.8965 4.52013 74.9609 4.49587 75.0889 4.46387C75.4718 4.33623 75.6876 4.28029 75.7363 4.2959L75.8564 4.32031C75.9522 4.25648 76.0243 4.20026 76.0723 4.15234L76.1924 4.17578ZM50.1553 0.551758C50.2191 0.567709 50.2829 0.583659 50.3467 0.599609L50.3945 0.576172H50.4434C50.4473 0.578118 50.4792 0.594106 50.5391 0.624023C50.587 0.671974 50.6272 0.696289 50.6592 0.696289L50.8027 0.671875C50.8507 0.655889 50.8909 0.648452 50.9229 0.648438L51.0674 0.671875L51.1387 0.887695L51.2354 0.912109C51.2833 0.864092 51.331 0.783756 51.3789 0.671875L51.835 0.696289C51.9466 0.776106 51.9867 0.85573 51.9551 0.935547L51.835 1.24805L51.8828 1.34375L51.9307 1.46387C51.9147 1.51184 51.8745 1.59965 51.8105 1.72754L51.9551 2.06445V2.18359C51.9391 2.18359 51.8905 2.20786 51.8105 2.25586L51.8828 2.40039L51.8594 2.83203L51.7148 2.87988C51.5869 2.95987 51.5225 3.05599 51.5225 3.16797C51.5225 3.24797 51.5794 3.28809 51.6914 3.28809C51.7232 3.28801 51.7468 3.27959 51.7627 3.26367C51.7467 3.32767 51.7308 3.40047 51.7148 3.48047V3.76758L51.7393 4.24805V4.36816C51.7392 4.40012 51.7308 4.44795 51.7148 4.51172C51.6988 4.54372 51.6746 4.58384 51.6426 4.63184C51.6266 4.66384 51.6107 4.71238 51.5947 4.77637V4.87207C51.5947 5.04803 51.6433 5.1516 51.7393 5.18359L51.8828 5.13574C51.8828 5.13574 51.9313 5.15159 52.0273 5.18359V5.06445L52.3389 4.89648L52.4346 4.75195C52.5145 4.672 52.5948 4.63188 52.6748 4.63184H52.8906C53.0506 4.58384 53.1066 4.55213 53.0586 4.53613H53.4189C53.435 4.53614 53.4751 4.55199 53.5391 4.58398C53.603 4.58389 53.6834 4.51207 53.7793 4.36816C53.8593 4.48003 53.9555 4.56789 54.0674 4.63184C54.0995 4.61598 54.1557 4.6084 54.2354 4.6084L54.3545 4.72754C54.4185 4.77554 54.4829 4.82407 54.5469 4.87207C54.5629 4.85607 54.603 4.84766 54.667 4.84766C54.715 4.84772 54.8027 4.93637 54.9307 5.1123C55.0266 5.28829 55.1153 5.51224 55.1953 5.78418C55.1953 5.8961 55.1626 5.99231 55.0986 6.07227C55.0348 6.13619 55.0029 6.2082 55.0029 6.28809C55.003 6.32005 55.0348 6.36028 55.0986 6.4082C55.1786 6.4722 55.2029 6.54402 55.1709 6.62402C55.1709 6.65603 55.1466 6.71201 55.0986 6.79199C55.0348 6.77604 54.9786 6.76758 54.9307 6.76758C54.8988 6.75171 54.8668 6.74414 54.835 6.74414C54.771 6.74414 54.7393 6.76 54.7393 6.79199C54.7393 6.83999 54.7794 6.89596 54.8594 6.95996C54.9551 7.02373 55.0347 7.05556 55.0986 7.05566C55.0826 7.2475 55.0752 7.39975 55.0752 7.51172V7.7041L55.123 7.94434C55.1221 7.94709 55.1136 7.97072 55.0986 8.01562C55.0827 8.0635 55.0752 8.10379 55.0752 8.13574L55.123 8.23242C55.1389 8.28042 55.139 8.36017 55.123 8.47168C55.123 8.59968 55.0988 8.70418 55.0508 8.78418L54.835 8.54395C54.755 8.57593 54.7149 8.63196 54.7148 8.71191C54.7148 8.75991 54.7391 8.80003 54.7871 8.83203L54.9307 8.87988C55.0585 8.95976 55.1228 9.04773 55.123 9.14355L54.9072 9.67188C54.9232 9.73588 54.9391 9.81611 54.9551 9.91211C54.9711 10.0081 54.9785 10.1201 54.9785 10.248V10.3682C54.9466 10.432 54.9148 10.4723 54.8828 10.4883C54.8815 10.4896 54.8737 10.4974 54.8594 10.5117L54.9307 10.7998C54.9627 10.8798 54.9785 10.9442 54.9785 10.9922V11.0645L54.8828 11.1602C54.8828 11.1921 54.8753 11.24 54.8594 11.3037C54.8594 11.3676 54.8509 11.4397 54.835 11.5195C54.819 11.5355 54.7713 11.5196 54.6914 11.4717C54.6434 11.5197 54.6107 11.5682 54.5947 11.6162V11.7598C54.8027 11.8238 54.8988 11.96 54.8828 12.168L54.7148 12.96C54.7308 13.056 54.7308 13.208 54.7148 13.416C54.7148 13.448 54.6906 13.504 54.6426 13.584C54.6746 13.7439 54.6988 13.8559 54.7148 13.9199C54.7468 13.9839 54.7627 13.9998 54.7627 13.9678L54.7148 14.3281L54.6191 14.4004C54.6349 14.4168 54.6426 14.473 54.6426 14.5684L54.6191 15.2158C54.5552 15.2797 54.4832 15.3039 54.4033 15.2881H54.1152L53.7305 15.1436C53.7143 15.144 53.6823 15.1683 53.6348 15.2158C53.5548 15.2638 53.5072 15.2797 53.4912 15.2637L53.3711 15.168H53.2266C53.1626 15.1679 53.0662 15.1595 52.9385 15.1436L52.6514 15.2158H52.3633C52.3153 15.2158 52.2509 15.2084 52.1709 15.1924L52.1953 14.8076C52.1957 14.7915 52.2191 14.7595 52.2666 14.7119C52.3145 14.664 52.3387 14.6162 52.3389 14.5684C52.3389 14.5364 52.323 14.472 52.291 14.376L52.4346 14.2803C52.4186 14.2163 52.3551 14.1677 52.2432 14.1357C52.2912 13.9919 52.3631 13.9199 52.459 13.9199L52.3389 13.7764V13.752C52.3389 13.6879 52.3631 13.576 52.4111 13.416L52.3867 13.1523C52.3867 13.1523 52.4026 13.1197 52.4346 13.0557C52.4665 12.9917 52.4834 12.9515 52.4834 12.9355C52.4834 12.9515 52.4507 12.848 52.3867 12.624L52.4111 12.3838C52.427 12.2883 52.4269 12.2245 52.4111 12.1924C52.4111 12.1448 52.4188 12.1282 52.4346 12.1436V11.9043C52.4506 11.8083 52.4674 11.7038 52.4834 11.5918C52.5312 11.544 52.5631 11.4961 52.5791 11.4482V11.2803C52.5951 11.2003 52.611 11.12 52.627 11.04L52.5791 10.6318L52.6025 10.1279C52.5389 10.0958 52.5312 10.0155 52.5791 9.8877L52.6748 9.62402C52.6748 9.59212 52.6909 9.56022 52.7227 9.52832C52.7067 9.49632 52.7151 9.42352 52.7471 9.31152L52.7949 9.14355V9.12012C52.7949 9.08817 52.7865 9.05636 52.7705 9.02441C52.7705 8.99241 52.7631 8.94388 52.7471 8.87988C52.6991 8.70392 52.6748 8.58352 52.6748 8.51953L52.6992 8.28027C52.7152 8.21641 52.7226 8.16024 52.7227 8.1123C52.7387 8.0643 52.7471 8.03162 52.7471 8.01562C52.7789 7.96702 52.779 7.75878 52.7471 7.3916L52.6748 7.05566C52.6587 6.78388 52.5626 6.6316 52.3867 6.59961C52.291 6.59969 52.2433 6.65594 52.2432 6.76758C52.2432 6.84754 52.203 6.88766 52.123 6.8877C52.0912 6.8559 52.0592 6.83998 52.0273 6.83984C51.9634 6.83984 51.9232 6.89596 51.9072 7.00781C51.8592 7.15181 51.7948 7.20778 51.7148 7.17578L51.5713 7.15234L51.5469 7.2002V7.27246C51.547 7.30431 51.5554 7.33632 51.5713 7.36816L51.4512 7.48828C51.467 7.53626 51.4586 7.61599 51.4268 7.72754L51.4512 8.37598V8.68848C51.4671 8.80028 51.4671 8.92011 51.4512 9.04785C51.4512 9.09585 51.4185 9.19194 51.3545 9.33594L51.2588 9.57617C51.2748 9.5922 51.2991 9.67244 51.3311 9.81641V9.8877C51.3311 9.9517 51.3226 10.0161 51.3066 10.0801V10.3438C51.3066 10.3598 51.2908 10.384 51.2588 10.416C51.2908 10.384 51.3066 10.3924 51.3066 10.4404C51.3064 10.4564 51.2905 10.48 51.2588 10.5117C51.2428 10.5277 51.2428 10.5921 51.2588 10.7041C51.2908 10.8641 51.2908 10.9845 51.2588 11.0645L51.1387 11.3037C51.1387 11.3357 51.163 11.3759 51.2109 11.4238L51.1631 11.9277L51.2832 12.1201C51.2672 12.1521 51.2514 12.1922 51.2354 12.2402C51.2194 12.2722 51.1951 12.3124 51.1631 12.3604L50.9473 12.3838L50.8994 12.4316C50.9314 12.4636 50.9949 12.4805 51.0908 12.4805C51.1228 12.5443 51.1546 12.6005 51.1865 12.6484L51.1152 13.2002C51.0673 13.3758 51.0271 13.4635 50.9951 13.4639L51.1152 14.1123C51.0512 14.1283 51.0027 14.1283 50.9707 14.1123L50.9473 14.208C50.9475 14.2109 50.9634 14.3789 50.9951 14.7119C51.027 14.712 51.043 14.7363 51.043 14.7842C51.027 14.8002 51.0027 14.832 50.9707 14.8799C50.9547 14.9279 50.923 14.9923 50.875 15.0723H50.8027C50.7708 15.0722 50.739 15.0638 50.707 15.0479L50.6113 15.0244C50.6113 15.0244 50.5711 15.0403 50.4912 15.0723L50.1787 14.9756C50.1467 14.9757 50.1065 14.9925 50.0586 15.0244C49.9789 15.0562 49.9226 15.0563 49.8906 15.0244L49.5068 15L49.3867 15.0244C49.3707 15.0243 49.3463 15.0159 49.3145 15L49.2188 14.9521L49.0508 14.8799L48.9072 14.9756C48.8753 14.9916 48.8191 15 48.7393 15C48.6594 15 48.6033 14.9521 48.5713 14.8564C48.5873 14.7284 48.5947 14.6155 48.5947 14.5195C48.6107 14.4079 48.6191 14.3122 48.6191 14.2324L48.5713 14.1123V14.0645C48.5873 14.0485 48.6031 14.0316 48.6191 14.0156L48.667 13.9678L48.8105 13.584C48.8105 13.568 48.787 13.5361 48.7393 13.4883C48.7074 13.4724 48.683 13.4563 48.667 13.4404C48.651 13.4244 48.6351 13.4076 48.6191 13.3916C48.6032 13.3596 48.5947 13.3119 48.5947 13.248V13.0801C48.6107 13.0002 48.6266 12.9282 48.6426 12.8643L48.7148 12.7441C48.6828 12.6161 48.6586 12.5359 48.6426 12.5039L48.7627 12.3115L48.835 12.0723L48.7871 11.8799C48.7711 11.816 48.7552 11.7758 48.7393 11.7598C48.7234 11.7281 48.715 11.7045 48.7148 11.6885L48.7871 11.5195C48.7552 11.4235 48.7552 11.2637 48.7871 11.04L48.835 10.9922C48.851 10.9762 48.8668 10.9519 48.8828 10.9199L48.9072 10.6562L48.9551 10.6084C48.9711 10.5924 48.9869 10.5681 49.0029 10.5361C49.0029 10.4881 48.9469 10.4321 48.835 10.3682L48.9307 10.1035V10.0322C48.9307 9.98423 48.9232 9.91984 48.9072 9.83984L49.0029 9.71973V9.38379L49.0508 9.21582V9.07227C49.0508 9.00827 49.0433 8.94388 49.0273 8.87988C49.0273 8.79992 49.0189 8.71961 49.0029 8.63965C49.0027 8.62369 48.9867 8.6 48.9551 8.56836C48.9232 8.53648 48.9149 8.51209 48.9307 8.49609L49.0273 8.28027C49.0113 8.23228 49.0029 8.15202 49.0029 8.04004V7.65625L49.1465 7.63184C49.2104 7.5839 49.259 7.52027 49.291 7.44043C49.227 7.36043 49.1869 7.24752 49.1709 7.10352L49.0508 6.52832C49.0668 6.49632 49.0752 6.46364 49.0752 6.43164C49.0753 6.39967 49.0827 6.35177 49.0986 6.28809C49.3226 6.19209 49.4346 6.08759 49.4346 5.97559C49.4343 5.91183 49.3624 5.87241 49.2188 5.85645V5.35156C49.203 5.31996 49.1954 5.2962 49.1953 5.28027C49.1953 5.24827 49.1869 5.21559 49.1709 5.18359C49.1728 5.17559 49.2046 5.03983 49.2666 4.77637L49.2432 4.65625C49.2114 4.56081 49.1955 4.50465 49.1953 4.48828C49.1793 4.47228 49.1709 4.44801 49.1709 4.41602C49.1869 4.36803 49.1953 4.31203 49.1953 4.24805L49.2188 3.98438C49.2347 3.96841 49.2506 3.944 49.2666 3.91211C49.2986 3.88012 49.3313 3.8484 49.3633 3.81641V3.67188C49.3633 3.63995 49.3548 3.60809 49.3389 3.57617C49.3389 3.52819 49.3304 3.47217 49.3145 3.4082L49.2432 3.12012C49.2592 3.07215 49.275 3.0161 49.291 2.95215C49.307 2.88824 49.3229 2.8162 49.3389 2.73633C49.4029 2.68833 49.4346 2.6398 49.4346 2.5918L49.3389 2.40039V2.25586L49.4111 2.20801C49.5071 2.03204 49.5547 1.87152 49.5547 1.72754C49.5546 1.63172 49.5313 1.52777 49.4834 1.41602C49.4354 1.28802 49.4111 1.20778 49.4111 1.17578L49.4834 0.959961C49.4834 0.816298 49.4749 0.712467 49.459 0.648438L50.0107 0.503906C50.0587 0.519906 50.1073 0.535758 50.1553 0.551758ZM38.0332 4.15234C38.1132 4.15234 38.2821 4.17563 38.5381 4.22363C38.8258 4.27161 38.9856 4.32019 39.0176 4.36816L38.9932 4.53613L39.0654 4.63184L39.21 4.55957C39.2579 4.55979 39.3141 4.60832 39.3779 4.7041L39.5693 4.72754C39.6013 4.72754 39.634 4.73595 39.666 4.75195H39.7617C39.7777 4.7679 39.7936 4.78385 39.8096 4.7998C39.8255 4.7998 39.8415 4.81589 39.8574 4.84766V5.04004L39.666 5.13574C39.682 5.1997 39.7456 5.23984 39.8574 5.25586C39.9854 5.27185 40.0572 5.29615 40.0732 5.32812L40.3135 6.21582C40.3135 6.26382 40.362 6.3282 40.458 6.4082C40.474 6.52014 40.4814 6.6481 40.4814 6.79199V7.24805L40.5537 7.36816C40.5696 7.38449 40.5771 7.47236 40.5771 7.63184L40.5537 8.04004C40.5377 8.18395 40.5293 8.31188 40.5293 8.42383V8.66406L40.5771 8.73633C40.5931 8.8962 40.6016 9.02417 40.6016 9.12012C40.6175 9.20004 40.626 9.23181 40.626 9.21582L40.5293 9.45605C40.5133 9.51983 40.4974 9.56763 40.4814 9.59961V9.79199C40.4974 9.83982 40.5134 9.88772 40.5293 9.93555C40.5613 9.96755 40.5856 10.0161 40.6016 10.0801C40.6336 10.1281 40.6578 10.1841 40.6738 10.248L40.6494 10.5596C40.6334 10.5756 40.6176 10.6082 40.6016 10.6562C40.5856 10.6882 40.5697 10.7285 40.5537 10.7764C40.5552 10.7865 40.587 11.0023 40.6494 11.4238L40.5537 11.7598C40.5697 11.7758 40.594 11.8318 40.626 11.9277C40.658 12.0077 40.6738 12.0563 40.6738 12.0723V12.1924C40.6738 12.2882 40.6654 12.3603 40.6494 12.4082C40.7933 12.4242 40.8651 12.5438 40.8652 12.7676L40.8174 12.9121C40.7868 13.0038 40.7709 13.0517 40.7695 13.0557L40.8418 13.3203C40.8577 13.3842 40.8652 13.4563 40.8652 13.5361C40.8812 13.6161 40.8896 13.7198 40.8896 13.8477V14.0879C40.9376 14.1519 40.9852 14.264 41.0332 14.4238V14.4482C41.033 14.6241 40.8175 14.7278 40.3857 14.7598L39.9297 14.6885H39.7852C39.7052 14.6885 39.5854 14.696 39.4258 14.7119C39.4098 14.7119 39.3855 14.7278 39.3535 14.7598C39.3216 14.7917 39.2897 14.8076 39.2578 14.8076H39.042C39.042 14.8076 38.9458 14.7759 38.7539 14.7119L38.8018 14.4961C38.8018 14.4001 38.7532 14.3283 38.6572 14.2803C38.6572 14.2643 38.6656 14.1999 38.6816 14.0879L38.7295 13.9199C38.6174 13.9361 38.3291 14.1758 37.8652 14.6396C37.7535 14.7513 37.674 14.7998 37.626 14.7842L37.5293 14.7598C37.4814 14.8077 37.4337 14.8479 37.3857 14.8799C37.2899 14.9278 37.202 14.9521 37.1221 14.9521C37.1061 14.9681 37.0977 14.968 37.0977 14.9521C37.0817 14.9362 37.0657 14.9278 37.0498 14.9277C37.0338 14.9437 36.9536 14.9764 36.8096 15.0244C36.6817 15.0724 36.6013 15.0957 36.5693 15.0957L36.2578 15H35.9932C35.9293 14.984 35.8572 14.9681 35.7773 14.9521L35.2734 14.5195C35.1457 14.3917 35.0493 14.2402 34.9854 14.0645C34.9694 14.0005 34.9535 13.9201 34.9375 13.8242C34.9215 13.7283 34.8972 13.6162 34.8652 13.4883L34.8896 13.3682C34.8896 13.3202 34.8812 13.28 34.8652 13.248C34.8333 13.1521 34.8174 13.1035 34.8174 13.1035C34.8333 13.0715 34.8418 13.0238 34.8418 12.96V12.7197L34.6973 12.2402V12.0479C34.6973 12 34.7058 11.9522 34.7217 11.9043L34.8418 11.6162V11.4482C34.9058 11.3523 34.9692 11.2319 35.0332 11.0879C35.0972 10.9279 35.1616 10.7441 35.2256 10.5361L35.418 10.4404C35.434 10.4084 35.4498 10.3758 35.4658 10.3438C35.4818 10.3118 35.5062 10.28 35.5381 10.248L35.874 9.91211C35.89 9.88021 35.9059 9.84831 35.9219 9.81641C35.9378 9.76854 35.9613 9.71221 35.9932 9.64844L36.8574 9.12012C36.9374 9.07212 37.0177 9.02359 37.0977 8.97559C37.1776 8.92761 37.258 8.87156 37.3379 8.80762C37.3406 8.80853 37.3883 8.82539 37.4814 8.85645C37.4974 8.84045 37.5133 8.82362 37.5293 8.80762C37.5453 8.77576 37.5697 8.7523 37.6016 8.73633L37.8418 8.63965C37.8419 8.55987 37.8738 8.48017 37.9375 8.40039C37.9855 8.36839 38.0415 8.31986 38.1055 8.25586C38.1855 8.19187 38.2732 8.1116 38.3691 8.01562C38.3851 7.99964 38.3851 7.92017 38.3691 7.77637C38.4011 7.80837 38.418 7.79995 38.418 7.75195C38.418 7.60799 38.4096 7.55199 38.3936 7.58398C38.3776 7.51999 38.3533 7.45559 38.3213 7.3916L38.2734 7.15234C38.2574 7.13634 38.2659 7.08781 38.2979 7.00781L38.3457 6.8877C38.3433 6.8843 38.3031 6.82822 38.2256 6.71973L37.9854 6.4082C37.9054 6.32828 37.8017 6.2956 37.6738 6.31152L37.5537 6.33594C37.4577 6.36794 37.4092 6.38379 37.4092 6.38379H37.1934L37.1455 6.43164C37.1615 6.44764 37.1774 6.46447 37.1934 6.48047C37.2093 6.49641 37.2253 6.52001 37.2412 6.55176C37.2412 6.58372 37.2337 6.60802 37.2178 6.62402V6.69629C37.1538 6.71227 37.0819 6.77592 37.002 6.8877C36.97 6.9837 36.9541 7.07234 36.9541 7.15234C36.9861 7.21615 37.0339 7.27994 37.0977 7.34375C37.0817 7.35975 37.0574 7.36816 37.0254 7.36816C36.9935 7.49585 36.9936 7.58381 37.0254 7.63184L37.0977 7.72754V7.84766C37.0977 7.86366 37.0734 7.88792 37.0254 7.91992L36.7373 7.84766C36.7212 7.78399 36.6811 7.76787 36.6172 7.7998C36.5694 7.83154 36.5299 7.8239 36.498 7.77637H36.4492C36.4014 7.77628 36.3695 7.75945 36.3535 7.72754C36.3375 7.68007 36.3056 7.68826 36.2578 7.75195L36.1133 7.91992C36.0335 7.91994 35.9698 7.92839 35.9219 7.94434L35.8018 7.89648C35.7539 7.86461 35.7221 7.85631 35.7061 7.87207H35.6572L35.1533 8.01562H35.0332C34.9853 8.01558 34.929 8.00814 34.8652 7.99219L34.7461 7.63184C34.7461 7.61598 34.7536 7.60843 34.7695 7.6084C34.7855 7.5924 34.7939 7.57557 34.7939 7.55957L34.8174 7.48828C34.8014 7.44036 34.794 7.38418 34.7939 7.32031V7.08008C34.8419 7.03212 34.8737 6.98351 34.8896 6.93555C34.9056 6.88737 34.9141 6.78355 34.9141 6.62402V6.48047C34.9141 6.06447 35.2657 5.54392 35.9697 4.91992C35.9858 4.87192 36.0418 4.80003 36.1377 4.7041C36.1537 4.68811 36.2573 4.63952 36.4492 4.55957C36.4811 4.52767 36.4894 4.50428 36.4736 4.48828L36.498 4.36816C36.5618 4.38411 36.6257 4.40006 36.6895 4.41602H36.9053L37.0732 4.34375C37.1052 4.32775 37.1379 4.3119 37.1699 4.2959C37.2015 4.28013 37.2253 4.2726 37.2412 4.27246H37.4092C37.4252 4.25649 37.4814 4.23211 37.5771 4.2002C37.673 4.18422 37.7534 4.1758 37.8174 4.17578C37.8972 4.15982 37.9693 4.15238 38.0332 4.15234ZM70.6943 0.456055C70.8702 0.456063 70.9823 0.464477 71.0303 0.480469C71.0942 0.496824 71.1822 0.632302 71.2939 0.887695L71.1982 1.24805C71.2302 1.32796 71.2545 1.43179 71.2705 1.55957V1.67969C71.2705 1.71169 71.2621 1.76022 71.2461 1.82422L71.1982 2.04004C71.1983 2.05604 71.2057 2.08033 71.2217 2.1123C71.2377 2.1283 71.2545 2.16842 71.2705 2.23242L71.3184 2.42383V2.49609C71.3183 2.51216 71.3099 2.55234 71.2939 2.61621C71.2939 2.66408 71.262 2.71189 71.1982 2.75977L71.3662 3.12012C71.3661 3.13635 71.3418 3.20826 71.2939 3.33594C71.3419 3.44787 71.3662 3.57584 71.3662 3.71973C71.3662 3.71973 71.3504 3.76826 71.3184 3.86426C71.2865 3.94393 71.2782 3.99167 71.2939 4.00781L71.4141 4.34375C71.4461 4.55175 71.4703 4.69637 71.4863 4.77637C71.4847 4.77913 71.4603 4.81934 71.4141 4.89648C71.3662 4.96033 71.3418 5.00809 71.3418 5.04004C71.3097 5.04013 71.2459 5.05605 71.1504 5.08789C71.2784 5.24788 71.3978 5.46438 71.5098 5.73633L71.4141 5.97559C71.3502 6.1193 71.3185 6.23156 71.3184 6.31152C71.3504 6.34352 71.3905 6.41632 71.4385 6.52832L71.4619 6.71973C71.5099 6.76773 71.5416 6.81626 71.5576 6.86426C71.555 6.86854 71.5316 6.90891 71.4863 6.98438L71.3662 7.15234C71.3503 7.18433 71.3418 7.23209 71.3418 7.2959L71.5342 7.48828L71.4385 7.63184C71.4544 7.61662 71.4704 7.65654 71.4863 7.75195L71.4619 7.96777L71.5342 8.16016L71.4385 8.61621L71.6543 8.97559C71.6543 9.00759 71.63 9.09623 71.582 9.24023L71.4863 9.48047C71.4868 9.51414 71.5343 9.73833 71.6299 10.1523C71.5659 10.1043 71.4941 10.0801 71.4141 10.0801C71.3022 10.0801 71.2462 10.1279 71.2461 10.2236C71.2461 10.3356 71.3105 10.3916 71.4385 10.3916C71.4546 10.392 71.4866 10.4163 71.5342 10.4639L71.6064 10.5117C71.5904 10.6237 71.5904 10.7282 71.6064 10.8242L71.6777 11.0156C71.6777 11.0156 71.6619 11.0642 71.6299 11.1602L71.582 11.3037C71.6459 11.3676 71.6861 11.4397 71.7021 11.5195V11.6641C71.6861 11.6801 71.6376 11.6885 71.5576 11.6885L71.582 11.832V12C71.518 11.968 71.4621 11.9764 71.4141 12.0244V12.0957L71.6064 12.0723C71.6384 12.2321 71.6617 12.3442 71.6777 12.4082L71.6299 12.5518C71.5979 12.6478 71.582 12.6963 71.582 12.6963C71.5822 12.7441 71.6141 12.792 71.6777 12.8398L71.7979 12.9121C71.75 12.9761 71.7425 13.0799 71.7744 13.2236C71.7744 13.2396 71.7576 13.2639 71.7256 13.2959C71.6938 13.3277 71.6779 13.3598 71.6777 13.3916L71.7979 14.1123L71.8223 14.8564C71.8221 14.9521 71.7736 15 71.6777 15L71.582 14.9521C71.55 14.9361 71.5258 14.9277 71.5098 14.9277C71.4939 14.9119 71.4778 14.9043 71.4619 14.9043C71.4299 14.8883 71.3898 14.8799 71.3418 14.8799H71.2217C71.0459 14.8799 70.902 14.8883 70.79 14.9043C70.6781 14.9043 70.6063 14.8959 70.5742 14.8799L70.4297 14.8564C70.3979 14.8724 70.3581 14.896 70.3105 14.9277L70.166 15H69.8057C69.7897 15.0158 69.7661 15.0244 69.7344 15.0244C69.7024 15.0244 69.6697 15.0319 69.6377 15.0479L69.3262 14.9521C69.2784 14.9203 69.2541 14.8883 69.2539 14.8564C69.2859 14.8084 69.2859 14.648 69.2539 14.376C69.2699 14.36 69.2783 14.3357 69.2783 14.3037L69.3984 14.208C69.3984 14.16 69.39 14.1199 69.374 14.0879L69.3496 13.9922C69.3656 13.9922 69.3983 13.9521 69.4463 13.8721C69.4623 13.8081 69.494 13.7764 69.542 13.7764C69.638 13.6964 69.6865 13.6236 69.6865 13.5596C69.6864 13.3679 69.5977 13.2958 69.4219 13.3438L69.3262 13.3682C69.3421 13.3363 69.3495 13.3043 69.3496 13.2725C69.3496 13.2405 69.3581 13.2002 69.374 13.1523L69.2539 12.96V12.8877C69.254 12.8557 69.2624 12.8079 69.2783 12.7441L69.2539 12.6484C69.2539 12.6326 69.2462 12.6242 69.2305 12.624C69.2145 12.6081 69.2061 12.5921 69.2061 12.5762L69.2783 12.3359C69.3262 12.2083 69.3495 12.1363 69.3496 12.1201L69.2783 11.9756C69.2783 11.8956 69.2699 11.7918 69.2539 11.6641C69.2539 11.5201 69.2465 11.368 69.2305 11.208L69.1338 10.9443V10.8721C69.1338 10.8241 69.1422 10.7597 69.1582 10.6797C69.1901 10.5998 69.2061 10.5035 69.2061 10.3916V10.3682C69.2061 10.3362 69.1976 10.3044 69.1816 10.2725C69.1816 10.2245 69.1742 10.1675 69.1582 10.1035L69.2305 9.98438C69.2305 9.96837 69.2221 9.95155 69.2061 9.93555L69.1582 9.76758C69.1264 9.68782 69.1339 9.60807 69.1816 9.52832L69.2783 9.36035L69.2061 9.26367V9.0957C69.206 9.03186 69.1976 8.96814 69.1816 8.9043V8.66406L69.0859 8.30371C69.1019 8.25576 69.1104 8.19964 69.1104 8.13574C69.1104 8.056 69.1179 7.97623 69.1338 7.89648L69.2539 7.75195C69.142 7.68794 69.0701 7.57594 69.0381 7.41602C69.0381 7.35202 69.0782 7.28018 69.1582 7.2002C69.2382 7.1522 69.2783 7.10366 69.2783 7.05566C69.2782 7.00766 69.2539 6.93562 69.2061 6.83984L69.3018 6.76758C69.2698 6.75158 69.2294 6.72815 69.1816 6.69629C69.1337 6.66432 69.0776 6.63157 69.0137 6.59961L69.2061 6.38379C69.1101 6.33573 69.0625 6.16779 69.0625 5.87988L68.8701 4.77637V4.17578C68.8701 4.09593 68.8617 4.05566 68.8457 4.05566L68.7979 3.8877C68.7979 3.7918 68.8137 3.69551 68.8457 3.59961C68.8459 3.56784 68.8703 3.54426 68.918 3.52832C68.9499 3.49636 68.9658 3.47205 68.9658 3.45605C68.9651 3.4546 68.9491 3.42269 68.918 3.36035C68.87 3.31235 68.8457 3.27967 68.8457 3.26367C68.8617 3.23161 68.8701 3.15971 68.8701 3.04785L69.0381 3.07227C69.0541 3.02429 69.0625 2.92808 69.0625 2.78418L68.8945 2.71191C68.9104 2.69555 68.918 2.6394 68.918 2.54395L68.7979 1.48828L68.8701 1.2959L68.7744 1.17578L68.7021 0.912109C68.7021 0.800127 68.7666 0.65643 68.8945 0.480469H69.0137C69.0774 0.592019 69.1338 0.648113 69.1816 0.648438C69.2136 0.648438 69.2622 0.615758 69.3262 0.551758C69.3899 0.488099 69.4378 0.456278 69.4697 0.456055L69.6621 0.551758C69.7741 0.615758 69.8385 0.648438 69.8545 0.648438C69.8705 0.632438 69.8863 0.615609 69.9023 0.599609C69.9183 0.583762 69.942 0.567606 69.9736 0.551758L70.0703 0.576172C70.1022 0.592074 70.1341 0.599602 70.166 0.599609C70.198 0.599609 70.2859 0.583713 70.4297 0.551758C70.5737 0.503758 70.6623 0.472054 70.6943 0.456055ZM50.6826 14.6162C50.6666 14.6003 50.6264 14.6077 50.5625 14.6396C50.5785 14.6716 50.627 14.7043 50.707 14.7363C50.723 14.6883 50.7146 14.6482 50.6826 14.6162ZM30.0742 14.5439C30.1219 14.5441 30.1379 14.5761 30.1221 14.6396C30.0901 14.6396 30.0499 14.6162 30.002 14.5684C30.018 14.5524 30.0422 14.5439 30.0742 14.5439ZM24.0244 13.5596L24.168 14.04C24.168 14.168 24.1521 14.2156 24.1201 14.1836L24.0957 14.1602H24.0479C24.0158 14.2082 23.928 14.3044 23.7842 14.4482C23.816 14.4802 23.832 14.528 23.832 14.5918L23.9277 14.5684C23.9437 14.5524 23.9999 14.544 24.0957 14.5439L24.3838 14.208C24.3519 14.1761 24.32 14.1282 24.2881 14.0645C24.2561 13.9845 24.2244 13.8958 24.1924 13.7998V13.7275C24.1925 13.6479 24.2159 13.584 24.2637 13.5361L24.0244 13.5596ZM69.9736 14.4717C69.9575 14.4403 69.9179 14.4562 69.8545 14.5195C69.8865 14.5675 69.9341 14.5843 69.998 14.5684C70.014 14.5364 70.0056 14.5037 69.9736 14.4717ZM37.5537 14.3281C37.5377 14.3441 37.5293 14.3843 37.5293 14.4482L37.626 14.4717C37.6579 14.3439 37.6495 14.2803 37.6016 14.2803L37.5537 14.3281ZM44.1494 14.376L44.4131 14.4717L44.2695 14.3037H44.1738L44.1494 14.376ZM64.0801 14.0156C64.0481 14.0796 64.0312 14.1282 64.0312 14.1602C64.0315 14.1763 64.0718 14.2241 64.1514 14.3037L64.2236 14.1357C64.1917 14.0879 64.1439 14.0476 64.0801 14.0156ZM25.0557 14.0645C25.0397 14.0325 24.9995 14.0483 24.9355 14.1123C24.9675 14.1603 25.0161 14.1762 25.0801 14.1602C25.0961 14.1282 25.0876 14.0964 25.0557 14.0645ZM23.4004 14.0156C23.3844 13.9838 23.3516 13.9921 23.3037 14.04C23.3037 14.088 23.3523 14.1123 23.4482 14.1123C23.4482 14.0803 23.4324 14.0476 23.4004 14.0156ZM30.9863 13.7764C30.9703 13.7924 30.89 13.8241 30.7461 13.8721V13.9678L30.8662 14.0879C30.8983 14.0878 30.9545 14.0804 31.0342 14.0645L31.1543 13.9199L30.9863 13.7764ZM24.9121 13.752C24.9133 13.7525 24.9292 13.761 24.96 13.7764C24.9919 13.7923 25.0162 13.7998 25.0322 13.7998C25.032 13.7837 25.0077 13.7519 24.96 13.7041C24.9588 13.7053 24.9428 13.7212 24.9121 13.752ZM75.665 13.4404C75.633 13.4084 75.6004 13.4084 75.5684 13.4404C75.5687 13.4723 75.6089 13.5043 75.6885 13.5361C75.7044 13.5043 75.6967 13.4723 75.665 13.4404ZM46.8613 12.96C46.8613 12.992 46.8539 13.0321 46.8379 13.0801C46.8379 13.1121 46.8295 13.1522 46.8135 13.2002C46.7363 13.3237 46.696 13.3874 46.6934 13.3916C46.7414 13.4396 46.8057 13.4639 46.8857 13.4639C46.8697 13.4639 46.9733 13.3836 47.1973 13.2236V13.1279C47.1014 13.0161 47.0135 12.96 46.9336 12.96H46.8613ZM57.1045 13.0322L57.0811 13.1523C57.1448 13.1842 57.1927 13.2002 57.2246 13.2002C57.2566 13.1202 57.2566 13.0558 57.2246 13.0078L57.1045 13.0322ZM49.6992 13.0322C49.6513 13.0482 49.627 13.0959 49.627 13.1758C49.6588 13.1917 49.6908 13.1841 49.7227 13.1523C49.7386 13.1364 49.7311 13.0961 49.6992 13.0322ZM73.7207 13.1035L73.8643 13.1523L74.0566 13.0557L74.0322 12.96L73.9131 12.9355L73.8643 12.9844V12.96L73.8408 12.8643L73.7686 12.8398L73.7207 13.1035ZM63.792 12.9844C63.8239 13.0321 63.8558 13.0557 63.8877 13.0557C63.9355 13.0556 63.9834 13.0321 64.0312 12.9844C64.0153 12.9684 64.0078 12.9441 64.0078 12.9121L63.792 12.9844ZM37.8652 10.1035C37.8172 10.2955 37.7454 10.4644 37.6494 10.6084L37.4814 10.7275L37.3857 10.8965L37.2178 10.9922C37.2018 11.0561 37.17 11.1281 37.1221 11.208C37.0901 11.288 37.0574 11.3841 37.0254 11.4961C37.0254 11.5921 36.9693 11.7518 36.8574 11.9756L36.8818 12.0723C36.7704 12.1996 36.7144 12.2792 36.7139 12.3115C36.7457 12.2958 36.7777 12.3125 36.8096 12.3604L36.9541 12.7441L37.0498 12.792C37.0817 12.7921 37.1136 12.808 37.1455 12.8398C37.1614 12.8557 37.1775 12.8718 37.1934 12.8877C37.2093 12.9037 37.2252 12.9281 37.2412 12.96L37.4336 12.9844H37.5537C37.5857 12.9843 37.6174 12.9675 37.6494 12.9355C37.6814 12.9036 37.7057 12.8877 37.7217 12.8877C37.7536 12.9037 37.8014 12.928 37.8652 12.96C37.9292 12.96 38.002 12.9198 38.082 12.8398C38.114 12.7599 38.1617 12.6636 38.2256 12.5518C38.3055 12.5198 38.3934 12.4561 38.4893 12.3604C38.4733 12.3284 38.4658 12.264 38.4658 12.168V11.9043C38.4818 11.8083 38.4977 11.7038 38.5137 11.5918C38.4977 11.5119 38.4818 11.424 38.4658 11.3281C38.4498 11.2162 38.434 11.0882 38.418 10.9443C38.418 10.8484 38.4656 10.7924 38.5615 10.7764C38.5135 10.6164 38.41 10.3915 38.25 10.1035H37.8652ZM42.1816 12.6719C42.1976 12.7199 42.2293 12.7684 42.2773 12.8164H42.4219C42.4219 12.7844 42.405 12.7359 42.373 12.6719L42.3018 12.6963C42.2218 12.6963 42.1976 12.6561 42.2295 12.5762L42.1816 12.6719ZM50.6348 12.3359C50.6189 12.3518 50.6114 12.3679 50.6113 12.3838C50.6113 12.3998 50.6029 12.4241 50.5869 12.4561L50.6826 12.4082L50.6348 12.3359ZM38.874 12.2881C38.874 12.3676 38.8816 12.4154 38.8975 12.4316L39.042 12.3838C39.026 12.3678 39.0176 12.3277 39.0176 12.2637L38.874 12.2881ZM54.1387 12.0723C54.0909 12.0883 54.0674 12.1201 54.0674 12.168L54.1631 12.2637C54.243 12.2476 54.315 12.2075 54.3789 12.1436L54.3545 12.0957L54.1387 12.0723ZM57.4404 12.0957C57.4086 12.0958 57.3766 12.1118 57.3447 12.1436C57.3767 12.1915 57.4245 12.2157 57.4883 12.2158C57.4882 12.1679 57.4724 12.1277 57.4404 12.0957ZM23.0156 11.8076C22.9997 11.8395 22.9922 11.8639 22.9922 11.8799L23.0879 11.8076L23.04 11.7598C23.04 11.7598 23.0316 11.7757 23.0156 11.8076ZM39.7139 11.5195C39.7299 11.5355 39.7532 11.5925 39.7852 11.6885C39.8171 11.7364 39.8499 11.7598 39.8818 11.7598C39.9138 11.7597 39.9541 11.7363 40.002 11.6885C40.066 11.6245 40.0977 11.5759 40.0977 11.5439L40.0498 11.4482C40.0338 11.4322 40.0095 11.4238 39.9775 11.4238C39.9457 11.4238 39.9137 11.4163 39.8818 11.4004L39.7139 11.5195ZM49.1709 11.208C49.0751 11.208 49.0275 11.2559 49.0273 11.3516C49.0273 11.3995 49.0507 11.464 49.0986 11.5439C49.1625 11.6078 49.2187 11.6395 49.2666 11.6396C49.2986 11.6077 49.3229 11.5759 49.3389 11.5439C49.3708 11.496 49.3951 11.4483 49.4111 11.4004C49.4111 11.2724 49.3467 11.208 49.2188 11.208H49.1709ZM65.8076 11.6162C65.8236 11.6321 65.8556 11.6396 65.9033 11.6396L65.9277 11.4961C65.9118 11.4801 65.8798 11.4717 65.832 11.4717L65.8076 11.6162ZM26.625 11.3662L26.6396 11.3516H26.6162C26.6216 11.3569 26.6232 11.3626 26.625 11.3662ZM27.9121 11.1836C27.8801 11.1836 27.8484 11.2004 27.8164 11.2324C27.8485 11.28 27.9046 11.2962 27.9844 11.2803C27.9844 11.2323 27.9601 11.1996 27.9121 11.1836ZM58.4004 10.8477C58.3365 10.8637 58.3047 10.8964 58.3047 10.9443V11.0879L58.4727 11.04L58.4004 10.8477ZM31.0098 10.7998C30.9618 10.8158 30.9375 10.8644 30.9375 10.9443C30.9695 10.9603 31.0022 10.9519 31.0342 10.9199C31.066 10.888 31.0577 10.8477 31.0098 10.7998ZM58.7129 10.6084C58.6489 10.6244 58.6162 10.6561 58.6162 10.7041V10.8721L58.7842 10.7998L58.7129 10.6084ZM27.5283 10.2725C27.4803 10.2405 27.4402 10.2563 27.4082 10.3203C27.4402 10.3681 27.4963 10.3841 27.5762 10.3682C27.5762 10.3363 27.5601 10.3043 27.5283 10.2725ZM58.2324 10.2236C58.2164 10.2238 58.192 10.2406 58.1602 10.2725H58.2324C58.2484 10.2884 58.2728 10.2959 58.3047 10.2959L58.2324 10.2236ZM31.9219 10.0557C31.906 10.0715 31.8976 10.0877 31.8975 10.1035C31.8975 10.1195 31.8899 10.1439 31.874 10.1758L31.9219 10.1523C31.9378 10.1364 31.9538 10.128 31.9697 10.1279L31.9219 10.0557ZM73.5283 9.76758C73.4484 9.7677 73.3445 9.80791 73.2168 9.8877C73.2647 9.96752 73.3285 10.0396 73.4082 10.1035C73.4562 10.0715 73.5206 9.98384 73.6006 9.83984L73.5771 9.76758H73.5283ZM26.6162 9.86426C26.5682 9.89626 26.5524 9.95223 26.5684 10.0322C26.6002 10.0321 26.6322 10.0162 26.6641 9.98438C26.6641 9.93649 26.6481 9.89622 26.6162 9.86426ZM36.8574 10.0078L36.8818 9.8877L36.7373 9.86426L36.8574 10.0078ZM12 10H2L4 6H14L12 10ZM71.0508 9.61621C71.0161 9.47891 70.8982 9.44125 70.6943 9.50391C70.6143 9.53591 70.55 9.58444 70.502 9.64844C70.4701 9.69636 70.4541 9.75256 70.4541 9.81641C70.4543 9.92814 70.5186 9.98438 70.6465 9.98438H70.7178C70.8136 9.98438 70.8856 9.92806 70.9336 9.81641C71.0004 9.68285 71.0397 9.61598 71.0508 9.61621ZM77.9932 9.81641C77.9772 9.80044 77.9368 9.80799 77.873 9.83984C77.873 9.87182 77.9207 9.90357 78.0166 9.93555C78.0324 9.88794 78.0247 9.84825 77.9932 9.81641ZM64.5117 9.69629C64.4957 9.6803 64.4555 9.68776 64.3916 9.71973C64.3916 9.75169 64.4394 9.78444 64.5352 9.81641C64.5511 9.7685 64.5436 9.72826 64.5117 9.69629ZM44.0537 8.92773C44.1335 8.89578 44.1738 8.86398 44.1738 8.83203C44.1738 8.80007 44.1335 8.76829 44.0537 8.73633V8.92773ZM38.5381 8.49609C38.4742 8.51207 38.4415 8.54391 38.4414 8.5918C38.4574 8.60779 38.4976 8.60779 38.5615 8.5918L38.5381 8.49609ZM76.1689 6.38379C76.1209 6.38379 76.0323 6.43232 75.9043 6.52832L75.5205 6.79199C75.5845 6.83999 75.5929 6.90438 75.5449 6.98438C75.5288 7.04812 75.4726 7.08002 75.377 7.08008V7.15234C75.4249 7.12042 75.4726 7.14393 75.5205 7.22363C75.5523 7.28731 75.5606 7.32759 75.5449 7.34375L75.4971 8.06445V8.18359C75.5131 8.21559 75.5205 8.23242 75.5205 8.23242C75.5204 8.28014 75.4961 8.30371 75.4482 8.30371C75.4004 8.27176 75.361 8.23145 75.3291 8.18359L75.2568 8.23242L75.2324 8.37598L75.377 8.49609L75.6162 8.42383L75.9531 8.32812C76.065 8.3281 76.1847 8.31968 76.3125 8.30371C76.4405 8.27171 76.5851 8.24001 76.7451 8.20801L76.8164 7.91992C76.8324 7.90392 76.8725 7.87966 76.9365 7.84766C76.8727 7.78377 76.8165 7.72013 76.7686 7.65625C76.7366 7.59225 76.7291 7.52787 76.7451 7.46387L76.7686 7.2959V7.15234C76.7686 7.00845 76.705 6.88796 76.5771 6.79199C76.5931 6.74401 76.6006 6.67953 76.6006 6.59961C76.6003 6.47189 76.4565 6.3998 76.1689 6.38379ZM69.4697 8.16016C69.422 8.16038 69.3985 8.20813 69.3984 8.30371C69.4303 8.30359 69.4623 8.28773 69.4941 8.25586C69.526 8.2239 69.5177 8.19212 69.4697 8.16016ZM63.5273 8.1123C63.4796 8.12841 63.4561 8.17614 63.4561 8.25586C63.4879 8.27164 63.5199 8.26421 63.5518 8.23242C63.5677 8.21643 63.5593 8.17623 63.5273 8.1123ZM57.4883 7.7041C57.4722 7.70444 57.4402 7.72871 57.3926 7.77637L57.4883 7.94434V7.7041ZM60.6562 7.7041C60.6723 7.7201 60.6891 7.74437 60.7051 7.77637L60.7529 7.87207L60.7285 7.75195V7.63184L60.6562 7.7041ZM64.4639 7.41602C64.4639 7.432 64.4554 7.44043 64.4395 7.44043V7.46387L64.416 7.53613C64.4192 7.53456 64.4511 7.51861 64.5117 7.48828L64.4639 7.41602ZM59.8887 7.00781C59.7768 7.00781 59.6805 7.03963 59.6006 7.10352C59.6166 7.11952 59.625 7.16805 59.625 7.24805L59.6006 7.27246H59.5762C59.4647 7.33638 59.4485 7.40841 59.5283 7.48828C59.5603 7.52028 59.593 7.52772 59.625 7.51172C59.6258 7.49573 59.6894 7.47219 59.8164 7.44043C59.8962 7.4085 59.9363 7.36817 59.9365 7.32031L59.9131 7.27246C59.9131 7.25647 59.9448 7.21629 60.0088 7.15234L60.0811 7.05566C60.0809 7.03989 60.0725 7.03223 60.0566 7.03223C60.0246 7.01623 59.9686 7.00782 59.8887 7.00781ZM53.1787 7.44043C53.2107 7.47234 53.2509 7.48826 53.2988 7.48828C53.3148 7.48828 53.3232 7.47214 53.3232 7.44043C53.2752 7.37643 53.2267 7.34375 53.1787 7.34375V7.44043ZM42.4453 7.10352C42.3975 7.08765 42.3571 7.096 42.3252 7.12793C42.3252 7.15993 42.3737 7.19163 42.4697 7.22363C42.4697 7.15985 42.4613 7.11949 42.4453 7.10352ZM47.3418 6.86426C47.3098 6.89626 47.2939 6.95223 47.2939 7.03223L47.5811 7.08008C47.5811 6.96835 47.5735 6.91239 47.5576 6.91211L47.4375 6.8877H47.3896C47.3738 6.87185 47.3577 6.86436 47.3418 6.86426ZM77.2012 7.03223C77.1532 6.88823 77.1046 6.88823 77.0566 7.03223C77.0886 7.08009 77.1372 7.08018 77.2012 7.03223ZM57.585 6.76758C57.553 6.83158 57.5371 6.88011 57.5371 6.91211C57.5409 6.91589 57.5803 6.95625 57.6562 7.03223C57.7202 6.92025 57.6969 6.83157 57.585 6.76758ZM23.1123 6.8877C23.0803 6.85573 23.0476 6.87172 23.0156 6.93555C23.0156 6.98355 23.0642 7.00038 23.1602 6.98438C23.1602 6.95238 23.1443 6.9197 23.1123 6.8877ZM25.0801 6.83984C25.0481 6.87184 25.0322 6.92037 25.0322 6.98438C25.0642 6.9843 25.096 6.96747 25.1279 6.93555C25.1597 6.90361 25.144 6.87178 25.0801 6.83984ZM36.3779 6.50391C36.2499 6.50391 36.194 6.55244 36.21 6.64844L36.2334 6.74414C36.2494 6.77608 36.2578 6.8079 36.2578 6.83984L36.5459 6.81641C36.6735 6.81633 36.7371 6.76007 36.7373 6.64844L36.6895 6.52832L36.3779 6.50391ZM75.4482 6.16797C75.4165 6.19998 75.4164 6.25622 75.4482 6.33594C75.5762 6.28794 75.5762 6.23197 75.4482 6.16797ZM78.4482 6.26367L78.5684 6.31152L78.5205 6.21582L78.4482 6.26367ZM31.5137 6C31.4817 5.9681 31.4415 5.96803 31.3936 6C31.4096 6.032 31.4581 6.0637 31.5381 6.0957C31.5539 6.06381 31.5456 6.03189 31.5137 6ZM77.4404 5.32812C77.3765 5.29624 77.3288 5.32046 77.2969 5.40039C77.281 5.41634 77.2725 5.43991 77.2725 5.47168C77.2885 5.50368 77.2969 5.53636 77.2969 5.56836L77.3203 5.73633L77.249 5.80762L77.5605 6.02441C77.6405 6.02441 77.6891 5.97588 77.7051 5.87988L77.6807 5.56836H77.6328C77.5849 5.56836 77.5606 5.52808 77.5605 5.44824C77.5285 5.36824 77.4884 5.32812 77.4404 5.32812ZM39.5215 5.78418C39.5375 5.83216 39.5861 5.89566 39.666 5.97559L39.7373 5.87988C39.7533 5.84788 39.7375 5.81618 39.6895 5.78418C39.6415 5.76821 39.5854 5.76819 39.5215 5.78418ZM70.9336 5.87988C70.9174 5.86429 70.8779 5.87257 70.8145 5.9043C70.8464 5.95203 70.8942 5.97557 70.958 5.97559C70.9738 5.94369 70.9655 5.91178 70.9336 5.87988ZM31.3936 5.66406C31.4094 5.67991 31.4256 5.68832 31.4414 5.68848C31.4733 5.68848 31.4977 5.69601 31.5137 5.71191C31.5297 5.69592 31.5138 5.66417 31.4658 5.61621L31.3936 5.66406ZM63.5039 5.18359C63.4879 5.18359 63.4478 5.20042 63.3838 5.23242L63.3594 5.28027C63.3754 5.32824 63.3997 5.38432 63.4316 5.44824C63.4636 5.51219 63.5038 5.58415 63.5518 5.66406L63.8633 5.40039L63.792 5.30371L63.6719 5.32812C63.6559 5.32812 63.6316 5.30386 63.5996 5.25586C63.5519 5.20818 63.52 5.18386 63.5039 5.18359ZM70.8623 5.51953C70.8303 5.51953 70.806 5.52796 70.79 5.54395C70.822 5.57595 70.8622 5.5918 70.9102 5.5918C70.9259 5.5758 70.9102 5.55143 70.8623 5.51953ZM67.8721 5.37598C67.8561 5.35999 67.8159 5.36843 67.752 5.40039C67.7839 5.44808 67.8318 5.47165 67.8955 5.47168C67.9113 5.43982 67.9038 5.40784 67.8721 5.37598ZM53.8506 5.25586C53.8344 5.24019 53.7941 5.24844 53.7305 5.28027C53.7625 5.32827 53.811 5.35156 53.875 5.35156C53.8908 5.31969 53.8825 5.28773 53.8506 5.25586ZM54.3311 5.16016C54.3151 5.17617 54.3309 5.2163 54.3789 5.28027L54.499 5.30371C54.4989 5.27175 54.483 5.22385 54.4512 5.16016H54.3311ZM75.8564 5.06445C75.8565 5.1123 75.8649 5.16016 75.8809 5.20801L75.9287 5.1123L75.8564 5.06445ZM30.8896 4.99219C30.8737 5.02407 30.8578 5.04849 30.8418 5.06445C30.8576 5.08041 30.8662 5.104 30.8662 5.13574H30.9619C30.9779 5.13576 30.9863 5.14417 30.9863 5.16016H31.0342C31.13 5.16005 31.1777 5.11152 31.1777 5.01562L31.1299 4.87207H31.0098C30.9618 4.92003 30.9216 4.96021 30.8896 4.99219ZM33.3623 4.99219C33.3463 5.00819 33.3295 5.01562 33.3135 5.01562L33.3857 5.1123L33.4814 5.06445L33.3623 4.99219ZM67.7754 5.04004C67.7914 5.05604 67.8315 5.0803 67.8955 5.1123C67.8955 5.0963 67.8712 5.06362 67.8232 5.01562L67.7754 5.04004ZM56.7686 4.77637C56.8005 4.77637 56.8407 4.79975 56.8887 4.84766H57.0322C57.0321 4.7838 57.0089 4.7276 56.9609 4.67969H56.793L56.7686 4.77637ZM44.4854 4.72754C44.4692 4.71194 44.4288 4.72015 44.3652 4.75195C44.3972 4.79995 44.4458 4.82422 44.5098 4.82422C44.5258 4.79222 44.5174 4.75954 44.4854 4.72754ZM36.5938 4.65625C36.5621 4.68791 36.5462 4.71155 36.5459 4.72754C36.5619 4.82351 36.6095 4.83189 36.6895 4.75195C36.6894 4.70402 36.6576 4.67226 36.5938 4.65625ZM21.7197 4.41602C21.7357 4.43197 21.7441 4.44791 21.7441 4.46387C21.7601 4.47982 21.776 4.49577 21.792 4.51172V4.41602H21.7197ZM10 4H0L2 0H12L10 4ZM23.376 3.62402C23.36 3.59202 23.3283 3.60044 23.2803 3.64844C23.2806 3.69612 23.3282 3.7197 23.4238 3.71973C23.4238 3.65591 23.4079 3.62402 23.376 3.62402ZM27.5762 3.36035C27.5282 3.36035 27.5039 3.39206 27.5039 3.45605C27.5519 3.47205 27.6004 3.44779 27.6484 3.38379C27.6325 3.36782 27.6081 3.36038 27.5762 3.36035ZM27.1924 3.24023V3.33594L27.2881 3.24023C27.2881 3.22426 27.2562 3.22431 27.1924 3.24023ZM23.1602 3.04785C23.0802 3.04785 22.9999 3.07964 22.9199 3.14355C22.8081 3.06368 22.7277 3.02441 22.6797 3.02441C22.6956 3.05626 22.7116 3.0959 22.7275 3.14355C22.7435 3.19146 22.7604 3.24767 22.7764 3.31152C22.7929 3.29552 22.8492 3.27196 22.9443 3.24023L23.1357 3.26367L23.3281 3.31152C23.456 3.27949 23.5195 3.20764 23.5195 3.0957L23.4961 3L23.1602 3.04785ZM22.4404 3.16797C22.4084 3.13597 22.3758 3.13597 22.3438 3.16797C22.3119 3.19989 22.3044 3.23175 22.3203 3.26367C22.3683 3.2956 22.4084 3.26393 22.4404 3.16797ZM56.9609 2.23242C56.9449 2.20042 56.9123 2.20786 56.8643 2.25586C56.8643 2.30386 56.9128 2.32812 57.0088 2.32812C57.0088 2.29625 56.9927 2.2643 56.9609 2.23242ZM60.9688 2.20801C60.9847 2.22396 61.0006 2.23241 61.0166 2.23242C61.0486 2.23242 61.0729 2.23986 61.0889 2.25586C61.0887 2.23982 61.0644 2.20798 61.0166 2.16016L60.9688 2.20801ZM50.3232 2.08789C50.3072 2.05589 50.2746 2.0643 50.2266 2.1123C50.2268 2.14417 50.2671 2.17614 50.3467 2.20801C50.3627 2.16006 50.3552 2.11987 50.3232 2.08789ZM50.2266 1.77637L50.3467 1.82422L50.2988 1.72754L50.2266 1.77637ZM61.0889 1.7041C61.1528 1.72008 61.2089 1.73597 61.2568 1.75195H61.3525C61.1928 1.70405 61.1051 1.68822 61.0889 1.7041ZM69.71 1.44043C69.7259 1.42451 69.7419 1.4161 69.7578 1.41602C69.7738 1.41602 69.7897 1.4076 69.8057 1.3916C69.8054 1.37561 69.7895 1.35203 69.7578 1.32031L69.71 1.44043Z" fill="white" fill-opacity="0.4"/>
</svg>
