<svg width="80" height="18" viewBox="0 0 80 18" fill="none" xmlns="http://www.w3.org/2000/svg">
<path d="M62.5674 3.79199C62.5994 3.83999 62.6236 3.86426 62.6396 3.86426L62.9277 3.79199C62.9597 3.79208 63.0158 3.83226 63.0957 3.91211L63.1914 3.84082C63.2554 3.80882 63.2881 3.79199 63.2881 3.79199C63.3042 3.79214 63.3362 3.80056 63.3838 3.81641C63.4317 3.81642 63.4635 3.82484 63.4795 3.84082L63.5996 3.79199C63.6476 3.77601 63.6877 3.76855 63.7197 3.76855L64.0312 3.88867C64.1271 3.82474 64.2234 3.78459 64.3193 3.76855L64.5352 3.79199V3.81641C64.5033 3.8486 64.4873 3.93663 64.4873 4.08008L64.5117 4.36816C64.5437 4.38415 64.5118 4.44032 64.416 4.53613C64.416 4.53613 64.4319 4.58466 64.4639 4.68066L64.584 4.84863V5.32812C64.5851 5.32924 64.601 5.34519 64.6318 5.37598C64.6478 5.39198 64.6553 5.42466 64.6553 5.47266L64.584 5.71191V5.76074C64.5998 5.77671 64.616 5.80037 64.6318 5.83203C64.5839 5.87998 64.5437 5.90425 64.5117 5.9043L64.5352 6C64.5511 6.03195 64.5595 6.07222 64.5596 6.12012V6.14453C64.5595 6.16053 64.5511 6.18491 64.5352 6.2168C64.5351 6.24863 64.5276 6.28834 64.5117 6.33594L64.7041 6.4082C64.7041 6.5682 64.7601 6.72867 64.8721 6.88867V6.93652C64.872 7.11248 64.7834 7.30476 64.6074 7.5127C64.6235 7.57646 64.6797 7.60835 64.7754 7.6084C64.7754 7.75238 64.768 7.84849 64.752 7.89648L64.7754 7.94434C64.8394 7.94434 64.8879 7.98445 64.9199 8.06445C64.9518 8.11243 64.9518 8.18449 64.9199 8.28027C64.9199 8.36027 64.9115 8.42466 64.8955 8.47266L65.0156 8.92871C64.9998 8.94465 64.9913 8.9683 64.9912 9L64.752 8.95215C64.752 8.96811 64.736 8.99252 64.7041 9.02441C64.7201 9.0883 64.7518 9.12012 64.7998 9.12012C64.8478 9.10417 64.9282 9.09668 65.04 9.09668C65.0081 9.09668 65.1035 9.04054 65.3271 8.92871V8.56836C65.4071 8.61636 65.4641 8.64062 65.4961 8.64062L65.6152 8.59277L65.5195 8.44824L65.5918 8.25684C65.5918 8.22484 65.5834 8.19216 65.5674 8.16016C65.5673 8.12821 65.5599 8.08031 65.5439 8.0166C65.5121 7.92097 65.5038 7.86488 65.5195 7.84863L65.6641 7.56055C65.68 7.49665 65.6875 7.42458 65.6875 7.34473C65.6875 7.26478 65.6959 7.16854 65.7119 7.05664L65.7598 7.00879V6.86426C65.7598 6.78437 65.7672 6.69643 65.7832 6.60059C65.7992 6.58459 65.8319 6.57617 65.8799 6.57617C65.8799 6.62417 65.9116 6.6727 65.9756 6.7207C66.0556 6.7526 66.1433 6.64812 66.2393 6.4082C66.2873 6.3122 66.3199 6.23197 66.3359 6.16797C66.3678 6.08834 66.3913 6.02444 66.4072 5.97656L66.1914 5.83203C66.2234 5.80007 66.2477 5.78418 66.2637 5.78418L66.3594 5.80859C66.3753 5.80859 66.3837 5.81625 66.3838 5.83203C66.3998 5.84803 66.4156 5.85645 66.4316 5.85645H66.4561C66.5198 5.85598 66.5677 5.75148 66.5996 5.54395L66.4561 5.4248C66.3922 5.44077 66.3595 5.48019 66.3594 5.54395L66.0713 5.44824C66.1192 5.28845 66.135 5.1848 66.1191 5.13672L66.0957 5.04004C66.0798 5.00808 66.0713 4.96781 66.0713 4.91992C66.0714 4.8561 66.1041 4.79984 66.168 4.75195C66.2317 4.70407 66.2637 4.65628 66.2637 4.6084L66.2158 4.39258C66.1678 4.28058 66.152 4.2162 66.168 4.2002C66.216 4.15211 66.288 4.05586 66.3838 3.91211H66.5039C66.5199 3.94409 66.5358 3.98426 66.5518 4.03223C66.5678 4.08023 66.592 4.1362 66.624 4.2002L66.7197 4.08008C66.8157 4.03215 66.9437 4.0088 67.1035 4.00879C67.1355 4.00879 67.184 4.04049 67.248 4.10449C67.3113 4.16773 67.3509 4.19962 67.3672 4.2002C67.4151 4.2002 67.4638 4.13656 67.5117 4.00879L67.6318 4.03223L67.9434 4.15234C67.9913 4.16834 68.0399 4.13657 68.0879 4.05664H68.1836C68.2475 4.12053 68.3036 4.15232 68.3516 4.15234L68.6875 4.03223C68.7355 4.09623 68.7598 4.16061 68.7598 4.22461C68.7438 4.28861 68.7195 4.38483 68.6875 4.5127C68.6555 4.62465 68.5994 4.76852 68.5195 4.94434C68.4555 5.10433 68.3436 5.21627 68.1836 5.28027C68.2796 5.37627 68.3271 5.49662 68.3271 5.64062L68.1113 6.14453V6.24023C68.1113 6.27221 68.1039 6.31239 68.0879 6.36035C68.0559 6.39235 68.0158 6.45673 67.9678 6.55273C67.9837 6.6167 67.9912 6.70463 67.9912 6.81641V7.15234L67.7754 7.10449C67.7276 7.1046 67.6957 7.13641 67.6797 7.2002L67.7275 7.32031C67.7435 7.35231 67.752 7.37658 67.752 7.39258C67.7678 7.40849 67.7754 7.42452 67.7754 7.44043C67.7914 7.50443 67.7998 7.56882 67.7998 7.63281V7.84863L67.6797 8.1123L67.6318 8.47266C67.5838 8.61654 67.4951 8.71277 67.3672 8.76074C67.4311 8.82467 67.4638 8.88822 67.4639 8.95215C67.4639 8.98414 67.4554 9.02428 67.4395 9.07227C67.4395 9.10424 67.432 9.14443 67.416 9.19238C67.3681 9.24029 67.3354 9.28803 67.3193 9.33594C67.3033 9.3999 67.2875 9.48024 67.2715 9.57617C67.2555 9.67211 67.2312 9.8001 67.1992 9.95996L67.0801 10.1768C67.0641 10.2407 67.0472 10.3203 67.0312 10.416C67.0153 10.512 66.992 10.6324 66.96 10.7764C66.928 10.7923 66.8718 10.8008 66.792 10.8008C66.776 10.8008 66.7676 10.8325 66.7676 10.8965C66.7676 10.9604 66.7994 11.0324 66.8633 11.1123L66.792 11.208V11.3281C66.792 11.3761 66.7836 11.4405 66.7676 11.5205C66.7356 11.5366 66.6879 11.5926 66.624 11.6885L66.6719 12L66.6475 12.1201L66.5273 12.1445C66.4795 12.1448 66.4561 12.2007 66.4561 12.3125V12.5527L66.2881 13.0322V13.248L66.1914 13.5127L66.1436 13.8242L66 13.9688L65.9033 14.1602C65.8872 14.1443 65.8469 14.1367 65.7832 14.1367L65.7354 14.1846C65.7194 14.1848 65.7034 14.2006 65.6875 14.2324L65.832 14.3047C65.9277 14.3526 65.9756 14.3929 65.9756 14.4248L65.9033 14.5928C65.8873 14.6568 65.864 14.7691 65.832 14.9287L65.8555 15.0488C65.8235 15.1606 65.7758 15.2645 65.7119 15.3604C65.6479 15.3763 65.5677 15.4323 65.4717 15.5283C65.5197 15.6403 65.5439 15.7523 65.5439 15.8643C65.5439 15.9923 65.4954 16.1042 65.3994 16.2002L65.0635 16.5361L64.9912 17.1367C64.9113 17.2006 64.8233 17.2642 64.7275 17.3281C64.6316 17.4081 64.5195 17.48 64.3916 17.5439L63.9834 17.6406C63.9675 17.6566 63.9514 17.6802 63.9355 17.7119C63.9195 17.7439 63.8953 17.7766 63.8633 17.8086H63.7432C63.6953 17.8085 63.6475 17.8001 63.5996 17.7842L63.0479 17.8086H62.9277C62.8798 17.8246 62.8237 17.8405 62.7598 17.8564L62.5674 17.9043C62.5352 17.9042 62.4548 17.8799 62.3271 17.832L62.0879 17.7607C62.0879 17.7607 62.0795 17.7607 62.0635 17.7607C62.0475 17.7767 62.023 17.7927 61.9912 17.8086C61.9273 17.8404 61.8552 17.848 61.7754 17.832C61.7272 17.8318 61.5993 17.7759 61.3916 17.6641C61.4075 17.6321 61.4235 17.5843 61.4395 17.5205C61.4554 17.4725 61.4797 17.4165 61.5117 17.3525L61.584 17.2568V16.7285C61.616 16.6486 61.6636 16.6084 61.7275 16.6084L61.7998 16.6562H61.8955C61.8636 16.6243 61.8477 16.5605 61.8477 16.4648L61.6553 16.3682C61.6075 16.3516 61.584 16.2153 61.584 15.96C61.584 15.5765 61.6636 15.3926 61.8232 15.4082L62.0635 15.4805H62.208L62.3516 15.4561C62.4316 15.4561 62.4959 15.4803 62.5439 15.5283C62.5759 15.5602 62.6077 15.5762 62.6396 15.5762C62.7515 15.5762 62.8553 15.5284 62.9512 15.4326C63.047 15.3528 63.1275 15.2807 63.1914 15.2168C63.2554 15.1688 63.2955 15.1361 63.3115 15.1201C63.3435 15.0882 63.3837 15.0648 63.4316 15.0488C63.4956 15.0488 63.56 15.0404 63.624 15.0244V14.832C63.6081 14.8 63.5996 14.7599 63.5996 14.7119C63.5995 14.6799 63.5911 14.6321 63.5752 14.5684C63.5752 14.5204 63.5995 14.4643 63.6475 14.4004C63.6794 14.4164 63.7112 14.4407 63.7432 14.4727C63.7751 14.5046 63.8154 14.5364 63.8633 14.5684C63.8793 14.5684 63.9196 14.5365 63.9834 14.4727H63.96V14.4248C63.976 14.4088 63.9834 14.392 63.9834 14.376C63.9832 14.328 63.9515 14.2559 63.8877 14.1602C63.8717 14.1602 63.8474 14.2003 63.8154 14.2803H63.6953C63.7273 14.1043 63.76 13.9839 63.792 13.9199V13.8721L63.624 13.8008C63.592 13.7208 63.5678 13.6163 63.5518 13.4883L63.5273 13.2246C63.5273 13.1447 63.5994 13.0484 63.7432 12.9365C63.7272 12.8725 63.6955 12.8408 63.6475 12.8408C63.5995 12.8409 63.5593 12.8567 63.5273 12.8887C63.4793 12.8407 63.4561 12.7203 63.4561 12.5283C63.4561 12.4487 63.4475 12.401 63.4316 12.3848C63.3955 12.3005 63.3686 12.2474 63.3506 12.2266L63.3359 12.2168L63.4072 12.0244C63.4552 11.9445 63.4794 11.8885 63.4795 11.8564C63.4795 11.8085 63.4076 11.7842 63.2637 11.7842L63.2881 11.6641C63.2241 11.5041 63.1755 11.352 63.1436 11.208C63.1117 11.0643 63.1032 10.9285 63.1191 10.8008L63.2393 10.6084C63.2235 10.5922 63.2318 10.5361 63.2637 10.4404L63.2881 10.2959C63.2719 10.2481 63.2074 10.2246 63.0957 10.2246L62.9512 9.57617C63.0312 9.54417 63.104 9.49662 63.168 9.43262C63.168 9.40062 63.1353 9.3605 63.0713 9.3125L62.9033 9.2168V9.14453C62.9033 9.11253 62.9117 9.064 62.9277 9C62.9436 8.96801 62.9512 8.92018 62.9512 8.85645C62.9512 8.80845 62.9437 8.74406 62.9277 8.66406C62.9117 8.58412 62.88 8.48785 62.832 8.37598L62.7354 8.1123L62.8076 7.84863H62.832C62.9279 7.84872 63.0158 7.88043 63.0957 7.94434C63.1276 7.94428 63.152 7.91246 63.168 7.84863C63.168 7.76871 63.1277 7.72859 63.0479 7.72852L62.9756 7.75195C62.7196 7.73592 62.5918 7.51204 62.5918 7.08008C62.5918 6.96824 62.6077 6.89623 62.6396 6.86426C62.7196 6.78431 62.7756 6.74415 62.8076 6.74414C62.7916 6.72814 62.7598 6.7038 62.7119 6.67188C62.6799 6.62392 62.6313 6.56782 62.5674 6.50391C62.5196 6.45597 62.4961 6.39224 62.4961 6.3125C62.4801 6.21651 62.4801 6.06442 62.4961 5.85645C62.4642 5.79256 62.4398 5.75239 62.4238 5.73633C62.4558 5.67233 62.4717 5.57617 62.4717 5.44824C62.5036 5.41626 62.5121 5.37608 62.4961 5.32812C62.2721 5.00812 62.176 4.78425 62.208 4.65625L62.2314 4.53613C62.2633 4.47233 62.2792 4.42456 62.2793 4.39258C62.1353 4.21659 62.0635 4.07195 62.0635 3.95996C62.0637 3.92784 62.088 3.8641 62.1357 3.76855L62.3271 3.79199C62.359 3.79199 62.3834 3.78442 62.3994 3.76855C62.4154 3.75255 62.4397 3.74414 62.4717 3.74414C62.4717 3.74414 62.5036 3.76011 62.5674 3.79199ZM63.9355 16.5127C63.9036 16.5127 63.8718 16.5286 63.8398 16.5605C63.824 16.5605 63.8156 16.5682 63.8154 16.584C63.8474 16.696 63.9118 16.8248 64.0078 16.9688L64.1279 16.8486C64.1759 16.8166 64.2319 16.7765 64.2959 16.7285C64.2959 16.6967 64.2798 16.6647 64.248 16.6328H64.1279C64.1279 16.6328 64.0953 16.616 64.0312 16.584C63.9835 16.5362 63.9515 16.5127 63.9355 16.5127ZM14 16.5684H4L6 12.5684H16L14 16.5684ZM24.5039 0.120117C24.5039 0.168118 24.5123 0.208234 24.5283 0.240234L24.9121 0.0488281C24.9602 0.0489383 25.0806 0.120759 25.2725 0.264648C25.3042 0.312875 25.3044 0.425088 25.2725 0.600586L25.3438 0.576172L25.3682 0.480469C25.4001 0.464469 25.4319 0.440175 25.4639 0.408203C25.4958 0.376224 25.536 0.34448 25.584 0.3125C25.584 0.2805 25.6083 0.231969 25.6562 0.167969C25.6723 0.183969 25.6881 0.200797 25.7041 0.216797C25.7359 0.232758 25.768 0.256289 25.7998 0.288086C25.8638 0.352086 25.9123 0.384766 25.9443 0.384766C25.9763 0.352788 26.024 0.3285 26.0879 0.3125H26.1357C26.2797 0.3125 26.4402 0.368468 26.6162 0.480469L26.9277 0.720703L26.9521 0.84082C26.9202 0.84082 26.88 0.864203 26.832 0.912109C26.88 0.992068 26.9519 1.03219 27.0479 1.03223V1.12793C27.0798 1.14392 27.1359 1.13643 27.2158 1.10449C27.2478 1.20045 27.3281 1.24805 27.4561 1.24805C27.488 1.24809 27.5282 1.28825 27.5762 1.36816C27.5602 1.41612 27.5602 1.4722 27.5762 1.53613C27.7514 1.85478 27.8391 1.99914 27.8398 1.96875V1.99219C27.8398 2.04019 27.8081 2.12884 27.7441 2.25684C27.6642 2.44861 27.624 2.55237 27.624 2.56836C27.624 2.63236 27.7201 2.67991 27.9121 2.71191C28.0881 2.74391 28.1683 2.7766 28.1523 2.80859L28.2725 2.97656C28.2565 2.99255 28.2481 3.02432 28.248 3.07227C28.248 3.12022 28.264 3.19222 28.2959 3.28809C28.3599 3.43209 28.3916 3.53659 28.3916 3.60059C28.3597 3.63252 28.3203 3.67289 28.2725 3.7207C28.2245 3.7527 28.1675 3.79282 28.1035 3.84082C28.0714 3.85673 28.0151 3.87277 27.9355 3.88867C27.8716 3.90461 27.7759 3.92058 27.6484 3.93652L27.1201 4.00879C27.0881 4.02478 27.048 4.04065 27 4.05664C26.9521 4.07259 26.9043 4.08854 26.8564 4.10449L26.5684 4.00879C26.4724 4.04079 26.3996 4.12846 26.3516 4.27246C26.2876 4.43217 26.2241 4.51257 26.1602 4.5127C26.1442 4.5127 26.1199 4.47248 26.0879 4.39258C26.0401 4.31289 26.0082 4.27277 25.9922 4.27246C25.9762 4.27246 25.9445 4.29677 25.8965 4.34473L25.752 4.36816L25.7041 4.2002C25.7041 4.13626 25.7284 4.08019 25.7764 4.03223C25.8083 3.96837 25.8242 3.92809 25.8242 3.91211L25.7041 3.76855C25.7681 3.72056 25.8241 3.62443 25.8721 3.48047C25.7761 3.48047 25.6557 3.4562 25.5117 3.4082C25.5117 3.37623 25.5043 3.33601 25.4883 3.28809C25.4723 3.22424 25.4479 3.16053 25.416 3.09668L25.3203 2.83203C25.2403 2.72006 25.0798 2.63235 24.8398 2.56836L24.624 2.59277C24.592 2.59277 24.5519 2.60021 24.5039 2.61621C24.472 2.61623 24.4242 2.62469 24.3604 2.64062C24.3124 2.64062 24.2479 2.56859 24.168 2.4248C24.136 2.42483 24.1201 2.45653 24.1201 2.52051L24.2402 2.76074C24.0643 2.90471 23.9196 2.96815 23.8076 2.95215V3.3125C23.7758 3.34433 23.7523 3.37638 23.7363 3.4082V3.52832C23.7523 3.5763 23.7682 3.63233 23.7842 3.69629C23.8162 3.84029 23.8236 3.93637 23.8076 3.98438C23.8076 4.00032 23.8001 4.01628 23.7842 4.03223C23.7522 4.06422 23.7363 4.10435 23.7363 4.15234C23.7363 4.18431 23.7597 4.22452 23.8076 4.27246C23.8396 4.33646 23.8564 4.36816 23.8564 4.36816C23.8564 4.38416 23.8004 4.44864 23.6885 4.56055C23.5773 4.67168 23.5204 4.73534 23.5195 4.75195C23.5355 5.0559 23.656 5.20795 23.8799 5.20801H24.0957C24.1437 5.19201 24.1922 5.18457 24.2402 5.18457C24.304 5.18459 24.3679 5.1921 24.4316 5.20801C24.4956 5.20801 24.56 5.21642 24.624 5.23242V5.47266C24.6242 5.56856 24.7281 5.70427 24.9355 5.87988C24.9675 5.87988 25.0078 5.88837 25.0557 5.9043C25.1197 5.9043 25.184 5.91271 25.248 5.92871L25.3203 6.07227C25.3523 6.08837 25.4085 6.13697 25.4883 6.2168L25.584 6.4082C25.6159 6.45605 25.6478 6.48031 25.6797 6.48047C25.8075 6.4645 25.8878 6.44859 25.9199 6.43262C25.9676 6.84568 25.9995 7.05389 26.0156 7.05664L26.2803 6.74414H26.3516L26.4482 7.00879C26.4625 7.02302 26.4703 7.03083 26.4717 7.03223H26.4961L26.6396 6.98438C26.7036 7.00037 26.7279 7.08061 26.7119 7.22461L26.9521 7.34473C26.9684 7.34514 27.0245 7.40861 27.1201 7.53613C27.2639 7.53616 27.3676 7.59236 27.4316 7.7041C27.4476 7.7361 27.4645 7.77622 27.4805 7.82422C27.4965 7.85622 27.5198 7.9048 27.5518 7.96875L27.7441 8.06445V8.18457C27.7442 8.23246 27.7517 8.2963 27.7676 8.37598C27.7676 8.45597 27.7844 8.51194 27.8164 8.54395C27.833 8.54297 27.8892 8.487 27.9844 8.37598C28.0642 8.39211 28.1204 8.47243 28.1523 8.61621C28.1843 8.74414 28.2319 8.80853 28.2959 8.80859C28.3279 8.80859 28.3522 8.80018 28.3682 8.78418C28.3841 8.83213 28.3916 8.88824 28.3916 8.95215V9.12012C28.3916 9.16812 28.4243 9.21665 28.4883 9.26465C28.5521 9.29651 28.6083 9.30406 28.6562 9.28809L28.752 9.60059C28.7838 9.68049 28.7596 9.73658 28.6797 9.76855C28.7117 9.80055 28.7444 9.80799 28.7764 9.79199L28.752 9.91211L28.8721 10.1045L28.8965 10.2959C28.9444 10.3438 28.9762 10.3841 28.9922 10.416C29.0562 10.496 29.0963 10.7602 29.1123 11.208C29.0963 11.256 29.0879 11.3522 29.0879 11.4961L28.9922 11.6406C29.0241 11.7047 29.0485 11.8244 29.0645 12L28.9678 12.0967C28.9676 12.1929 28.8799 12.4572 28.7041 12.8887L28.6084 12.8164C28.5605 12.8324 28.5362 12.8802 28.5361 12.96C28.5361 13.1676 28.5277 13.2796 28.5117 13.2959L28.2725 13.4404C28.2884 13.5524 28.2885 13.6327 28.2725 13.6807L27.8877 13.9922L27.792 14.1367C27.6801 14.2166 27.5679 14.2961 27.4561 14.376C27.3601 14.44 27.2556 14.4885 27.1436 14.5205C27.1274 14.5207 27.0954 14.5281 27.0479 14.5439C27.0159 14.544 26.9681 14.5524 26.9043 14.5684C26.8403 14.6483 26.7283 14.7445 26.5684 14.8564L26.3281 14.7842L26.1836 14.8564C26.1514 14.8882 26.0558 14.9043 25.8965 14.9043H25.5117L25.3203 14.9521C25.2723 14.9681 25.2079 14.984 25.1279 15C25.0002 15 24.8963 14.9765 24.8164 14.9287C24.7524 14.8807 24.6638 14.8564 24.5518 14.8564L24.5283 14.8799C24.5283 14.8799 24.5122 14.8799 24.4805 14.8799C24.4645 14.8959 24.4075 14.88 24.3115 14.832L24.1201 14.7607L24.0957 14.7842C24.0957 14.7978 24.0898 14.8037 24.0781 14.8057C24.0874 14.7977 24.022 14.7595 23.8799 14.6885C23.7999 14.6884 23.7037 14.6567 23.5918 14.5928L23.2559 14.3047C23.2239 14.2887 23.1761 14.2728 23.1123 14.2568C23.0644 14.2409 23.0082 14.224 22.9443 14.208C22.8643 14.16 22.7598 14.0882 22.6318 13.9922C22.5199 13.8963 22.4003 13.7682 22.2725 13.6084L22.248 13.4404L22.1279 13.2725L22.0801 12.9365C22.0641 12.8726 22.0322 12.8005 21.9844 12.7207C21.9524 12.6247 21.9197 12.5202 21.8877 12.4082C21.8398 12.392 21.776 12.3283 21.6963 12.2168C21.6004 11.9932 21.5519 11.8408 21.5518 11.7607C21.5518 11.7448 21.5678 11.7203 21.5996 11.6885C21.6315 11.6406 21.6559 11.6163 21.6719 11.6162C21.6398 11.5682 21.5595 11.5047 21.4316 11.4248L21.4082 11.1602C21.5201 11.0803 21.592 11.04 21.624 11.04H21.792C21.84 11.024 21.896 11.0082 21.96 10.9922C22.0239 10.9762 22.0959 10.9603 22.1758 10.9443C22.2558 10.9123 22.3202 10.9366 22.3682 11.0166C22.3842 11.0803 22.432 11.1122 22.5117 11.1123C22.5277 11.1123 22.5679 11.0563 22.6318 10.9443L22.8477 10.6562C23.0877 10.7362 23.2323 10.768 23.2803 10.752L23.6641 10.4883H23.9043V10.752L24.1201 10.8486L24.0723 11.208C24.0723 11.2399 24.0958 11.2803 24.1436 11.3281C24.1916 11.3761 24.2158 11.4088 24.2158 11.4248C24.2316 11.4409 24.2241 11.4804 24.1924 11.5439L24.1201 11.6641C24.1521 11.792 24.2241 11.904 24.3359 12C24.3679 12 24.4323 12.0168 24.5283 12.0488C24.5284 12.1126 24.5517 12.1689 24.5996 12.2168C24.6636 12.2648 24.728 12.2722 24.792 12.2402C24.792 12.2402 24.8079 12.3123 24.8398 12.4561C24.8717 12.5357 24.9037 12.5758 24.9355 12.5762C24.9355 12.5762 24.9682 12.5603 25.0322 12.5283C25.0642 12.4964 25.096 12.4805 25.1279 12.4805L25.248 12.5039C25.28 12.5039 25.3043 12.5123 25.3203 12.5283C25.3363 12.5442 25.3522 12.5527 25.3682 12.5527C25.3842 12.5526 25.4161 12.5282 25.4639 12.4805C25.5278 12.4485 25.568 12.4326 25.584 12.4326C25.6 12.4166 25.656 12.4241 25.752 12.4561L25.8965 12.5039C25.901 12.5016 25.9331 12.4856 25.9922 12.4561L26.0645 12.4326L26.208 12.4805C26.2399 12.4486 26.2557 12.4166 26.2559 12.3848C26.2559 12.2568 26.2801 12.0879 26.3281 11.8799L26.5439 11.8564C26.6238 11.8564 26.6724 11.8246 26.6885 11.7607C26.6725 11.7448 26.6481 11.7204 26.6162 11.6885C26.5842 11.6565 26.5515 11.6248 26.5195 11.5928C26.5035 11.5288 26.4877 11.4644 26.4717 11.4004C26.4557 11.3204 26.4398 11.2401 26.4238 11.1602C26.4239 11.1122 26.4482 11.0645 26.4961 11.0166C26.5441 11.0006 26.5842 10.9763 26.6162 10.9443C26.6162 10.9443 26.5835 10.9527 26.5195 10.9688C26.4398 10.9684 26.376 10.8881 26.3281 10.7285L26.2324 10.4404C26.1845 10.4085 26.1443 10.3683 26.1123 10.3203C26.0483 10.2563 26.0156 10.1919 26.0156 10.1279C26.0157 10.0962 26.0242 10.0726 26.04 10.0566C26.0241 10.0247 25.9763 10.0248 25.8965 10.0566L25.7764 9.7207C25.7604 9.7207 25.752 9.72829 25.752 9.74414C25.72 9.77614 25.6957 9.79199 25.6797 9.79199C25.6636 9.77622 25.6316 9.76855 25.584 9.76855L25.5361 9.55273L25.3682 9.48047L25.0801 9.2168C25.0641 9.18488 25.0322 9.16053 24.9844 9.14453C24.9524 9.12853 24.9038 9.10427 24.8398 9.07227L24.8164 8.87988C24.8004 8.84806 24.776 8.82456 24.7441 8.80859C24.7121 8.77659 24.6804 8.74391 24.6484 8.71191H24.5283C24.5123 8.7279 24.4721 8.73631 24.4082 8.73633C24.3922 8.75233 24.3521 8.71221 24.2881 8.61621C24.2562 8.55248 24.2243 8.50464 24.1924 8.47266C24.1604 8.42466 24.1277 8.39198 24.0957 8.37598L23.7119 8.13672L23.5195 8.06445L23.4961 7.84863L23.0879 7.63281L22.9922 7.46484C22.9602 7.38484 22.8958 7.34473 22.7998 7.34473H22.7764C22.7284 7.29673 22.7041 7.2482 22.7041 7.2002C22.4801 6.83224 22.3597 6.64844 22.3438 6.64844L22.2002 6.69629H22.1758C22.0959 6.69619 22.0482 6.64022 22.0322 6.52832L21.96 6.24023C21.8 6.2402 21.6964 6.05633 21.6484 5.68848L21.4316 5.59277C21.4157 5.48085 21.3998 5.40055 21.3838 5.35254V5.30469C21.3998 5.16069 21.4156 5.10472 21.4316 5.13672C21.4157 5.05679 21.368 5.00076 21.2881 4.96875C21.2401 4.96875 21.2 4.94444 21.168 4.89648C21.152 4.72057 21.152 4.55251 21.168 4.39258C21.184 4.21658 21.1998 4.04026 21.2158 3.86426C21.2158 3.81627 21.1999 3.74434 21.168 3.64844L21.0957 3.48047L21.168 3.38477V3.28809C21.168 3.12828 21.1998 2.95246 21.2637 2.76074H21.3604C21.4083 2.74472 21.4485 2.712 21.4805 2.66406L21.3359 2.35254L21.6484 1.75195C21.7763 1.52832 21.88 1.41605 21.96 1.41602L22.1035 1.44043C22.1195 1.44043 22.1363 1.43202 22.1523 1.41602C22.1521 1.39947 22.1353 1.33577 22.1035 1.22461H22.248L22.3916 1.03223C22.4236 1.00023 22.5122 0.968523 22.6562 0.936523L22.752 0.671875H22.8477C22.8637 0.687876 22.8805 0.704703 22.8965 0.720703C22.9123 0.736675 22.9285 0.760346 22.9443 0.791992C23.0562 0.743893 23.1525 0.631836 23.2324 0.456055L23.4482 0.288086H23.4717C23.5036 0.288086 23.5439 0.280588 23.5918 0.264648L23.7119 0.288086C23.7599 0.304086 23.8 0.3125 23.832 0.3125C23.88 0.312476 23.9603 0.256507 24.0723 0.144531C24.2002 0.0485742 24.2721 0 24.2881 0L24.5039 0.120117ZM30.8418 0.936523C30.9058 0.952523 30.9543 0.976789 30.9863 1.00879C31.0179 1.04033 31.0417 1.05647 31.0576 1.05664L31.1299 1.03223H31.6582C31.77 1.03224 31.8579 1.04066 31.9219 1.05664H32.1143L32.2822 1.00879C32.3781 0.97683 32.4258 0.959961 32.4258 0.959961C32.5377 0.959961 32.5937 1.0403 32.5938 1.2002C32.5938 1.2482 32.5863 1.31258 32.5703 1.39258C32.5703 1.45654 32.5619 1.53692 32.5459 1.63281L32.4502 1.6084C32.3862 1.6084 32.3059 1.64018 32.21 1.7041C32.066 1.7841 32.01 1.8886 32.042 2.0166C32.0739 2.04848 32.0898 2.06445 32.0898 2.06445C32.1058 2.06445 32.1376 2.04014 32.1855 1.99219C32.2493 1.96033 32.2895 1.94447 32.3057 1.94434C32.3857 1.94434 32.4659 2.00872 32.5459 2.13672C32.6098 2.24856 32.6416 2.32057 32.6416 2.35254C32.6415 2.38451 32.6257 2.42475 32.5938 2.47266C32.5779 2.50437 32.5618 2.52799 32.5459 2.54395C32.5299 2.81573 32.514 3.00808 32.498 3.12012V3.19238C32.3862 3.20835 32.3303 3.25619 32.3301 3.33594C32.3301 3.41584 32.3779 3.47189 32.4736 3.50391V3.64844C32.4737 3.74444 32.5138 3.91244 32.5938 4.15234C32.6097 4.18431 32.6659 4.23201 32.7617 4.2959H32.834V4.12793C32.8501 4.06431 32.8979 4.03232 32.9775 4.03223C33.2528 3.99094 33.3925 3.96769 33.3955 3.96191L33.5059 3.98438C33.5537 4.00032 33.6016 4.00874 33.6494 4.00879L33.8896 4.17676C33.8737 4.24055 33.8662 4.30437 33.8662 4.36816V4.56055C33.9936 4.68792 34.0572 4.74395 34.0576 4.72852C34.0575 4.77648 34.0258 4.83255 33.9619 4.89648C33.9779 4.91244 33.9938 4.92839 34.0098 4.94434C33.9778 4.9604 33.9535 5.02481 33.9375 5.13672L33.9619 5.20801C33.9779 5.24001 33.9863 5.27269 33.9863 5.30469C33.9863 5.43258 33.9779 5.56059 33.9619 5.68848C33.9619 5.80032 33.9535 5.90411 33.9375 6C33.9135 6.07208 33.8809 6.11778 33.8389 6.13574L33.7939 6.14453C33.7939 6.12854 33.7219 6.09676 33.5781 6.04883C33.5142 6.03284 33.3861 6.02443 33.1943 6.02441C33.1143 6.02441 32.9539 6.04868 32.7139 6.09668L32.6182 6.16797C32.5542 6.19997 32.5215 6.2168 32.5215 6.2168L32.498 6.43262C32.482 6.59246 32.4578 6.67188 32.4258 6.67188C32.5217 6.8957 32.5702 7.10403 32.5703 7.2959C32.5543 7.2959 32.5141 7.39227 32.4502 7.58398C32.4661 7.55321 32.4736 7.64158 32.4736 7.84863L32.4258 7.96875C32.3945 8.06246 32.3786 8.11031 32.3779 8.1123L32.4502 8.40039C32.4821 8.48027 32.498 8.55228 32.498 8.61621V8.71191C32.498 8.71191 32.4661 8.75232 32.4023 8.83203C32.3864 8.83203 32.3779 8.87229 32.3779 8.95215C32.3779 9.04815 32.418 9.11253 32.498 9.14453V9.93652C32.4979 9.95252 32.4821 9.9769 32.4502 10.0088C32.4186 10.0721 32.4026 10.1117 32.4023 10.1279C32.3864 10.2398 32.3864 10.3361 32.4023 10.416C32.4343 10.544 32.4576 10.6 32.4736 10.584C32.4256 10.632 32.3855 10.6805 32.3535 10.7285C32.3855 10.7605 32.4256 10.8725 32.4736 11.0645C32.2818 11.1764 32.1855 11.2726 32.1855 11.3525C32.1855 11.3205 32.2499 11.4166 32.3779 11.6406C32.3788 11.6472 32.3946 11.7752 32.4258 12.0244L32.4736 12.0967V12.3125C32.4736 12.3765 32.4821 12.4568 32.498 12.5527C32.504 12.5567 32.6002 12.6202 32.7861 12.7441C32.7861 12.8081 32.8263 12.8641 32.9062 12.9121H32.9541C32.9861 12.912 33.0423 12.8803 33.1221 12.8164C33.186 12.7525 33.2421 12.7207 33.29 12.7207C33.2932 12.7223 33.3251 12.7383 33.3857 12.7686C33.4177 12.8005 33.442 12.8164 33.458 12.8164C33.49 12.8164 33.5378 12.8004 33.6016 12.7686C33.6336 12.7366 33.6662 12.7123 33.6982 12.6963C33.7302 12.6644 33.7705 12.6325 33.8184 12.6006L33.9141 12.6719V13.6807C33.914 13.6966 33.9055 13.7126 33.8896 13.7285C33.8578 13.7604 33.8418 13.7848 33.8418 13.8008V14.04C33.8099 14.072 33.778 14.0963 33.7461 14.1123C33.7621 14.2241 33.7939 14.312 33.8418 14.376C33.8898 14.424 33.9141 14.4968 33.9141 14.5928C33.9139 14.7525 33.8253 14.832 33.6494 14.832H33.5781C33.5622 14.832 33.5462 14.8244 33.5303 14.8086C33.5303 14.8086 33.5219 14.8086 33.5059 14.8086L33.2422 14.8799C33.1622 14.8959 33.0978 14.9043 33.0498 14.9043C33.0178 14.9203 32.9935 14.9287 32.9775 14.9287L32.5703 14.9043C32.4423 14.8883 32.3378 14.8799 32.2578 14.8799H32.1377C31.8981 14.8799 31.7542 14.8724 31.7061 14.8564L31.2979 14.6406C31.2659 14.6246 31.2257 14.6088 31.1777 14.5928C31.1297 14.5768 31.0738 14.5599 31.0098 14.5439C30.914 14.496 30.8663 14.4164 30.8662 14.3047C30.8342 14.2887 30.8015 14.2803 30.7695 14.2803C30.7376 14.2644 30.7057 14.2568 30.6738 14.2568C30.6738 14.1131 30.6419 14.0168 30.5781 13.9688L30.4102 13.8965C30.3782 13.8645 30.338 13.7765 30.29 13.6328L30.1943 13.3926V13.3203C30.1943 13.2883 30.1859 13.2482 30.1699 13.2002C30.1699 13.1364 30.1614 13.0726 30.1455 13.0088V12.6719C30.1615 12.5761 30.1784 12.4965 30.1943 12.4326C30.1303 12.4006 30.0818 12.3521 30.0498 12.2881C30.034 12.256 30.0424 12.1923 30.0742 12.0967L30.0977 11.8799C30.1136 11.8 30.1221 11.728 30.1221 11.6641C30.1221 11.6003 30.1296 11.5364 30.1455 11.4727C30.1455 11.3927 30.1698 11.2965 30.2178 11.1846C30.2815 11.073 30.3132 11.0009 30.3135 10.9688C30.3135 10.9527 30.2976 10.9285 30.2656 10.8965C30.235 10.8659 30.2191 10.8499 30.2178 10.8486C30.2178 10.8168 30.2102 10.7924 30.1943 10.7764V10.7285C30.1943 10.6326 30.2177 10.5364 30.2656 10.4404C30.2016 10.3284 30.1699 10.1922 30.1699 10.0322C30.1699 9.90428 30.2101 9.78384 30.29 9.67188C30.2421 9.60799 30.2019 9.54436 30.1699 9.48047V8.85645C30.1699 8.85645 30.1539 8.82449 30.1221 8.76074C30.0901 8.72874 30.0742 8.69606 30.0742 8.66406C30.0746 8.61565 30.1624 8.43993 30.3379 8.13672C30.2099 8.05672 30.1455 8.00819 30.1455 7.99219L30.2656 7.56055C30.2656 7.52855 30.2582 7.48002 30.2422 7.41602V7.2002L30.2178 6.81641C30.2018 6.64062 30.2018 6.49671 30.2178 6.38477C30.2338 6.27277 30.2338 6.18412 30.2178 6.12012C30.1698 6.04027 30.1137 6 30.0498 6V5.87988L30.2656 5.78418C30.2656 5.75227 30.2582 5.72788 30.2422 5.71191H29.834V5.78418C29.834 5.84811 29.8658 5.90419 29.9297 5.95215C29.9936 6.0001 30.0253 6.04028 30.0254 6.07227L29.7383 6.04883C29.6745 6.03288 29.6182 6.02446 29.5703 6.02441H29.498L29.3535 6.07227C29.2608 6.10317 29.213 6.11912 29.21 6.12012C29.146 6.12012 29.0499 6.08841 28.9219 6.02441C28.9059 5.99241 28.9059 5.94388 28.9219 5.87988L28.9697 5.73633C28.9538 5.68849 28.9463 5.64061 28.9463 5.59277V5.47266C28.9783 5.37666 29.0343 5.32069 29.1143 5.30469C29.0503 5.24069 29.0101 5.1763 28.9941 5.1123V4.87207L28.9697 4.75195C29.0016 4.60823 29.0101 4.52029 28.9941 4.48828L28.9219 4.36816C28.8899 4.30425 28.874 4.26403 28.874 4.24805L28.9697 4.03223C28.9857 4.01623 29.01 4.00879 29.042 4.00879C29.074 4.00877 29.1142 4.00036 29.1621 3.98438C29.2099 3.96839 29.2418 3.93644 29.2578 3.88867H29.3057L29.5459 3.95996L29.8574 4.05664C29.8734 4.07261 29.8903 4.09603 29.9062 4.12793C29.9222 4.15988 29.9381 4.20014 29.9541 4.24805C30.0179 4.20014 30.0817 4.13635 30.1455 4.05664C30.2095 3.97667 30.2739 3.88049 30.3379 3.76855C30.4338 3.70462 30.442 3.65602 30.3623 3.62402C30.3143 3.59204 30.2901 3.54441 30.29 3.48047L30.3135 2.71191C30.2336 2.42419 30.1943 2.22424 30.1943 2.1123L30.2656 1.91992L30.3135 1.72852C30.3135 1.68059 30.29 1.64037 30.2422 1.6084C30.1942 1.5764 30.1699 1.51202 30.1699 1.41602L30.2178 1.17676C30.2497 1.1608 30.2816 1.13636 30.3135 1.10449C30.3455 1.07249 30.394 1.03238 30.458 0.984375C30.554 0.888414 30.61 0.84082 30.626 0.84082L30.8418 0.936523ZM44.3174 3.86426L44.3896 3.84082H44.4619C44.7017 3.84088 44.8773 3.89685 44.9893 4.00879L44.9658 4.12793H45.0137C45.0298 4.12763 45.0777 4.08826 45.1572 4.00879C45.2212 3.94479 45.2856 3.91211 45.3496 3.91211C45.4456 3.91213 45.5259 3.93639 45.5898 3.98438C45.6695 4.03217 45.7173 4.05654 45.7334 4.05664L45.9258 4.00879C45.9897 3.99282 46.0299 3.98438 46.0459 3.98438H46.1172C46.1652 3.98438 46.2137 3.99279 46.2617 4.00879L46.3574 4.05664C46.3735 4.08868 46.4297 4.15236 46.5254 4.24805H46.5498C46.6458 4.24815 46.7981 4.29668 47.0059 4.39258C47.1176 4.47252 47.2056 4.59229 47.2695 4.75195L47.4854 5.18457C47.4854 5.31248 47.5097 5.48823 47.5576 5.71191C47.5896 5.74391 47.6297 5.79245 47.6777 5.85645C47.7257 5.90443 47.7818 5.96892 47.8457 6.04883C47.8456 6.06498 47.8371 6.09699 47.8213 6.14453C47.8213 6.1765 47.8138 6.21673 47.7979 6.26465C47.8457 6.31264 47.8861 6.39231 47.918 6.50391C47.9339 6.55184 47.9498 6.59205 47.9658 6.62402C47.9818 6.65602 47.9977 6.6887 48.0137 6.7207V6.84082L47.5811 7.00879C47.3413 7.07272 47.1329 7.12037 46.957 7.15234C46.7974 7.18426 46.6616 7.20017 46.5498 7.2002L46.4775 7.17676H46.4297C46.4297 7.16076 46.4213 7.15234 46.4053 7.15234C46.3733 7.15246 46.333 7.17672 46.2852 7.22461L46.1895 7.32031C46.0455 7.3683 45.9335 7.39258 45.8535 7.39258C45.7896 7.39258 45.7176 7.3205 45.6377 7.17676C45.5738 7.06489 45.5411 6.98454 45.541 6.93652C45.541 6.39267 45.5251 6.13613 45.4932 6.16797C45.3334 6.07218 45.2212 6.04872 45.1572 6.09668H45.1338L44.918 6C44.854 5.968 44.797 5.95215 44.749 5.95215C44.7174 5.93638 44.6937 5.92879 44.6777 5.92871L44.5576 5.95215C44.5096 5.96815 44.4695 5.97656 44.4375 5.97656H44.3418L44.2939 6.19238C44.2619 6.20838 44.1975 6.26437 44.1016 6.36035L44.0293 6.67188C44.1093 6.68788 44.1653 6.74482 44.1973 6.84082C44.2292 6.98456 44.2451 7.05664 44.2451 7.05664C44.2281 7.07264 44.1318 7.09615 43.957 7.12793C43.9252 7.12808 43.8932 7.14491 43.8613 7.17676C43.8777 7.2246 43.9899 7.26397 44.1973 7.2959C44.2452 7.34388 44.2779 7.42422 44.2939 7.53613L44.5576 7.58398C44.5576 7.64798 44.5893 7.72078 44.6533 7.80078C44.6693 7.80078 44.7094 7.81663 44.7734 7.84863C44.8054 7.91257 44.854 7.9761 44.918 8.04004C44.9978 8.04013 45.0699 8.0644 45.1338 8.1123C45.2136 8.19216 45.2538 8.26421 45.2539 8.32812H45.2051C45.1571 8.32826 45.0934 8.35258 45.0137 8.40039V8.49609C45.0457 8.52809 45.0858 8.56077 45.1338 8.59277C45.1977 8.60868 45.2698 8.60874 45.3496 8.59277L45.4219 8.56836H45.4932L45.5898 8.64062C45.6857 8.65658 45.7577 8.66406 45.8057 8.66406H45.9014C46.0293 8.69605 46.117 8.74463 46.165 8.80859C46.213 8.93654 46.2933 9.06443 46.4053 9.19238L46.6455 9.26465C46.7254 9.31265 46.7815 9.38452 46.8135 9.48047C47.0534 9.68845 47.1738 9.84053 47.1738 9.93652V9.98438L47.4619 10.2725V10.3926C47.4779 10.4405 47.4938 10.4967 47.5098 10.5605C47.5417 10.5765 47.5736 10.5924 47.6055 10.6084C47.6375 10.6244 47.6692 10.6487 47.7012 10.6807C47.7972 10.7926 47.8457 10.8803 47.8457 10.9443L47.7979 11.0645C47.7819 11.0965 47.765 11.1207 47.749 11.1367V11.1846C47.7492 11.2327 47.8061 11.3448 47.918 11.5205C47.918 11.5205 47.9011 11.5606 47.8691 11.6406L47.918 11.8564L47.9658 12.0244L47.8936 12.2646C47.9095 12.2968 47.9179 12.3765 47.918 12.5039C47.902 12.5199 47.8851 12.5367 47.8691 12.5527C47.8533 12.553 47.8372 12.5688 47.8213 12.6006L47.6299 13.2002V13.3447C47.6298 13.3926 47.6214 13.4489 47.6055 13.5127C47.5733 13.6404 47.4454 13.7041 47.2217 13.7041L47.0537 14.1123L46.6934 14.3525C46.6453 14.4006 46.5332 14.4884 46.3574 14.6162H46.165L45.7812 14.7842C45.2854 14.8802 45.0054 14.9287 44.9414 14.9287L44.7734 14.8799C44.6776 14.832 44.613 14.8086 44.5811 14.8086L44.4131 14.832H44.3418C44.3571 14.8319 44.3246 14.8245 44.2451 14.8086C44.165 14.8085 44.0127 14.7843 43.7891 14.7363C43.7252 14.6246 43.6616 14.5685 43.5977 14.5684L43.4775 14.5928H43.4297C43.4138 14.6086 43.3977 14.6161 43.3818 14.6162C43.3178 14.6162 43.245 14.5761 43.165 14.4961C43.1331 14.4642 43.0937 14.4238 43.0459 14.376C42.9979 14.312 42.9334 14.2485 42.8535 14.1846C42.5977 14.1206 42.4297 14.0085 42.3496 13.8486C42.3496 13.7526 42.3253 13.6967 42.2773 13.6807C42.2134 13.6646 42.1816 13.6161 42.1816 13.5361C42.1817 13.4402 42.2134 13.2963 42.2773 13.1045L41.918 12.96L41.7979 12.4805C41.7659 12.4005 41.7172 12.3127 41.6533 12.2168C41.6054 12.1049 41.5418 11.9844 41.4619 11.8564V11.7119C41.462 11.6162 41.4778 11.5525 41.5098 11.5205C41.5258 11.5046 41.5735 11.4961 41.6533 11.4961H41.7256C41.7415 11.4961 41.749 11.5045 41.749 11.5205H41.7734L41.8936 11.4482C41.9097 11.4323 41.9741 11.4248 42.0859 11.4248L42.1816 11.4482C42.1975 11.4483 42.2051 11.4567 42.2051 11.4727H42.2539L42.541 11.376L42.6133 11.3047C42.6773 11.2727 42.7575 11.2484 42.8535 11.2324C42.9495 11.2164 43.0774 11.2006 43.2373 11.1846L43.3096 11.208C43.2936 11.208 43.2852 11.2642 43.2852 11.376C43.2852 11.456 43.3337 11.4961 43.4297 11.4961C43.4462 11.4953 43.534 11.3992 43.6934 11.208C43.7254 11.304 43.7412 11.4645 43.7412 11.6885C43.7412 11.8004 43.7739 11.8807 43.8379 11.9287C43.8856 12.0084 43.9016 12.0883 43.8857 12.168C43.8857 12.2 43.9016 12.2168 43.9336 12.2168C43.8056 12.2168 43.7412 12.2485 43.7412 12.3125C43.7413 12.4243 43.7974 12.4804 43.9092 12.4805C43.9412 12.4805 43.9971 12.4161 44.0771 12.2881C44.0931 12.3201 44.1417 12.4087 44.2217 12.5527C44.27 12.6008 44.4381 12.6971 44.7256 12.8408C44.8536 12.8888 45.0216 12.9121 45.2295 12.9121C45.2934 12.9121 45.3654 12.8485 45.4453 12.7207C45.5573 12.7207 45.6618 12.6405 45.7578 12.4805C45.742 12.4963 45.7258 12.5038 45.71 12.5039C45.7098 12.4882 45.7014 12.4805 45.6855 12.4805V12.4326C45.6855 12.3846 45.694 12.3361 45.71 12.2881C45.7418 12.2243 45.7653 12.1604 45.7812 12.0967C45.7492 12.0647 45.7091 12.0161 45.6611 11.9521C45.6292 11.8722 45.589 11.7844 45.541 11.6885C45.621 11.6085 45.6051 11.5208 45.4932 11.4248L45.2539 11.2568L45.3018 10.9922C45.2538 10.9122 45.0615 10.8488 44.7256 10.8008L44.6299 10.6084C44.55 10.5285 44.4377 10.4406 44.2939 10.3447C44.2459 10.3447 44.1731 10.3205 44.0771 10.2725L44.0293 10.2246C44.0133 10.1926 43.989 10.1683 43.957 10.1523C43.9408 10.1365 43.8931 10.1279 43.8135 10.1279C43.7655 10.0959 43.6935 10.0239 43.5977 9.91211L43.5732 9.7207C43.5252 9.72065 43.4373 9.70382 43.3096 9.67188C43.1816 9.62388 43.0855 9.56789 43.0215 9.50391L42.8535 9.2168C42.7095 9.08881 42.5733 8.95258 42.4453 8.80859C42.2375 8.60076 42.1255 8.43265 42.1094 8.30469L42.2539 8.13672H42.1338C42.0859 8.13672 42.0297 8.08046 41.9658 7.96875V7.80078C41.9338 7.68878 41.9011 7.6244 41.8691 7.6084C41.8532 7.57645 41.8457 7.55211 41.8457 7.53613L41.8691 7.44043V7.03223C41.8851 7.04821 41.9095 7.05663 41.9414 7.05664C42.0214 7.05664 42.0615 7.00811 42.0615 6.91211C42.0614 6.80028 41.9812 6.74414 41.8213 6.74414C41.9971 6.61629 42.0857 6.49665 42.0859 6.38477C42.0859 6.27279 42.0056 6.16825 41.8457 6.07227C41.8297 5.99229 41.854 5.92043 41.918 5.85645L42.1094 5.76074C42.1254 5.72874 42.1412 5.69606 42.1572 5.66406C42.1892 5.61608 42.2294 5.56006 42.2773 5.49609C42.2614 5.46414 42.2454 5.42384 42.2295 5.37598V5.25684C42.2295 5.16084 42.2453 5.08804 42.2773 5.04004C42.2933 5.02409 42.3177 5.0166 42.3496 5.0166C42.3816 5.01658 42.4218 5.00817 42.4697 4.99219L42.5654 4.80078C42.8054 4.80078 42.8857 4.71213 42.8057 4.53613H42.8291C42.8771 4.53613 42.9331 4.46423 42.9971 4.32031C43.0291 4.32031 43.1177 4.27274 43.2617 4.17676C43.3257 4.11278 43.4134 4.0801 43.5254 4.08008H43.5977C43.6136 4.08013 43.6211 4.08854 43.6211 4.10449H43.6699L43.7656 4.08008C43.7658 4.04813 43.79 4.00782 43.8379 3.95996C43.9657 3.86418 44.0621 3.81641 44.126 3.81641L44.3174 3.86426ZM62.2402 0.0488281C62.2243 0.160534 62.2243 0.232697 62.2402 0.264648C62.2722 0.280642 62.2722 0.400199 62.2402 0.624023C62.2562 0.57633 62.2646 0.624739 62.2646 0.768555C62.1367 0.848531 62.0723 0.904529 62.0723 0.936523C62.0723 0.984433 62.105 1.01624 62.1689 1.03223C62.2009 1.14417 62.2327 1.25622 62.2646 1.36816C62.2966 1.46416 62.3209 1.56866 62.3369 1.68066C62.3367 1.69686 62.3209 1.73718 62.2891 1.80078C62.2411 1.84878 62.2168 1.88048 62.2168 1.89648C62.2008 1.94449 62.1924 2.02477 62.1924 2.13672L62.2402 2.35254C62.2882 2.38454 62.3209 2.44051 62.3369 2.52051C62.3368 2.55247 62.3125 2.60026 62.2646 2.66406C62.2168 2.71191 62.1689 2.73617 62.1211 2.73633L62.001 2.68848C61.905 2.65648 61.8564 2.64062 61.8564 2.64062L61.8086 2.66406C61.7926 2.68002 61.7767 2.68844 61.7607 2.68848L61.2803 2.73633C61.2633 2.73543 61.1669 2.67104 60.9922 2.54395C60.9602 2.59192 60.8808 2.6564 60.7529 2.73633H60.417C60.321 2.75233 60.2165 2.76818 60.1045 2.78418C60.0085 2.80017 59.8965 2.81604 59.7686 2.83203L59.4326 2.78418C59.4965 2.75216 59.4882 2.6719 59.4082 2.54395C59.3124 2.43224 59.2562 2.37598 59.2402 2.37598L59.1445 2.59277C59.1445 2.6246 59.137 2.65665 59.1211 2.68848C59.0251 2.75247 58.929 2.83272 58.833 2.92871L58.8564 3.26465C58.8563 3.29655 58.8405 3.32845 58.8086 3.36035L58.7607 3.45605C58.7767 3.50405 58.7842 3.58433 58.7842 3.69629L58.5205 3.93652C58.5205 3.93652 58.5524 3.95248 58.6162 3.98438L58.7363 3.93652L58.7842 4.03223C58.7828 4.03446 58.7595 4.07473 58.7129 4.15234C58.7289 4.20039 58.7363 4.32078 58.7363 4.5127L58.6885 4.6084C58.6885 4.67232 58.7203 4.76029 58.7842 4.87207C58.8322 4.98407 58.849 5.07272 58.833 5.13672L58.7842 5.35254C58.8482 5.41654 58.8809 5.49677 58.8809 5.59277C58.8808 5.64077 58.8649 5.71287 58.833 5.80859C58.865 5.88833 58.9287 5.93613 59.0244 5.95215C59.0881 5.96807 59.1284 5.98408 59.1445 6C59.1765 6.016 59.2008 6.03283 59.2168 6.04883C59.2329 6.11251 59.2731 6.14453 59.3369 6.14453C59.4168 6.14447 59.4888 6.12021 59.5527 6.07227L59.6484 5.97656C59.6644 5.97656 59.7046 5.99243 59.7686 6.02441C59.8166 6.02441 59.8725 6.00015 59.9365 5.95215C60.0165 5.90416 60.0651 5.87988 60.0811 5.87988C60.0973 5.88042 60.1368 5.91318 60.2002 5.97656C60.2638 6.04015 60.3041 6.07185 60.3203 6.07227L60.8965 6.02441C60.9605 6.02441 61.0006 6.00015 61.0166 5.95215C61.0326 5.90423 61.0728 5.86399 61.1367 5.83203L61.4727 5.80859C61.5046 5.84055 61.5289 5.87234 61.5449 5.9043C61.5449 5.92029 61.5048 6.03234 61.4248 6.24023V6.43262C61.4408 6.48052 61.4567 6.54433 61.4727 6.62402L61.3291 6.64844C61.2651 6.66444 61.2324 6.70455 61.2324 6.76855C61.2326 6.78462 61.2569 6.81646 61.3047 6.86426C61.3526 6.86422 61.4003 6.81638 61.4482 6.7207L61.4971 6.76855C61.4651 6.9125 61.4408 6.99279 61.4248 7.00879L61.4971 7.44043C61.4811 7.45643 61.4642 7.4807 61.4482 7.5127C61.4322 7.52893 61.4087 7.56929 61.377 7.63281V7.82422C61.4569 7.84039 61.5607 7.93658 61.6885 8.1123C61.6885 8.1763 61.6325 8.24069 61.5205 8.30469C61.4887 8.33648 61.4566 8.36001 61.4248 8.37598L61.3525 8.4248V8.40039L61.1602 8.35254L60.7529 8.37598L60.4883 8.4248V8.32812H60.417C60.353 8.32812 60.2886 8.34402 60.2246 8.37598C60.1609 8.43969 60.1131 8.47237 60.0811 8.47266L59.8164 8.4248L59.5283 8.49609H59.3369C59.289 8.49609 59.2488 8.50453 59.2168 8.52051C59.1208 8.53651 59.0247 8.59248 58.9287 8.68848C58.9766 8.73647 58.9766 8.82435 58.9287 8.95215L59.0488 9.09668C58.9848 9.19262 58.8961 9.26452 58.7842 9.3125C58.8002 9.3285 58.817 9.34435 58.833 9.36035C58.865 9.37629 58.9128 9.39226 58.9766 9.4082C59.0726 9.5042 59.1211 9.58444 59.1211 9.64844L59.1445 9.81641L59.0723 9.88867C58.9128 9.80891 58.8569 9.76874 58.9043 9.76855C58.8405 9.76869 58.8086 9.80881 58.8086 9.88867C58.8566 9.90472 58.9285 9.97656 59.0244 10.1045C59.1044 10.2325 59.1445 10.3528 59.1445 10.4648L59.0967 10.752C59.1127 10.8 59.1211 10.9045 59.1211 11.0645C59.1211 11.1124 59.0884 11.16 59.0244 11.208L59.1924 11.3281C59.1924 11.3441 59.1447 11.4002 59.0488 11.4961C59.0808 11.5601 59.1125 11.6245 59.1445 11.6885C59.1924 11.7364 59.2327 11.8001 59.2646 11.8799V11.9287C59.2645 12.0405 59.2085 12.1041 59.0967 12.1201C59.0647 12.1201 59.0404 12.1528 59.0244 12.2168C59.0086 12.2805 59.0169 12.3125 59.0488 12.3125L59.0723 12.2881C59.0882 12.2881 59.1286 12.3041 59.1924 12.3359L59.2168 12.8887C59.2167 12.9205 59.2083 12.944 59.1924 12.96L59.1689 13.0322C59.1849 13.0642 59.2008 13.1044 59.2168 13.1523C59.2487 13.1843 59.2731 13.2321 59.2891 13.2959C59.321 13.3439 59.2967 13.4083 59.2168 13.4883L59.2646 13.5605C59.2806 13.5925 59.289 13.6243 59.2891 13.6562L59.2646 13.8965L59.2168 14.0879C59.2168 14.0879 59.2569 14.1448 59.3369 14.2568C59.4006 14.3366 59.4326 14.4003 59.4326 14.4482C59.4326 14.5122 59.3848 14.5842 59.2891 14.6641C59.2091 14.728 59.1447 14.7607 59.0967 14.7607L59.001 14.7119C58.969 14.6959 58.9447 14.6801 58.9287 14.6641H58.8809C58.8489 14.6641 58.8087 14.6884 58.7607 14.7363C58.7131 14.7839 58.6812 14.8082 58.665 14.8086H58.5205C58.3766 14.8086 58.2804 14.7843 58.2324 14.7363C58.2164 14.6724 58.2164 14.6079 58.2324 14.5439C58.2004 14.5121 58.1442 14.4886 58.0645 14.4727L58.0166 14.4961C58.0166 14.5601 58.025 14.6086 58.041 14.6406C58.0408 14.7046 57.9765 14.7766 57.8486 14.8564C57.8486 14.8564 57.8167 14.8405 57.7529 14.8086C57.6892 14.7608 57.6489 14.7365 57.6328 14.7363L57.3203 14.9043H57.0322C56.9682 14.9041 56.8719 14.864 56.7441 14.7842L56.8408 14.4961C56.8407 14.4802 56.8323 14.4642 56.8164 14.4482C56.8164 14.4322 56.8089 14.4079 56.793 14.376C56.745 14.328 56.7207 14.2963 56.7207 14.2803L56.7686 13.7041C56.7686 13.6083 56.8004 13.5044 56.8643 13.3926C56.9283 13.2806 56.9609 13.2003 56.9609 13.1523C56.9609 13.1044 56.9124 13.0801 56.8164 13.0801H56.7686L56.6963 12.3848L56.5762 12.0244C56.6082 11.9924 56.6409 11.9607 56.6729 11.9287C56.7209 11.8967 56.7684 11.864 56.8164 11.832V11.7363C56.7205 11.6724 56.6486 11.6322 56.6006 11.6162L56.6963 11.5205L56.5762 11.376C56.6081 11.2643 56.6165 11.2007 56.6006 11.1846L56.5283 11.0645C56.5283 11.0005 56.5685 10.9043 56.6484 10.7764H56.7441C57.0001 10.7764 57.1363 10.7203 57.1523 10.6084C57.1368 10.6078 57.1527 10.5599 57.2002 10.4648L57.249 10.3203C57.1691 10.3523 57.0728 10.3925 56.9609 10.4404C56.8489 10.4724 56.7286 10.5125 56.6006 10.5605C56.5846 10.5445 56.5762 10.5203 56.5762 10.4883V10.2959C56.5921 10.2161 56.5921 10.1365 56.5762 10.0566C56.5757 10.056 56.5599 10.0317 56.5283 9.98438C56.5283 9.98438 56.5443 9.95238 56.5762 9.88867C56.6242 9.84067 56.6326 9.80799 56.6006 9.79199C56.6002 9.77587 56.576 9.74392 56.5283 9.69629C56.4807 9.64862 56.4573 9.61664 56.457 9.60059V9.50391C56.4571 9.39213 56.4804 9.28821 56.5283 9.19238C56.6083 9.16039 56.6484 9.10438 56.6484 9.02441C56.6484 8.89658 56.6006 8.84813 56.5049 8.87988V8.71191C56.5048 8.64805 56.4964 8.56832 56.4805 8.47266C56.5285 8.45666 56.5602 8.42398 56.5762 8.37598C56.6081 8.32801 56.5923 8.30469 56.5283 8.30469H56.457L56.3604 8.06445L56.3848 7.91992C56.4007 7.87207 56.4082 7.82422 56.4082 7.77637C56.4402 7.76037 56.4729 7.7361 56.5049 7.7041C56.5527 7.6722 56.6006 7.6403 56.6484 7.6084V7.5127H56.6963C56.7122 7.49674 56.7367 7.4808 56.7686 7.46484L56.6963 7.44043C56.6485 7.44047 56.6165 7.44888 56.6006 7.46484C56.5525 7.48078 56.4563 7.48082 56.3125 7.46484C56.3285 7.41684 56.4087 7.30393 56.5527 7.12793L56.4805 7.00879C56.4965 6.99279 56.5049 6.94426 56.5049 6.86426L56.3848 6.19238V5.92871C56.3528 5.88071 56.2884 5.81633 56.1924 5.73633V5.66406L56.3125 5.61621L56.3604 5.78418C56.3764 5.80018 56.4006 5.80859 56.4326 5.80859C56.4966 5.80859 56.5769 5.74421 56.6729 5.61621L56.3369 5.4248L56.3125 5.20801L56.5762 5.1123C56.5597 5.11142 56.5118 5.06371 56.4326 4.96875L56.3369 4.89648C56.2729 4.88048 56.2402 4.85622 56.2402 4.82422C56.2403 4.69634 56.3048 4.59265 56.4326 4.5127L56.3848 4.2959C56.3686 4.20022 56.2965 4.13647 56.1689 4.10449L56.2402 3.4082V3.36035C56.2562 3.34435 56.2731 3.32009 56.2891 3.28809L56.3125 3.19238L56.2168 3.04883C56.1848 3.00086 56.2167 2.9607 56.3125 2.92871C56.2645 2.89671 56.2085 2.83233 56.1445 2.73633L56.1924 2.64062C56.2084 2.62462 56.2168 2.60036 56.2168 2.56836L56.1445 2.37598V1.80078C56.1445 1.80078 56.1604 1.7681 56.1924 1.7041L56.2168 1.6084C56.2168 1.57643 56.185 1.50437 56.1211 1.39258C56.0411 1.28058 56.001 1.2162 56.001 1.2002L56.0488 0.480469C56.0968 0.464469 56.1529 0.44017 56.2168 0.408203C56.2807 0.376244 56.3527 0.34446 56.4326 0.3125C56.4646 0.344545 56.4889 0.424824 56.5049 0.552734L56.7207 0.600586C56.7206 0.664488 56.6888 0.736562 56.625 0.816406C56.7688 0.880308 56.8408 0.912109 56.8408 0.912109H56.9131L56.9365 0.84082L56.8164 0.791992L56.8643 0.671875C56.8801 0.639835 56.8643 0.583704 56.8164 0.503906C56.8643 0.471972 56.9205 0.432628 56.9844 0.384766C57.0484 0.336765 57.1128 0.288234 57.1768 0.240234C57.2086 0.240278 57.2406 0.256276 57.2725 0.288086L57.3926 0.408203C57.5206 0.456203 57.6251 0.480469 57.7051 0.480469C57.753 0.480268 57.8092 0.448565 57.873 0.384766C57.9529 0.336841 58.0006 0.312524 58.0166 0.3125C58.1126 0.376481 58.2087 0.41662 58.3047 0.432617H58.5449C58.577 0.432373 58.6331 0.392255 58.7129 0.3125L58.833 0.192383C58.849 0.208192 58.8726 0.216743 58.9043 0.216797C58.9362 0.216797 58.9765 0.224284 59.0244 0.240234C58.9925 0.272248 59.0167 0.33666 59.0967 0.432617L59.2891 0.360352C59.321 0.360569 59.3605 0.38489 59.4082 0.432617L59.5762 0.552734C59.6402 0.488735 59.6644 0.400086 59.6484 0.288086H59.7441L60.0811 0.456055C60.0972 0.439576 60.1291 0.383362 60.1768 0.288086L60.3926 0.360352C60.4246 0.360352 60.4731 0.312744 60.5371 0.216797H60.6328C60.6333 0.232796 60.6575 0.256381 60.7051 0.288086C60.737 0.320047 60.7445 0.360295 60.7285 0.408203L60.7764 0.432617C60.8084 0.432617 60.8242 0.424203 60.8242 0.408203C60.8722 0.360203 60.8648 0.279968 60.8008 0.167969C60.8804 0.120229 60.9443 0.0968251 60.9922 0.0966797C61.0242 0.0966797 61.0727 0.128383 61.1367 0.192383C61.2167 0.272344 61.2811 0.3125 61.3291 0.3125C61.3771 0.264594 61.4331 0.232779 61.4971 0.216797L62.1689 0.0488281H62.2402ZM76.1924 3.74414C76.2244 3.74414 76.2486 3.75255 76.2646 3.76855C76.2806 3.78444 76.2966 3.79193 76.3125 3.79199L76.5049 3.76855L76.7207 3.95996C76.7235 3.95902 76.7714 3.94307 76.8643 3.91211L76.9844 3.86426C77.0484 3.89626 77.1212 3.92796 77.2012 3.95996C77.281 3.99191 77.3606 4.02469 77.4404 4.05664C77.5204 4.02466 77.6325 4.0247 77.7764 4.05664L77.7529 4.17676V4.2002C77.7529 4.29618 77.8407 4.34471 78.0166 4.34473H78.209C78.2144 4.35468 78.3182 4.54642 78.5205 4.91992L78.665 4.87207C78.7288 4.87216 78.7692 4.89642 78.7852 4.94434L79.0488 5.85645C79.0328 5.88845 79.0244 5.94442 79.0244 6.02441V6.24023L79.0967 6.4082C79.1287 6.5042 79.1445 6.55273 79.1445 6.55273L79.0967 6.62402C79.0807 6.64001 79.0723 6.66432 79.0723 6.69629V7.05664C79.0564 7.07276 79.0403 7.10469 79.0244 7.15234C79.0085 7.18428 78.9925 7.23216 78.9766 7.2959C78.8806 7.3119 78.833 7.34459 78.833 7.39258C78.8332 7.44063 78.905 7.52845 79.0488 7.65625C79.1768 7.78424 79.2402 7.86449 79.2402 7.89648C79.2401 7.92835 79.2007 7.94428 79.1211 7.94434L79.0488 8.28027C79.0328 8.29627 79.0086 8.3448 78.9766 8.4248C78.9767 8.521 79.0252 8.72932 79.1211 9.04883C79.0572 9.08078 79.0086 9.12006 78.9766 9.16797C78.9766 9.16797 78.9766 9.23236 78.9766 9.36035L79.001 9.60059V9.69629C79.001 9.72829 78.9926 9.77682 78.9766 9.84082L78.9531 10.0801H78.833C78.7051 10.0801 78.6005 10.0166 78.5205 9.88867C78.4565 9.77667 78.4005 9.7207 78.3525 9.7207C78.3364 9.72101 78.2886 9.7687 78.209 9.86426C78.113 9.96026 78.0486 10.0088 78.0166 10.0088L77.7529 9.98438C77.6729 9.96838 77.6085 9.96838 77.5605 9.98438H77.4648L76.9609 9.76855C76.8491 9.86445 76.721 9.91201 76.5771 9.91211C76.4012 9.91211 76.2491 9.85607 76.1211 9.74414C76.0891 9.77614 76.0723 9.80041 76.0723 9.81641H75.6885C75.6885 9.80052 75.6808 9.79211 75.665 9.79199H75.5684C75.4245 9.79213 75.3049 9.88077 75.209 10.0566V10.1523C75.193 10.1843 75.1686 10.2321 75.1367 10.2959C75.1207 10.3439 75.0965 10.4008 75.0645 10.4648C75.0648 10.4808 75.0808 10.5046 75.1123 10.5361L75.1611 10.6328V10.7764C75.1611 10.8083 75.1526 10.8561 75.1367 10.9199C75.1527 10.9679 75.1611 11.0483 75.1611 11.1602C75.1611 11.2241 75.1208 11.2802 75.041 11.3281L74.9932 12.1201C75.089 12.2001 75.1283 12.3364 75.1123 12.5283H75.4004C75.4962 12.5283 75.5682 12.5603 75.6162 12.624C75.6642 12.688 75.6969 12.7207 75.7129 12.7207L75.8809 12.6484L76.0488 12.7686C76.0968 12.7685 76.1285 12.7442 76.1445 12.6963L76.2891 12.3604V12L76.3125 11.6406C76.3285 11.5927 76.3369 11.5525 76.3369 11.5205C76.3528 11.473 76.3602 11.441 76.3604 11.4248L76.3369 11.3525C76.3689 11.2885 76.3848 11.24 76.3848 11.208V11.1123L76.3369 10.8965C76.4009 10.7365 76.4811 10.6562 76.5771 10.6562C76.7051 10.7202 76.8808 10.7763 77.1045 10.8242L77.2246 10.7764C77.2726 10.7604 77.3127 10.752 77.3447 10.752C77.3767 10.752 77.4327 10.8164 77.5127 10.9443C77.6821 10.8827 77.77 10.8509 77.7764 10.8486L77.9688 10.9688H78.0166C78.2085 10.9688 78.3924 10.8884 78.5684 10.7285L78.9766 11.1123C78.8966 11.2562 78.8088 11.4402 78.7129 11.6641C78.6969 11.744 78.6726 11.8402 78.6406 11.9521C78.6246 12.0641 78.5929 12.1845 78.5449 12.3125C78.4331 12.3604 78.3772 12.4241 78.377 12.5039C78.377 12.5358 78.4005 12.5922 78.4482 12.6719C78.4962 12.7678 78.5205 12.8322 78.5205 12.8643L78.4727 12.9365C78.5046 13.0165 78.4962 13.0884 78.4482 13.1523L78.377 13.2725C78.3928 13.2885 78.4004 13.3205 78.4004 13.3682C78.4004 13.5121 78.2968 13.6325 78.0889 13.7285L78.041 13.7764C78.0569 13.7924 78.0645 13.8167 78.0645 13.8486C78.0643 13.9604 78.0007 14.0324 77.873 14.0645C77.697 14.1125 77.5925 14.1526 77.5605 14.1846C77.5286 14.2325 77.4809 14.2887 77.417 14.3525L77.2012 14.5684C76.8812 14.7764 76.6563 14.864 76.5283 14.832L76.2402 14.7607C76.1605 14.7608 76.0807 14.7843 76.001 14.832C75.921 14.88 75.8566 14.8959 75.8086 14.8799L75.7129 14.8564H75.4482C75.4166 14.8722 75.3929 14.8798 75.377 14.8799C75.361 14.8799 75.3283 14.864 75.2803 14.832L75.1611 14.7842C75.1292 14.8001 75.0889 14.8086 75.041 14.8086C75.0091 14.8086 74.9688 14.8161 74.9209 14.832L74.585 14.6406C74.537 14.5286 74.4726 14.4727 74.3926 14.4727C74.3766 14.4567 74.3607 14.4567 74.3447 14.4727C74.3287 14.4885 74.2967 14.4961 74.249 14.4961C74.249 14.4961 74.1686 14.4326 74.0088 14.3047L73.8164 14.2324L73.6484 14.0645C73.6005 14.0006 73.5369 13.9285 73.457 13.8486L73.2646 13.7041V13.6562C73.2646 13.5923 73.2245 13.4961 73.1445 13.3682L72.9531 13.1768C72.9213 13.1131 72.8969 13.0728 72.8809 13.0566V12.7686C72.9607 12.8164 73.0084 12.8081 73.0244 12.7441C73.0564 12.6962 73.0246 12.6486 72.9287 12.6006C72.8648 12.5526 72.8331 12.5125 72.833 12.4805V12.0488C72.833 12.0008 72.8246 11.9523 72.8086 11.9043C72.7926 11.8244 72.7767 11.7524 72.7607 11.6885C72.7607 11.6085 72.7692 11.5366 72.7852 11.4727L72.833 11.2324C72.817 11.1364 72.8086 11.0403 72.8086 10.9443V10.6084C72.8086 10.5444 72.8329 10.4642 72.8809 10.3682L72.9531 10.1768C72.9371 10.0488 72.9203 9.9125 72.9043 9.76855C72.8883 9.60855 72.8724 9.44809 72.8564 9.28809C72.8567 9.23979 72.9211 9.08755 73.0488 8.83203C73.0807 8.81608 73.1126 8.80013 73.1445 8.78418C73.1765 8.76818 73.2082 8.74391 73.2402 8.71191C73.2388 8.6953 73.167 8.63901 73.0244 8.54395L72.9531 8.04004C72.9532 7.96023 72.9849 7.91246 73.0488 7.89648C73.0968 7.8645 73.1126 7.80841 73.0967 7.72852L73.4082 7.5127C73.3922 7.4487 73.3362 7.40858 73.2402 7.39258C73.2236 7.39287 73.1674 7.40873 73.0723 7.44043C73.0246 7.40861 73.0012 7.37655 73.001 7.34473C73.001 7.24878 73.0486 7.16847 73.1445 7.10449C73.2405 7.02449 73.2891 6.97596 73.2891 6.95996L73.1689 6.55273C73.1689 6.55273 73.2325 6.44048 73.3604 6.2168C73.4724 6.2008 73.5283 6.16812 73.5283 6.12012C73.5282 6.08816 73.5049 6.04788 73.457 6C73.393 5.952 73.3604 5.91188 73.3604 5.87988C73.3607 5.86395 73.3768 5.8401 73.4082 5.80859C73.4562 5.71259 73.5047 5.53627 73.5527 5.28027L73.6963 5.13672L73.7686 4.89648C73.8646 4.86448 73.9765 4.81595 74.1045 4.75195L74.417 4.36816C74.5767 4.16066 74.7124 4.06444 74.8242 4.08008L74.8965 4.10449C74.8965 4.08849 74.9609 4.06423 75.0889 4.03223C75.4718 3.90459 75.6876 3.84865 75.7363 3.86426L75.8564 3.88867C75.9522 3.82484 76.0243 3.76862 76.0723 3.7207L76.1924 3.74414ZM50.1553 0.120117C50.2191 0.136068 50.2829 0.152018 50.3467 0.167969L50.3945 0.144531H50.4434C50.4473 0.146478 50.4792 0.162465 50.5391 0.192383C50.587 0.240333 50.6272 0.264648 50.6592 0.264648L50.8027 0.240234C50.8507 0.224248 50.8909 0.216811 50.9229 0.216797L51.0674 0.240234L51.1387 0.456055L51.2354 0.480469C51.2833 0.432452 51.331 0.352116 51.3789 0.240234L51.835 0.264648C51.9466 0.344466 51.9867 0.424089 51.9551 0.503906L51.835 0.816406L51.8828 0.912109L51.9307 1.03223C51.9147 1.0802 51.8745 1.16801 51.8105 1.2959L51.9551 1.63281V1.75195C51.9391 1.75195 51.8905 1.77622 51.8105 1.82422L51.8828 1.96875L51.8594 2.40039L51.7148 2.44824C51.5869 2.52823 51.5225 2.62435 51.5225 2.73633C51.5225 2.81633 51.5794 2.85645 51.6914 2.85645C51.7232 2.85637 51.7468 2.84795 51.7627 2.83203C51.7467 2.89603 51.7308 2.96883 51.7148 3.04883V3.33594L51.7393 3.81641V3.93652C51.7392 3.96848 51.7308 4.01631 51.7148 4.08008C51.6988 4.11208 51.6746 4.15219 51.6426 4.2002C51.6266 4.2322 51.6107 4.28074 51.5947 4.34473V4.44043C51.5947 4.61639 51.6433 4.71996 51.7393 4.75195L51.8828 4.7041C51.8828 4.7041 51.9313 4.71995 52.0273 4.75195V4.63281L52.3389 4.46484L52.4346 4.32031C52.5145 4.24036 52.5948 4.20024 52.6748 4.2002H52.8906C53.0506 4.15219 53.1066 4.12049 53.0586 4.10449H53.4189C53.435 4.1045 53.4751 4.12035 53.5391 4.15234C53.603 4.15225 53.6834 4.08043 53.7793 3.93652C53.8593 4.04839 53.9555 4.13625 54.0674 4.2002C54.0995 4.18433 54.1557 4.17676 54.2354 4.17676L54.3545 4.2959C54.4185 4.3439 54.4829 4.39243 54.5469 4.44043C54.5629 4.42443 54.603 4.41602 54.667 4.41602C54.715 4.41608 54.8027 4.50473 54.9307 4.68066C55.0266 4.85665 55.1153 5.0806 55.1953 5.35254C55.1953 5.46446 55.1626 5.56067 55.0986 5.64062C55.0348 5.70455 55.0029 5.77656 55.0029 5.85645C55.003 5.88841 55.0348 5.92864 55.0986 5.97656C55.1786 6.04056 55.2029 6.11238 55.1709 6.19238C55.1709 6.22439 55.1466 6.28037 55.0986 6.36035C55.0348 6.3444 54.9786 6.33594 54.9307 6.33594C54.8988 6.32007 54.8668 6.3125 54.835 6.3125C54.771 6.3125 54.7393 6.32836 54.7393 6.36035C54.7393 6.40835 54.7794 6.46432 54.8594 6.52832C54.9551 6.59209 55.0347 6.62392 55.0986 6.62402C55.0826 6.81586 55.0752 6.9681 55.0752 7.08008V7.27246L55.123 7.5127C55.1221 7.51545 55.1136 7.53908 55.0986 7.58398C55.0827 7.63186 55.0752 7.67214 55.0752 7.7041L55.123 7.80078C55.1389 7.84878 55.139 7.92853 55.123 8.04004C55.123 8.16804 55.0988 8.27254 55.0508 8.35254L54.835 8.1123C54.755 8.14429 54.7149 8.20032 54.7148 8.28027C54.7148 8.32827 54.7391 8.36839 54.7871 8.40039L54.9307 8.44824C55.0585 8.52812 55.1228 8.61609 55.123 8.71191L54.9072 9.24023C54.9232 9.30423 54.9391 9.38447 54.9551 9.48047C54.9711 9.57644 54.9785 9.68846 54.9785 9.81641V9.93652C54.9466 10.0003 54.9148 10.0407 54.8828 10.0566C54.8815 10.058 54.8737 10.0658 54.8594 10.0801L54.9307 10.3682C54.9627 10.4482 54.9785 10.5125 54.9785 10.5605V10.6328L54.8828 10.7285C54.8828 10.7605 54.8753 10.8084 54.8594 10.8721C54.8594 10.9359 54.8509 11.0081 54.835 11.0879C54.819 11.1039 54.7713 11.0879 54.6914 11.04C54.6434 11.088 54.6107 11.1366 54.5947 11.1846V11.3281C54.8027 11.3921 54.8988 11.5283 54.8828 11.7363L54.7148 12.5283C54.7308 12.6243 54.7308 12.7764 54.7148 12.9844C54.7148 13.0164 54.6906 13.0724 54.6426 13.1523C54.6746 13.3123 54.6988 13.4243 54.7148 13.4883C54.7468 13.5523 54.7627 13.5681 54.7627 13.5361L54.7148 13.8965L54.6191 13.9688C54.6349 13.9851 54.6426 14.0413 54.6426 14.1367L54.6191 14.7842C54.5552 14.8481 54.4832 14.8723 54.4033 14.8564H54.1152L53.7305 14.7119C53.7143 14.7124 53.6823 14.7366 53.6348 14.7842C53.5548 14.8322 53.5072 14.848 53.4912 14.832L53.3711 14.7363H53.2266C53.1626 14.7363 53.0662 14.7279 52.9385 14.7119L52.6514 14.7842H52.3633C52.3153 14.7842 52.2509 14.7767 52.1709 14.7607L52.1953 14.376C52.1957 14.3599 52.2191 14.3278 52.2666 14.2803C52.3145 14.2324 52.3387 14.1846 52.3389 14.1367C52.3389 14.1047 52.323 14.0403 52.291 13.9443L52.4346 13.8486C52.4186 13.7847 52.3551 13.7361 52.2432 13.7041C52.2912 13.5603 52.3631 13.4883 52.459 13.4883L52.3389 13.3447V13.3203C52.3389 13.2563 52.3631 13.1443 52.4111 12.9844L52.3867 12.7207C52.3867 12.7207 52.4026 12.688 52.4346 12.624C52.4665 12.5601 52.4834 12.5199 52.4834 12.5039C52.4834 12.5199 52.4507 12.4164 52.3867 12.1924L52.4111 11.9521C52.427 11.8567 52.4269 11.7928 52.4111 11.7607C52.4111 11.7132 52.4188 11.6966 52.4346 11.7119V11.4727C52.4506 11.3767 52.4674 11.2722 52.4834 11.1602C52.5312 11.1123 52.5631 11.0644 52.5791 11.0166V10.8486C52.5951 10.7686 52.611 10.6884 52.627 10.6084L52.5791 10.2002L52.6025 9.69629C52.5389 9.66417 52.5312 9.58382 52.5791 9.45605L52.6748 9.19238C52.6748 9.16048 52.6909 9.12858 52.7227 9.09668C52.7067 9.06468 52.7151 8.99188 52.7471 8.87988L52.7949 8.71191V8.68848C52.7949 8.65653 52.7865 8.62472 52.7705 8.59277C52.7705 8.56077 52.7631 8.51224 52.7471 8.44824C52.6991 8.27228 52.6748 8.15188 52.6748 8.08789L52.6992 7.84863C52.7152 7.78477 52.7226 7.7286 52.7227 7.68066C52.7387 7.63266 52.7471 7.59998 52.7471 7.58398C52.7789 7.53538 52.779 7.32714 52.7471 6.95996L52.6748 6.62402C52.6587 6.35224 52.5626 6.19996 52.3867 6.16797C52.291 6.16805 52.2433 6.2243 52.2432 6.33594C52.2432 6.4159 52.203 6.45602 52.123 6.45605C52.0912 6.42425 52.0592 6.40834 52.0273 6.4082C51.9634 6.4082 51.9232 6.46432 51.9072 6.57617C51.8592 6.72017 51.7948 6.77614 51.7148 6.74414L51.5713 6.7207L51.5469 6.76855V6.84082C51.547 6.87267 51.5554 6.90468 51.5713 6.93652L51.4512 7.05664C51.467 7.10462 51.4586 7.18435 51.4268 7.2959L51.4512 7.94434V8.25684C51.4671 8.36864 51.4671 8.48847 51.4512 8.61621C51.4512 8.66421 51.4185 8.7603 51.3545 8.9043L51.2588 9.14453C51.2748 9.16056 51.2991 9.2408 51.3311 9.38477V9.45605C51.3311 9.52005 51.3226 9.58444 51.3066 9.64844V9.91211C51.3066 9.92811 51.2908 9.95238 51.2588 9.98438C51.2908 9.95238 51.3066 9.96079 51.3066 10.0088C51.3064 10.0248 51.2905 10.0484 51.2588 10.0801C51.2428 10.0961 51.2428 10.1605 51.2588 10.2725C51.2908 10.4324 51.2908 10.5528 51.2588 10.6328L51.1387 10.8721C51.1387 10.9041 51.163 10.9442 51.2109 10.9922L51.1631 11.4961L51.2832 11.6885C51.2672 11.7205 51.2514 11.7606 51.2354 11.8086C51.2194 11.8406 51.1951 11.8807 51.1631 11.9287L50.9473 11.9521L50.8994 12C50.9314 12.0319 50.9949 12.0488 51.0908 12.0488C51.1228 12.1127 51.1546 12.1689 51.1865 12.2168L51.1152 12.7686C51.0673 12.9442 51.0271 13.0319 50.9951 13.0322L51.1152 13.6807C51.0512 13.6967 51.0027 13.6967 50.9707 13.6807L50.9473 13.7764C50.9475 13.7793 50.9634 13.9473 50.9951 14.2803C51.027 14.2804 51.043 14.3046 51.043 14.3525C51.027 14.3686 51.0027 14.4003 50.9707 14.4482C50.9547 14.4962 50.923 14.5606 50.875 14.6406H50.8027C50.7708 14.6406 50.739 14.6322 50.707 14.6162L50.6113 14.5928C50.6113 14.5928 50.5711 14.6087 50.4912 14.6406L50.1787 14.5439C50.1467 14.544 50.1065 14.5608 50.0586 14.5928C49.9789 14.6246 49.9226 14.6247 49.8906 14.5928L49.5068 14.5684L49.3867 14.5928C49.3707 14.5927 49.3463 14.5843 49.3145 14.5684L49.2188 14.5205L49.0508 14.4482L48.9072 14.5439C48.8753 14.5599 48.8191 14.5683 48.7393 14.5684C48.6594 14.5684 48.6033 14.5205 48.5713 14.4248C48.5873 14.2968 48.5947 14.1839 48.5947 14.0879C48.6107 13.9763 48.6191 13.8806 48.6191 13.8008L48.5713 13.6807V13.6328C48.5873 13.6168 48.6031 13.6 48.6191 13.584L48.667 13.5361L48.8105 13.1523C48.8105 13.1364 48.787 13.1045 48.7393 13.0566C48.7074 13.0407 48.683 13.0247 48.667 13.0088C48.651 12.9928 48.6351 12.976 48.6191 12.96C48.6032 12.928 48.5947 12.8802 48.5947 12.8164V12.6484C48.6107 12.5686 48.6266 12.4965 48.6426 12.4326L48.7148 12.3125C48.6828 12.1845 48.6586 12.1043 48.6426 12.0723L48.7627 11.8799L48.835 11.6406L48.7871 11.4482C48.7711 11.3843 48.7552 11.3441 48.7393 11.3281C48.7234 11.2965 48.715 11.2728 48.7148 11.2568L48.7871 11.0879C48.7552 10.9919 48.7552 10.8321 48.7871 10.6084L48.835 10.5605C48.851 10.5445 48.8668 10.5203 48.8828 10.4883L48.9072 10.2246L48.9551 10.1768C48.9711 10.1608 48.9869 10.1364 49.0029 10.1045C49.0029 10.0565 48.9469 10.0005 48.835 9.93652L48.9307 9.67188V9.60059C48.9307 9.55259 48.9232 9.4882 48.9072 9.4082L49.0029 9.28809V8.95215L49.0508 8.78418V8.64062C49.0508 8.57662 49.0433 8.51224 49.0273 8.44824C49.0273 8.36828 49.0189 8.28797 49.0029 8.20801C49.0027 8.19205 48.9867 8.16836 48.9551 8.13672C48.9232 8.10484 48.9149 8.08045 48.9307 8.06445L49.0273 7.84863C49.0113 7.80064 49.0029 7.72038 49.0029 7.6084V7.22461L49.1465 7.2002C49.2104 7.15226 49.259 7.08863 49.291 7.00879C49.227 6.92879 49.1869 6.81588 49.1709 6.67188L49.0508 6.09668C49.0668 6.06468 49.0752 6.032 49.0752 6C49.0753 5.96803 49.0827 5.92013 49.0986 5.85645C49.3226 5.76045 49.4346 5.65595 49.4346 5.54395C49.4343 5.48019 49.3624 5.44077 49.2188 5.4248V4.91992C49.203 4.88832 49.1954 4.86456 49.1953 4.84863C49.1953 4.81663 49.1869 4.78395 49.1709 4.75195C49.1728 4.74395 49.2046 4.60819 49.2666 4.34473L49.2432 4.22461C49.2114 4.12917 49.1955 4.07301 49.1953 4.05664C49.1793 4.04064 49.1709 4.01637 49.1709 3.98438C49.1869 3.93639 49.1953 3.88039 49.1953 3.81641L49.2188 3.55273C49.2347 3.53677 49.2506 3.51236 49.2666 3.48047C49.2986 3.44848 49.3313 3.41676 49.3633 3.38477V3.24023C49.3633 3.20831 49.3548 3.17645 49.3389 3.14453C49.3389 3.09655 49.3304 3.04053 49.3145 2.97656L49.2432 2.68848C49.2592 2.64051 49.275 2.58446 49.291 2.52051C49.307 2.4566 49.3229 2.38456 49.3389 2.30469C49.4029 2.25669 49.4346 2.20816 49.4346 2.16016L49.3389 1.96875V1.82422L49.4111 1.77637C49.5071 1.6004 49.5547 1.43988 49.5547 1.2959C49.5546 1.20008 49.5313 1.09613 49.4834 0.984375C49.4354 0.856376 49.4111 0.776141 49.4111 0.744141L49.4834 0.52832C49.4834 0.384658 49.4749 0.280826 49.459 0.216797L50.0107 0.0722656C50.0587 0.0882654 50.1073 0.104117 50.1553 0.120117ZM38.0332 3.7207C38.1132 3.7207 38.2821 3.74399 38.5381 3.79199C38.8258 3.83997 38.9856 3.88855 39.0176 3.93652L38.9932 4.10449L39.0654 4.2002L39.21 4.12793C39.2579 4.12815 39.3141 4.17668 39.3779 4.27246L39.5693 4.2959C39.6013 4.2959 39.634 4.30431 39.666 4.32031H39.7617C39.7777 4.33626 39.7936 4.35221 39.8096 4.36816C39.8255 4.36816 39.8415 4.38425 39.8574 4.41602V4.6084L39.666 4.7041C39.682 4.76806 39.7456 4.8082 39.8574 4.82422C39.9854 4.84021 40.0572 4.86451 40.0732 4.89648L40.3135 5.78418C40.3135 5.83218 40.362 5.89656 40.458 5.97656C40.474 6.0885 40.4814 6.21646 40.4814 6.36035V6.81641L40.5537 6.93652C40.5696 6.95285 40.5771 7.04072 40.5771 7.2002L40.5537 7.6084C40.5377 7.75231 40.5293 7.88024 40.5293 7.99219V8.23242L40.5771 8.30469C40.5931 8.46456 40.6016 8.59253 40.6016 8.68848C40.6175 8.7684 40.626 8.80017 40.626 8.78418L40.5293 9.02441C40.5133 9.08819 40.4974 9.13599 40.4814 9.16797V9.36035C40.4974 9.40818 40.5134 9.45607 40.5293 9.50391C40.5613 9.53591 40.5856 9.58444 40.6016 9.64844C40.6336 9.69643 40.6578 9.75242 40.6738 9.81641L40.6494 10.1279C40.6334 10.1439 40.6176 10.1766 40.6016 10.2246C40.5856 10.2566 40.5697 10.2968 40.5537 10.3447C40.5552 10.3548 40.587 10.5707 40.6494 10.9922L40.5537 11.3281C40.5697 11.3441 40.594 11.4002 40.626 11.4961C40.658 11.5761 40.6738 11.6246 40.6738 11.6406V11.7607C40.6738 11.8566 40.6654 11.9286 40.6494 11.9766C40.7933 11.9926 40.8651 12.1122 40.8652 12.3359L40.8174 12.4805C40.7868 12.5722 40.7709 12.62 40.7695 12.624L40.8418 12.8887C40.8577 12.9526 40.8652 13.0246 40.8652 13.1045C40.8812 13.1844 40.8896 13.2882 40.8896 13.416V13.6562C40.9376 13.7202 40.9852 13.8323 41.0332 13.9922V14.0166C41.033 14.1924 40.8175 14.2961 40.3857 14.3281L39.9297 14.2568H39.7852C39.7052 14.2569 39.5854 14.2643 39.4258 14.2803C39.4098 14.2803 39.3855 14.2962 39.3535 14.3281C39.3216 14.3601 39.2897 14.3759 39.2578 14.376H39.042C39.042 14.376 38.9458 14.3442 38.7539 14.2803L38.8018 14.0645C38.8018 13.9685 38.7532 13.8966 38.6572 13.8486C38.6572 13.8326 38.6656 13.7683 38.6816 13.6562L38.7295 13.4883C38.6174 13.5044 38.3291 13.7442 37.8652 14.208C37.7535 14.3197 37.674 14.3682 37.626 14.3525L37.5293 14.3281C37.4814 14.3761 37.4337 14.4163 37.3857 14.4482C37.2899 14.4962 37.202 14.5204 37.1221 14.5205C37.1061 14.5365 37.0977 14.5364 37.0977 14.5205C37.0817 14.5046 37.0657 14.4962 37.0498 14.4961C37.0338 14.5121 36.9536 14.5448 36.8096 14.5928C36.6817 14.6407 36.6013 14.6641 36.5693 14.6641L36.2578 14.5684H35.9932C35.9293 14.5524 35.8572 14.5365 35.7773 14.5205L35.2734 14.0879C35.1457 13.96 35.0493 13.8085 34.9854 13.6328C34.9694 13.5689 34.9535 13.4885 34.9375 13.3926C34.9215 13.2966 34.8972 13.1846 34.8652 13.0566L34.8896 12.9365C34.8896 12.8885 34.8812 12.8484 34.8652 12.8164C34.8333 12.7205 34.8174 12.6719 34.8174 12.6719C34.8333 12.6399 34.8418 12.5921 34.8418 12.5283V12.2881L34.6973 11.8086V11.6162C34.6973 11.5683 34.7058 11.5205 34.7217 11.4727L34.8418 11.1846V11.0166C34.9058 10.9206 34.9692 10.8002 35.0332 10.6562C35.0972 10.4963 35.1616 10.3124 35.2256 10.1045L35.418 10.0088C35.434 9.97679 35.4498 9.94411 35.4658 9.91211C35.4818 9.8802 35.5062 9.84831 35.5381 9.81641L35.874 9.48047C35.89 9.44857 35.9059 9.41667 35.9219 9.38477C35.9378 9.3369 35.9613 9.28057 35.9932 9.2168L36.8574 8.68848C36.9374 8.64048 37.0177 8.59195 37.0977 8.54395C37.1776 8.49597 37.258 8.43992 37.3379 8.37598C37.3406 8.37689 37.3883 8.39375 37.4814 8.4248C37.4974 8.4088 37.5133 8.39198 37.5293 8.37598C37.5453 8.34412 37.5697 8.32066 37.6016 8.30469L37.8418 8.20801C37.8419 8.12822 37.8738 8.04853 37.9375 7.96875C37.9855 7.93675 38.0415 7.88821 38.1055 7.82422C38.1855 7.76023 38.2732 7.67996 38.3691 7.58398C38.3851 7.568 38.3851 7.48853 38.3691 7.34473C38.4011 7.37673 38.418 7.36831 38.418 7.32031C38.418 7.17635 38.4096 7.12035 38.3936 7.15234C38.3776 7.08835 38.3533 7.02395 38.3213 6.95996L38.2734 6.7207C38.2574 6.7047 38.2659 6.65617 38.2979 6.57617L38.3457 6.45605C38.3433 6.45266 38.3031 6.39658 38.2256 6.28809L37.9854 5.97656C37.9054 5.89664 37.8017 5.86396 37.6738 5.87988L37.5537 5.9043C37.4577 5.9363 37.4092 5.95215 37.4092 5.95215H37.1934L37.1455 6C37.1615 6.016 37.1774 6.03283 37.1934 6.04883C37.2093 6.06477 37.2253 6.08836 37.2412 6.12012C37.2412 6.15208 37.2337 6.17638 37.2178 6.19238V6.26465C37.1538 6.28063 37.0819 6.34428 37.002 6.45605C36.97 6.55205 36.9541 6.6407 36.9541 6.7207C36.9861 6.78451 37.0339 6.8483 37.0977 6.91211C37.0817 6.92811 37.0574 6.93652 37.0254 6.93652C36.9935 7.06421 36.9936 7.15217 37.0254 7.2002L37.0977 7.2959V7.41602C37.0977 7.43202 37.0734 7.45628 37.0254 7.48828L36.7373 7.41602C36.7212 7.35235 36.6811 7.33623 36.6172 7.36816C36.5694 7.3999 36.5299 7.39226 36.498 7.34473H36.4492C36.4014 7.34464 36.3695 7.32781 36.3535 7.2959C36.3375 7.24843 36.3056 7.25662 36.2578 7.32031L36.1133 7.48828C36.0335 7.4883 35.9698 7.49675 35.9219 7.5127L35.8018 7.46484C35.7539 7.43296 35.7221 7.42467 35.7061 7.44043H35.6572L35.1533 7.58398H35.0332C34.9853 7.58394 34.929 7.5765 34.8652 7.56055L34.7461 7.2002C34.7461 7.18434 34.7536 7.17679 34.7695 7.17676C34.7855 7.16076 34.7939 7.14393 34.7939 7.12793L34.8174 7.05664C34.8014 7.00872 34.794 6.95254 34.7939 6.88867V6.64844C34.8419 6.60048 34.8737 6.55187 34.8896 6.50391C34.9056 6.45573 34.9141 6.35191 34.9141 6.19238V6.04883C34.9141 5.63283 35.2657 5.11228 35.9697 4.48828C35.9858 4.44028 36.0418 4.36839 36.1377 4.27246C36.1537 4.25647 36.2573 4.20788 36.4492 4.12793C36.4811 4.09603 36.4894 4.07264 36.4736 4.05664L36.498 3.93652C36.5618 3.95247 36.6257 3.96842 36.6895 3.98438H36.9053L37.0732 3.91211C37.1052 3.89611 37.1379 3.88026 37.1699 3.86426C37.2015 3.84849 37.2253 3.84096 37.2412 3.84082H37.4092C37.4252 3.82485 37.4814 3.80047 37.5771 3.76855C37.673 3.75257 37.7534 3.74416 37.8174 3.74414C37.8972 3.72818 37.9693 3.72074 38.0332 3.7207ZM70.6943 0.0244141C70.8702 0.0244223 70.9823 0.0328366 71.0303 0.0488281C71.0942 0.0651832 71.1822 0.200661 71.2939 0.456055L71.1982 0.816406C71.2302 0.896316 71.2545 1.00015 71.2705 1.12793V1.24805C71.2705 1.28005 71.2621 1.32858 71.2461 1.39258L71.1982 1.6084C71.1983 1.6244 71.2057 1.64869 71.2217 1.68066C71.2377 1.69666 71.2545 1.73678 71.2705 1.80078L71.3184 1.99219V2.06445C71.3183 2.08052 71.3099 2.12069 71.2939 2.18457C71.2939 2.23244 71.262 2.28025 71.1982 2.32812L71.3662 2.68848C71.3661 2.70471 71.3418 2.77662 71.2939 2.9043C71.3419 3.01623 71.3662 3.1442 71.3662 3.28809C71.3662 3.28809 71.3504 3.33662 71.3184 3.43262C71.2865 3.51229 71.2782 3.56003 71.2939 3.57617L71.4141 3.91211C71.4461 4.12011 71.4703 4.26473 71.4863 4.34473C71.4847 4.34748 71.4603 4.3877 71.4141 4.46484C71.3662 4.52869 71.3418 4.57645 71.3418 4.6084C71.3097 4.60849 71.2459 4.62441 71.1504 4.65625C71.2784 4.81624 71.3978 5.03274 71.5098 5.30469L71.4141 5.54395C71.3502 5.68766 71.3185 5.79991 71.3184 5.87988C71.3504 5.91188 71.3905 5.98468 71.4385 6.09668L71.4619 6.28809C71.5099 6.33609 71.5416 6.38462 71.5576 6.43262C71.555 6.4369 71.5316 6.47727 71.4863 6.55273L71.3662 6.7207C71.3503 6.75269 71.3418 6.80045 71.3418 6.86426L71.5342 7.05664L71.4385 7.2002C71.4544 7.18498 71.4704 7.2249 71.4863 7.32031L71.4619 7.53613L71.5342 7.72852L71.4385 8.18457L71.6543 8.54395C71.6543 8.57595 71.63 8.66459 71.582 8.80859L71.4863 9.04883C71.4868 9.0825 71.5343 9.30669 71.6299 9.7207C71.5659 9.6727 71.4941 9.64844 71.4141 9.64844C71.3022 9.64844 71.2462 9.69624 71.2461 9.79199C71.2461 9.90399 71.3105 9.95996 71.4385 9.95996C71.4546 9.96036 71.4866 9.98463 71.5342 10.0322L71.6064 10.0801C71.5904 10.1921 71.5904 10.2966 71.6064 10.3926L71.6777 10.584C71.6777 10.584 71.6619 10.6325 71.6299 10.7285L71.582 10.8721C71.6459 10.936 71.6861 11.0081 71.7021 11.0879V11.2324C71.6861 11.2484 71.6376 11.2568 71.5576 11.2568L71.582 11.4004V11.5684C71.518 11.5364 71.4621 11.5448 71.4141 11.5928V11.6641L71.6064 11.6406C71.6384 11.8004 71.6617 11.9126 71.6777 11.9766L71.6299 12.1201C71.5979 12.2161 71.582 12.2646 71.582 12.2646C71.5822 12.3125 71.6141 12.3604 71.6777 12.4082L71.7979 12.4805C71.75 12.5444 71.7425 12.6483 71.7744 12.792C71.7744 12.808 71.7576 12.8323 71.7256 12.8643C71.6938 12.8961 71.6779 12.9282 71.6777 12.96L71.7979 13.6807L71.8223 14.4248C71.8221 14.5205 71.7736 14.5684 71.6777 14.5684L71.582 14.5205C71.55 14.5045 71.5258 14.4961 71.5098 14.4961C71.4939 14.4803 71.4778 14.4727 71.4619 14.4727C71.4299 14.4567 71.3898 14.4482 71.3418 14.4482H71.2217C71.0459 14.4483 70.902 14.4567 70.79 14.4727C70.6781 14.4727 70.6063 14.4642 70.5742 14.4482L70.4297 14.4248C70.3979 14.4408 70.3581 14.4644 70.3105 14.4961L70.166 14.5684H69.8057C69.7897 14.5842 69.7661 14.5927 69.7344 14.5928C69.7024 14.5928 69.6697 14.6002 69.6377 14.6162L69.3262 14.5205C69.2784 14.4887 69.2541 14.4567 69.2539 14.4248C69.2859 14.3768 69.2859 14.2163 69.2539 13.9443C69.2699 13.9283 69.2783 13.9041 69.2783 13.8721L69.3984 13.7764C69.3984 13.7284 69.39 13.6883 69.374 13.6562L69.3496 13.5605C69.3656 13.5605 69.3983 13.5204 69.4463 13.4404C69.4623 13.3765 69.494 13.3448 69.542 13.3447C69.638 13.2647 69.6865 13.1919 69.6865 13.1279C69.6864 12.9363 69.5977 12.8641 69.4219 12.9121L69.3262 12.9365C69.3421 12.9047 69.3495 12.8727 69.3496 12.8408C69.3496 12.8089 69.3581 12.7686 69.374 12.7207L69.2539 12.5283V12.4561C69.254 12.4241 69.2624 12.3763 69.2783 12.3125L69.2539 12.2168C69.2539 12.2009 69.2462 12.1925 69.2305 12.1924C69.2145 12.1764 69.2061 12.1605 69.2061 12.1445L69.2783 11.9043C69.3262 11.7767 69.3495 11.7047 69.3496 11.6885L69.2783 11.5439C69.2783 11.464 69.2699 11.3602 69.2539 11.2324C69.2539 11.0884 69.2465 10.9363 69.2305 10.7764L69.1338 10.5127V10.4404C69.1338 10.3924 69.1422 10.328 69.1582 10.248C69.1901 10.1681 69.2061 10.0718 69.2061 9.95996V9.93652C69.2061 9.90459 69.1976 9.87275 69.1816 9.84082C69.1816 9.79282 69.1742 9.73588 69.1582 9.67188L69.2305 9.55273C69.2305 9.53673 69.2221 9.51991 69.2061 9.50391L69.1582 9.33594C69.1264 9.25618 69.1339 9.17643 69.1816 9.09668L69.2783 8.92871L69.2061 8.83203V8.66406C69.206 8.60022 69.1976 8.5365 69.1816 8.47266V8.23242L69.0859 7.87207C69.1019 7.82412 69.1104 7.768 69.1104 7.7041C69.1104 7.62436 69.1179 7.54459 69.1338 7.46484L69.2539 7.32031C69.142 7.2563 69.0701 7.1443 69.0381 6.98438C69.0381 6.92038 69.0782 6.84854 69.1582 6.76855C69.2382 6.72056 69.2783 6.67202 69.2783 6.62402C69.2782 6.57602 69.2539 6.50398 69.2061 6.4082L69.3018 6.33594C69.2698 6.31994 69.2294 6.29651 69.1816 6.26465C69.1337 6.23268 69.0776 6.19993 69.0137 6.16797L69.2061 5.95215C69.1101 5.90409 69.0625 5.73615 69.0625 5.44824L68.8701 4.34473V3.74414C68.8701 3.66429 68.8617 3.62402 68.8457 3.62402L68.7979 3.45605C68.7979 3.36016 68.8137 3.26387 68.8457 3.16797C68.8459 3.1362 68.8703 3.11261 68.918 3.09668C68.9499 3.06472 68.9658 3.04041 68.9658 3.02441C68.9651 3.02295 68.9491 2.99105 68.918 2.92871C68.87 2.88071 68.8457 2.84803 68.8457 2.83203C68.8617 2.79997 68.8701 2.72807 68.8701 2.61621L69.0381 2.64062C69.0541 2.59265 69.0625 2.49644 69.0625 2.35254L68.8945 2.28027C68.9104 2.26391 68.918 2.20776 68.918 2.1123L68.7979 1.05664L68.8701 0.864258L68.7744 0.744141L68.7021 0.480469C68.7021 0.368486 68.7666 0.22479 68.8945 0.0488281H69.0137C69.0774 0.160379 69.1338 0.216472 69.1816 0.216797C69.2136 0.216797 69.2622 0.184117 69.3262 0.120117C69.3899 0.0564584 69.4378 0.0246369 69.4697 0.0244141L69.6621 0.120117C69.7741 0.184117 69.8385 0.216797 69.8545 0.216797C69.8705 0.200797 69.8863 0.183969 69.9023 0.167969C69.9183 0.152122 69.942 0.135965 69.9736 0.120117L70.0703 0.144531C70.1022 0.160434 70.1341 0.167961 70.166 0.167969C70.198 0.167969 70.2859 0.152072 70.4297 0.120117C70.5737 0.0721178 70.6623 0.0404139 70.6943 0.0244141ZM50.6826 14.1846C50.6666 14.1686 50.6264 14.176 50.5625 14.208C50.5785 14.24 50.627 14.2727 50.707 14.3047C50.723 14.2567 50.7146 14.2166 50.6826 14.1846ZM30.0742 14.1123C30.1219 14.1125 30.1379 14.1444 30.1221 14.208C30.0901 14.208 30.0499 14.1846 30.002 14.1367C30.018 14.1207 30.0422 14.1123 30.0742 14.1123ZM24.0244 13.1279L24.168 13.6084C24.168 13.7364 24.1521 13.7839 24.1201 13.752L24.0957 13.7285H24.0479C24.0158 13.7766 23.928 13.8728 23.7842 14.0166C23.816 14.0486 23.832 14.0964 23.832 14.1602L23.9277 14.1367C23.9437 14.1207 23.9999 14.1123 24.0957 14.1123L24.3838 13.7764C24.3519 13.7444 24.32 13.6965 24.2881 13.6328C24.2561 13.5528 24.2244 13.4642 24.1924 13.3682V13.2959C24.1925 13.2162 24.2159 13.1524 24.2637 13.1045L24.0244 13.1279ZM69.9736 14.04C69.9575 14.0087 69.9179 14.0246 69.8545 14.0879C69.8865 14.1359 69.9341 14.1527 69.998 14.1367C70.014 14.1047 70.0056 14.072 69.9736 14.04ZM37.5537 13.8965C37.5377 13.9125 37.5293 13.9526 37.5293 14.0166L37.626 14.04C37.6579 13.9123 37.6495 13.8486 37.6016 13.8486L37.5537 13.8965ZM44.1494 13.9443L44.4131 14.04L44.2695 13.8721H44.1738L44.1494 13.9443ZM64.0801 13.584C64.0481 13.648 64.0312 13.6965 64.0312 13.7285C64.0315 13.7446 64.0718 13.7925 64.1514 13.8721L64.2236 13.7041C64.1917 13.6562 64.1439 13.6159 64.0801 13.584ZM25.0557 13.6328C25.0397 13.6008 24.9995 13.6167 24.9355 13.6807C24.9675 13.7287 25.0161 13.7445 25.0801 13.7285C25.0961 13.6965 25.0876 13.6648 25.0557 13.6328ZM23.4004 13.584C23.3844 13.5522 23.3516 13.5605 23.3037 13.6084C23.3037 13.6564 23.3523 13.6807 23.4482 13.6807C23.4482 13.6487 23.4324 13.616 23.4004 13.584ZM30.9863 13.3447C30.9703 13.3607 30.89 13.3925 30.7461 13.4404V13.5361L30.8662 13.6562C30.8983 13.6562 30.9545 13.6488 31.0342 13.6328L31.1543 13.4883L30.9863 13.3447ZM24.9121 13.3203C24.9133 13.3209 24.9292 13.3293 24.96 13.3447C24.9919 13.3607 25.0162 13.3682 25.0322 13.3682C25.032 13.3521 25.0077 13.3203 24.96 13.2725C24.9588 13.2736 24.9428 13.2896 24.9121 13.3203ZM75.665 13.0088C75.633 12.9768 75.6004 12.9768 75.5684 13.0088C75.5687 13.0406 75.6089 13.0727 75.6885 13.1045C75.7044 13.0726 75.6967 13.0407 75.665 13.0088ZM46.8613 12.5283C46.8613 12.5603 46.8539 12.6005 46.8379 12.6484C46.8379 12.6804 46.8295 12.7206 46.8135 12.7686C46.7363 12.8921 46.696 12.9557 46.6934 12.96C46.7414 13.008 46.8057 13.0322 46.8857 13.0322C46.8697 13.0322 46.9733 12.952 47.1973 12.792V12.6963C47.1014 12.5844 47.0135 12.5284 46.9336 12.5283H46.8613ZM57.1045 12.6006L57.0811 12.7207C57.1448 12.7525 57.1927 12.7685 57.2246 12.7686C57.2566 12.6886 57.2566 12.6242 57.2246 12.5762L57.1045 12.6006ZM49.6992 12.6006C49.6513 12.6166 49.627 12.6643 49.627 12.7441C49.6588 12.7601 49.6908 12.7524 49.7227 12.7207C49.7386 12.7047 49.7311 12.6644 49.6992 12.6006ZM73.7207 12.6719L73.8643 12.7207L74.0566 12.624L74.0322 12.5283L73.9131 12.5039L73.8643 12.5527V12.5283L73.8408 12.4326L73.7686 12.4082L73.7207 12.6719ZM63.792 12.5527C63.8239 12.6004 63.8558 12.624 63.8877 12.624C63.9355 12.624 63.9834 12.6005 64.0312 12.5527C64.0153 12.5368 64.0078 12.5124 64.0078 12.4805L63.792 12.5527ZM37.8652 9.67188C37.8172 9.86388 37.7454 10.0328 37.6494 10.1768L37.4814 10.2959L37.3857 10.4648L37.2178 10.5605C37.2018 10.6245 37.17 10.6965 37.1221 10.7764C37.0901 10.8564 37.0574 10.9525 37.0254 11.0645C37.0254 11.1604 36.9693 11.3201 36.8574 11.5439L36.8818 11.6406C36.7704 11.768 36.7144 11.8476 36.7139 11.8799C36.7457 11.8642 36.7777 11.8809 36.8096 11.9287L36.9541 12.3125L37.0498 12.3604C37.0817 12.3604 37.1136 12.3764 37.1455 12.4082C37.1614 12.4241 37.1775 12.4401 37.1934 12.4561C37.2093 12.472 37.2252 12.4964 37.2412 12.5283L37.4336 12.5527H37.5537C37.5857 12.5527 37.6174 12.5359 37.6494 12.5039C37.6814 12.472 37.7057 12.4561 37.7217 12.4561C37.7536 12.472 37.8014 12.4964 37.8652 12.5283C37.9292 12.5283 38.002 12.4882 38.082 12.4082C38.114 12.3283 38.1617 12.232 38.2256 12.1201C38.3055 12.0882 38.3934 12.0245 38.4893 11.9287C38.4733 11.8967 38.4658 11.8323 38.4658 11.7363V11.4727C38.4818 11.3767 38.4977 11.2722 38.5137 11.1602C38.4977 11.0802 38.4818 10.9924 38.4658 10.8965C38.4498 10.7846 38.434 10.6565 38.418 10.5127C38.418 10.4167 38.4656 10.3608 38.5615 10.3447C38.5135 10.1847 38.41 9.95988 38.25 9.67188H37.8652ZM42.1816 12.2402C42.1976 12.2882 42.2293 12.3368 42.2773 12.3848H42.4219C42.4219 12.3528 42.405 12.3042 42.373 12.2402L42.3018 12.2646C42.2218 12.2646 42.1976 12.2244 42.2295 12.1445L42.1816 12.2402ZM50.6348 11.9043C50.6189 11.9202 50.6114 11.9362 50.6113 11.9521C50.6113 11.9681 50.6029 11.9924 50.5869 12.0244L50.6826 11.9766L50.6348 11.9043ZM38.874 11.8564C38.874 11.936 38.8816 11.9837 38.8975 12L39.042 11.9521C39.026 11.9361 39.0176 11.896 39.0176 11.832L38.874 11.8564ZM54.1387 11.6406C54.0909 11.6567 54.0674 11.6885 54.0674 11.7363L54.1631 11.832C54.243 11.816 54.315 11.7759 54.3789 11.7119L54.3545 11.6641L54.1387 11.6406ZM57.4404 11.6641C57.4086 11.6641 57.3766 11.6802 57.3447 11.7119C57.3767 11.7598 57.4245 11.7841 57.4883 11.7842C57.4882 11.7363 57.4724 11.696 57.4404 11.6641ZM23.0156 11.376C22.9997 11.4079 22.9922 11.4322 22.9922 11.4482L23.0879 11.376L23.04 11.3281C23.04 11.3281 23.0316 11.3441 23.0156 11.376ZM39.7139 11.0879C39.7299 11.1039 39.7532 11.1608 39.7852 11.2568C39.8171 11.3048 39.8499 11.3281 39.8818 11.3281C39.9138 11.328 39.9541 11.3047 40.002 11.2568C40.066 11.1928 40.0977 11.1443 40.0977 11.1123L40.0498 11.0166C40.0338 11.0006 40.0095 10.9922 39.9775 10.9922C39.9457 10.9922 39.9137 10.9846 39.8818 10.9688L39.7139 11.0879ZM49.1709 10.7764C49.0751 10.7764 49.0275 10.8242 49.0273 10.9199C49.0273 10.9679 49.0507 11.0324 49.0986 11.1123C49.1625 11.1762 49.2187 11.2079 49.2666 11.208C49.2986 11.176 49.3229 11.1443 49.3389 11.1123C49.3708 11.0644 49.3951 11.0167 49.4111 10.9688C49.4111 10.8407 49.3467 10.7764 49.2188 10.7764H49.1709ZM65.8076 11.1846C65.8236 11.2005 65.8556 11.208 65.9033 11.208L65.9277 11.0645C65.9118 11.0485 65.8798 11.0401 65.832 11.04L65.8076 11.1846ZM26.625 10.9346L26.6396 10.9199H26.6162C26.6216 10.9253 26.6232 10.931 26.625 10.9346ZM27.9121 10.752C27.8801 10.752 27.8484 10.7688 27.8164 10.8008C27.8485 10.8484 27.9046 10.8646 27.9844 10.8486C27.9844 10.8006 27.9601 10.768 27.9121 10.752ZM58.4004 10.416C58.3365 10.432 58.3047 10.4647 58.3047 10.5127V10.6562L58.4727 10.6084L58.4004 10.416ZM12 10.5684H2L4 6.56836H14L12 10.5684ZM31.0098 10.3682C30.9618 10.3842 30.9375 10.4327 30.9375 10.5127C30.9695 10.5287 31.0022 10.5203 31.0342 10.4883C31.066 10.4563 31.0577 10.4161 31.0098 10.3682ZM58.7129 10.1768C58.6489 10.1928 58.6162 10.2245 58.6162 10.2725V10.4404L58.7842 10.3682L58.7129 10.1768ZM27.5283 9.84082C27.4803 9.80882 27.4402 9.82467 27.4082 9.88867C27.4402 9.93643 27.4963 9.95249 27.5762 9.93652C27.5762 9.90465 27.5601 9.87269 27.5283 9.84082ZM58.2324 9.79199C58.2164 9.79212 58.192 9.80895 58.1602 9.84082H58.2324C58.2484 9.85674 58.2728 9.86426 58.3047 9.86426L58.2324 9.79199ZM31.9219 9.62402C31.906 9.63986 31.8976 9.65603 31.8975 9.67188C31.8975 9.68784 31.8899 9.71226 31.874 9.74414L31.9219 9.7207C31.9378 9.70475 31.9538 9.69634 31.9697 9.69629L31.9219 9.62402ZM73.5283 9.33594C73.4484 9.33606 73.3445 9.37627 73.2168 9.45605C73.2647 9.53588 73.3285 9.60798 73.4082 9.67188C73.4562 9.63987 73.5206 9.5522 73.6006 9.4082L73.5771 9.33594H73.5283ZM26.6162 9.43262C26.5682 9.46462 26.5524 9.52059 26.5684 9.60059C26.6002 9.60047 26.6322 9.58451 26.6641 9.55273C26.6641 9.50485 26.6481 9.46458 26.6162 9.43262ZM36.8574 9.57617L36.8818 9.45605L36.7373 9.43262L36.8574 9.57617ZM71.0508 9.18457C71.0161 9.04727 70.8982 9.00961 70.6943 9.07227C70.6143 9.10427 70.55 9.1528 70.502 9.2168C70.4701 9.26472 70.4541 9.32092 70.4541 9.38477C70.4543 9.49649 70.5186 9.55273 70.6465 9.55273H70.7178C70.8136 9.55273 70.8856 9.49642 70.9336 9.38477C71.0004 9.25121 71.0397 9.18434 71.0508 9.18457ZM77.9932 9.38477C77.9772 9.36879 77.9368 9.37635 77.873 9.4082C77.873 9.44018 77.9207 9.47193 78.0166 9.50391C78.0324 9.4563 78.0247 9.41661 77.9932 9.38477ZM64.5117 9.26465C64.4957 9.24866 64.4555 9.25612 64.3916 9.28809C64.3916 9.32005 64.4394 9.3528 64.5352 9.38477C64.5511 9.33686 64.5436 9.29662 64.5117 9.26465ZM44.0537 8.49609C44.1335 8.46414 44.1738 8.43234 44.1738 8.40039C44.1738 8.36843 44.1335 8.33665 44.0537 8.30469V8.49609ZM38.5381 8.06445C38.4742 8.08043 38.4415 8.11227 38.4414 8.16016C38.4574 8.17615 38.4976 8.17614 38.5615 8.16016L38.5381 8.06445ZM76.1689 5.95215C76.1209 5.95215 76.0323 6.00068 75.9043 6.09668L75.5205 6.36035C75.5845 6.40835 75.5929 6.47273 75.5449 6.55273C75.5288 6.61648 75.4726 6.64838 75.377 6.64844V6.7207C75.4249 6.68877 75.4726 6.71229 75.5205 6.79199C75.5523 6.85567 75.5606 6.89595 75.5449 6.91211L75.4971 7.63281V7.75195C75.5131 7.78395 75.5205 7.80078 75.5205 7.80078C75.5204 7.8485 75.4961 7.87207 75.4482 7.87207C75.4004 7.84012 75.361 7.79981 75.3291 7.75195L75.2568 7.80078L75.2324 7.94434L75.377 8.06445L75.6162 7.99219L75.9531 7.89648C76.065 7.89646 76.1847 7.88804 76.3125 7.87207C76.4405 7.84007 76.5851 7.80837 76.7451 7.77637L76.8164 7.48828C76.8324 7.47228 76.8725 7.44802 76.9365 7.41602C76.8727 7.35213 76.8165 7.28849 76.7686 7.22461C76.7366 7.16061 76.7291 7.09623 76.7451 7.03223L76.7686 6.86426V6.7207C76.7686 6.57681 76.705 6.45631 76.5771 6.36035C76.5931 6.31237 76.6006 6.24789 76.6006 6.16797C76.6003 6.04025 76.4565 5.96816 76.1689 5.95215ZM69.4697 7.72852C69.422 7.72874 69.3985 7.77649 69.3984 7.87207C69.4303 7.87195 69.4623 7.85609 69.4941 7.82422C69.526 7.79226 69.5177 7.76048 69.4697 7.72852ZM63.5273 7.68066C63.4796 7.69677 63.4561 7.74449 63.4561 7.82422C63.4879 7.84 63.5199 7.83257 63.5518 7.80078C63.5677 7.78479 63.5593 7.74459 63.5273 7.68066ZM57.4883 7.27246C57.4722 7.2728 57.4402 7.29707 57.3926 7.34473L57.4883 7.5127V7.27246ZM60.6562 7.27246C60.6723 7.28846 60.6891 7.31273 60.7051 7.34473L60.7529 7.44043L60.7285 7.32031V7.2002L60.6562 7.27246ZM64.4639 6.98438C64.4639 7.00036 64.4554 7.00879 64.4395 7.00879V7.03223L64.416 7.10449C64.4192 7.10292 64.4511 7.08697 64.5117 7.05664L64.4639 6.98438ZM59.8887 6.57617C59.7768 6.57617 59.6805 6.60799 59.6006 6.67188C59.6166 6.68788 59.625 6.73641 59.625 6.81641L59.6006 6.84082H59.5762C59.4647 6.90474 59.4485 6.97677 59.5283 7.05664C59.5603 7.08864 59.593 7.09608 59.625 7.08008C59.6258 7.06409 59.6894 7.04055 59.8164 7.00879C59.8962 6.97686 59.9363 6.93653 59.9365 6.88867L59.9131 6.84082C59.9131 6.82483 59.9448 6.78465 60.0088 6.7207L60.0811 6.62402C60.0809 6.60825 60.0725 6.60059 60.0566 6.60059C60.0246 6.58459 59.9686 6.57617 59.8887 6.57617ZM53.1787 7.00879C53.2107 7.0407 53.2509 7.05662 53.2988 7.05664C53.3148 7.05664 53.3232 7.0405 53.3232 7.00879C53.2752 6.94479 53.2267 6.91211 53.1787 6.91211V7.00879ZM42.4453 6.67188C42.3975 6.65601 42.3571 6.66436 42.3252 6.69629C42.3252 6.72829 42.3737 6.75999 42.4697 6.79199C42.4697 6.72821 42.4613 6.68784 42.4453 6.67188ZM47.3418 6.43262C47.3098 6.46462 47.2939 6.52059 47.2939 6.60059L47.5811 6.64844C47.5811 6.53671 47.5735 6.48074 47.5576 6.48047L47.4375 6.45605H47.3896C47.3738 6.44021 47.3577 6.43272 47.3418 6.43262ZM77.2012 6.60059C77.1532 6.45659 77.1046 6.45659 77.0566 6.60059C77.0886 6.64845 77.1372 6.64854 77.2012 6.60059ZM57.585 6.33594C57.553 6.39994 57.5371 6.44847 57.5371 6.48047C57.5409 6.48425 57.5803 6.52461 57.6562 6.60059C57.7202 6.48861 57.6969 6.39993 57.585 6.33594ZM23.1123 6.45605C23.0803 6.42409 23.0476 6.44008 23.0156 6.50391C23.0156 6.55191 23.0642 6.56873 23.1602 6.55273C23.1602 6.52073 23.1443 6.48805 23.1123 6.45605ZM25.0801 6.4082C25.0481 6.4402 25.0322 6.48873 25.0322 6.55273C25.0642 6.55266 25.096 6.53583 25.1279 6.50391C25.1597 6.47197 25.144 6.44014 25.0801 6.4082ZM36.3779 6.07227C36.2499 6.07227 36.194 6.1208 36.21 6.2168L36.2334 6.3125C36.2494 6.34444 36.2578 6.37626 36.2578 6.4082L36.5459 6.38477C36.6735 6.38469 36.7371 6.32843 36.7373 6.2168L36.6895 6.09668L36.3779 6.07227ZM75.4482 5.73633C75.4165 5.76833 75.4164 5.82458 75.4482 5.9043C75.5762 5.8563 75.5762 5.80033 75.4482 5.73633ZM78.4482 5.83203L78.5684 5.87988L78.5205 5.78418L78.4482 5.83203ZM31.5137 5.56836C31.4817 5.53646 31.4415 5.53639 31.3936 5.56836C31.4096 5.60036 31.4581 5.63206 31.5381 5.66406C31.5539 5.63217 31.5456 5.60025 31.5137 5.56836ZM77.4404 4.89648C77.3765 4.8646 77.3288 4.88881 77.2969 4.96875C77.281 4.9847 77.2725 5.00827 77.2725 5.04004C77.2885 5.07204 77.2969 5.10472 77.2969 5.13672L77.3203 5.30469L77.249 5.37598L77.5605 5.59277C77.6405 5.59277 77.6891 5.54424 77.7051 5.44824L77.6807 5.13672H77.6328C77.5849 5.13672 77.5606 5.09644 77.5605 5.0166C77.5285 4.9366 77.4884 4.89648 77.4404 4.89648ZM39.5215 5.35254C39.5375 5.40052 39.5861 5.46402 39.666 5.54395L39.7373 5.44824C39.7533 5.41624 39.7375 5.38454 39.6895 5.35254C39.6415 5.33657 39.5854 5.33655 39.5215 5.35254ZM70.9336 5.44824C70.9174 5.43265 70.8779 5.44093 70.8145 5.47266C70.8464 5.52039 70.8942 5.54393 70.958 5.54395C70.9738 5.51205 70.9655 5.48014 70.9336 5.44824ZM31.3936 5.23242C31.4094 5.24827 31.4256 5.25668 31.4414 5.25684C31.4733 5.25684 31.4977 5.26437 31.5137 5.28027C31.5297 5.26428 31.5138 5.23253 31.4658 5.18457L31.3936 5.23242ZM63.5039 4.75195C63.4879 4.75195 63.4478 4.76878 63.3838 4.80078L63.3594 4.84863C63.3754 4.89659 63.3997 4.95268 63.4316 5.0166C63.4636 5.08055 63.5038 5.15251 63.5518 5.23242L63.8633 4.96875L63.792 4.87207L63.6719 4.89648C63.6559 4.89648 63.6316 4.87222 63.5996 4.82422C63.5519 4.77654 63.52 4.75222 63.5039 4.75195ZM70.8623 5.08789C70.8303 5.08789 70.806 5.09632 70.79 5.1123C70.822 5.1443 70.8622 5.16016 70.9102 5.16016C70.9259 5.14416 70.9102 5.11979 70.8623 5.08789ZM67.8721 4.94434C67.8561 4.92834 67.8159 4.93679 67.752 4.96875C67.7839 5.01644 67.8318 5.04001 67.8955 5.04004C67.9113 5.00818 67.9038 4.9762 67.8721 4.94434ZM53.8506 4.82422C53.8344 4.80855 53.7941 4.8168 53.7305 4.84863C53.7625 4.89663 53.811 4.91992 53.875 4.91992C53.8908 4.88805 53.8825 4.85609 53.8506 4.82422ZM54.3311 4.72852C54.3151 4.74453 54.3309 4.78466 54.3789 4.84863L54.499 4.87207C54.4989 4.84011 54.483 4.79221 54.4512 4.72852H54.3311ZM75.8564 4.63281C75.8565 4.68066 75.8649 4.72852 75.8809 4.77637L75.9287 4.68066L75.8564 4.63281ZM30.8896 4.56055C30.8737 4.59243 30.8578 4.61685 30.8418 4.63281C30.8576 4.64877 30.8662 4.67236 30.8662 4.7041H30.9619C30.9779 4.70411 30.9863 4.71253 30.9863 4.72852H31.0342C31.13 4.72841 31.1777 4.67988 31.1777 4.58398L31.1299 4.44043H31.0098C30.9618 4.48839 30.9216 4.52857 30.8896 4.56055ZM33.3623 4.56055C33.3463 4.57655 33.3295 4.58398 33.3135 4.58398L33.3857 4.68066L33.4814 4.63281L33.3623 4.56055ZM67.7754 4.6084C67.7914 4.6244 67.8315 4.64866 67.8955 4.68066C67.8955 4.66466 67.8712 4.63198 67.8232 4.58398L67.7754 4.6084ZM10 4.56836H0L2 0.568359H12L10 4.56836ZM56.7686 4.34473C56.8005 4.34473 56.8407 4.36811 56.8887 4.41602H57.0322C57.0321 4.35216 57.0089 4.29596 56.9609 4.24805H56.793L56.7686 4.34473ZM44.4854 4.2959C44.4692 4.2803 44.4288 4.28851 44.3652 4.32031C44.3972 4.36831 44.4458 4.39258 44.5098 4.39258C44.5258 4.36058 44.5174 4.3279 44.4854 4.2959ZM36.5938 4.22461C36.5621 4.25627 36.5462 4.27991 36.5459 4.2959C36.5619 4.39187 36.6095 4.40025 36.6895 4.32031C36.6894 4.27238 36.6576 4.24062 36.5938 4.22461ZM21.7197 3.98438C21.7357 4.00033 21.7441 4.01627 21.7441 4.03223C21.7601 4.04818 21.776 4.06413 21.792 4.08008V3.98438H21.7197ZM23.376 3.19238C23.36 3.16038 23.3283 3.1688 23.2803 3.2168C23.2806 3.26448 23.3282 3.28806 23.4238 3.28809C23.4238 3.22427 23.4079 3.19238 23.376 3.19238ZM27.5762 2.92871C27.5282 2.92871 27.5039 2.96041 27.5039 3.02441C27.5519 3.04041 27.6004 3.01615 27.6484 2.95215C27.6325 2.93618 27.6081 2.92874 27.5762 2.92871ZM27.1924 2.80859V2.9043L27.2881 2.80859C27.2881 2.79262 27.2562 2.79267 27.1924 2.80859ZM23.1602 2.61621C23.0802 2.61621 22.9999 2.648 22.9199 2.71191C22.8081 2.63204 22.7277 2.59277 22.6797 2.59277C22.6956 2.62462 22.7116 2.66426 22.7275 2.71191C22.7435 2.75982 22.7604 2.81603 22.7764 2.87988C22.7929 2.86388 22.8492 2.84032 22.9443 2.80859L23.1357 2.83203L23.3281 2.87988C23.456 2.84785 23.5195 2.776 23.5195 2.66406L23.4961 2.56836L23.1602 2.61621ZM22.4404 2.73633C22.4084 2.70433 22.3758 2.70433 22.3438 2.73633C22.3119 2.76825 22.3044 2.80011 22.3203 2.83203C22.3683 2.86396 22.4084 2.83228 22.4404 2.73633ZM56.9609 1.80078C56.9449 1.76878 56.9123 1.77622 56.8643 1.82422C56.8643 1.87222 56.9128 1.89648 57.0088 1.89648C57.0088 1.86461 56.9927 1.83266 56.9609 1.80078ZM60.9688 1.77637C60.9847 1.79232 61.0006 1.80077 61.0166 1.80078C61.0486 1.80078 61.0729 1.80822 61.0889 1.82422C61.0887 1.80818 61.0644 1.77634 61.0166 1.72852L60.9688 1.77637ZM50.3232 1.65625C50.3072 1.62425 50.2746 1.63266 50.2266 1.68066C50.2268 1.71253 50.2671 1.7445 50.3467 1.77637C50.3627 1.72842 50.3552 1.68823 50.3232 1.65625ZM50.2266 1.34473L50.3467 1.39258L50.2988 1.2959L50.2266 1.34473ZM61.0889 1.27246C61.1528 1.28844 61.2089 1.30433 61.2568 1.32031H61.3525C61.1928 1.27241 61.1051 1.25658 61.0889 1.27246ZM69.71 1.00879C69.7259 0.992872 69.7419 0.984458 69.7578 0.984375C69.7738 0.984375 69.7897 0.97596 69.8057 0.959961C69.8054 0.943968 69.7895 0.920388 69.7578 0.888672L69.71 1.00879Z" fill="#0E172A"/>
</svg>
